<svg version="1.1" id="Layer_1" xmlns="http://www.w3.org/2000/svg" xmlns:xlink="http://www.w3.org/1999/xlink" x="0px" y="0px"
	 width="100%" viewBox="0 0 1024 1024" enable-background="new 0 0 1024 1024" xml:space="preserve">
<path fill="#000000" opacity="1.000000" stroke="none" 
	d="
M661.284058,543.688538 
	C663.032227,556.891052 658.284058,567.463989 650.518250,577.238220 
	C647.224365,581.383972 644.726196,586.171387 641.956482,590.721985 
	C638.217773,596.864624 636.453735,603.503357 636.955200,610.747681 
	C637.090637,612.704102 636.788025,614.725952 636.436523,616.672607 
	C635.942383,619.409973 634.498657,620.654236 631.453430,619.822998 
	C627.085571,618.630554 625.212891,620.830505 625.236450,625.057678 
	C625.251343,627.723755 625.325623,630.389832 625.318665,633.055786 
	C625.304016,638.692749 623.567444,641.238220 618.199646,642.172119 
	C608.784912,643.810181 599.291321,643.815125 589.859985,642.210938 
	C587.144958,641.749084 584.375000,640.780884 586.256653,635.337952 
	C584.019592,637.918884 583.961182,640.970337 581.004639,639.829956 
	C578.453674,638.846069 576.782349,637.213379 576.393005,634.452576 
	C576.150879,632.735291 576.764404,631.186951 577.412842,629.633667 
	C578.590759,626.811829 580.257263,624.145874 582.519226,622.299133 
	C593.230225,613.554504 598.382141,600.702637 606.640808,590.158447 
	C611.085449,584.483826 612.859619,577.528381 614.731995,569.661804 
	C610.028564,574.568420 606.521545,579.234863 601.963379,582.845459 
	C600.444275,584.048706 598.801880,585.869812 596.680664,584.635193 
	C594.768250,583.522095 594.827454,581.264099 594.825562,579.230408 
	C594.821899,575.402344 594.853271,571.572449 594.745056,567.746826 
	C594.665588,564.938477 593.415527,562.591064 591.272644,560.801880 
	C587.704834,557.822937 583.796021,558.753723 581.263977,562.599670 
	C577.608459,568.151917 576.812012,574.346863 576.533325,580.695374 
	C576.242004,587.330933 574.457703,593.598877 571.204468,599.259827 
	C564.047302,611.714111 564.079529,624.579224 567.982971,637.889648 
	C568.916565,641.073181 569.785400,644.342651 570.091003,647.627747 
	C570.544556,652.504150 568.860107,654.097351 564.033630,653.809509 
	C560.480469,653.597595 560.580933,655.709534 561.248901,657.989563 
	C562.556702,662.453796 564.223206,666.815613 565.459106,671.297607 
	C567.100098,677.247986 565.555847,680.994629 560.035278,683.617249 
	C549.488403,688.627625 538.353210,687.927612 527.214111,686.335449 
	C524.652344,685.969299 523.564880,684.120422 523.725708,681.645386 
	C523.886169,679.175781 524.238403,676.718506 524.025574,674.081177 
	C523.455811,676.300903 522.554688,678.496033 522.388062,680.745544 
	C522.080017,684.906189 519.683716,685.605347 516.229309,685.200439 
	C506.692902,684.082703 502.808685,676.684021 507.376007,668.279724 
	C510.426056,662.667297 514.945557,658.149353 518.741211,653.093079 
	C521.319946,649.657898 523.197754,646.141663 522.693970,641.635437 
	C522.244934,637.619446 524.054382,634.108093 525.956482,630.795959 
	C532.588440,619.247437 533.292175,607.565796 527.432434,595.490295 
	C524.982178,590.440918 524.399353,584.982910 525.050171,579.123901 
	C515.239685,579.067322 508.743103,585.195007 502.069641,590.738281 
	C493.524323,597.836487 484.727753,604.218506 473.295471,605.841248 
	C463.948212,607.168030 455.126862,605.339966 446.229797,601.613525 
	C442.297607,609.766785 443.076874,618.049927 443.730408,626.265869 
	C443.928284,628.753174 444.462799,631.222839 444.071533,633.711731 
	C443.650726,636.388306 442.639069,638.526855 439.265259,638.158997 
	C434.539001,637.643555 433.843079,640.683105 434.540619,644.189636 
	C435.264832,647.830139 435.204895,651.471191 435.433929,655.120361 
	C435.700806,659.372437 433.873627,662.309204 429.920349,663.585999 
	C417.741760,667.519226 405.366974,667.799683 393.036652,664.539490 
	C390.543030,663.880127 388.478424,662.366821 385.518372,662.263550 
	C381.259644,662.114868 379.023560,656.933655 380.522705,652.118469 
	C382.373383,646.174072 386.657684,641.918213 390.806335,637.571899 
	C401.838287,626.014282 408.283264,611.885132 411.973846,596.697205 
	C413.706116,589.568420 412.839905,581.804749 413.112549,574.327393 
	C413.170044,572.749756 411.869965,572.085022 410.789825,571.319519 
	C404.481354,566.848572 396.824585,568.052612 392.388184,574.030762 
	C387.795135,580.220032 383.863068,586.230164 381.454803,593.729675 
	C377.222198,606.910583 357.201111,612.839050 344.070465,605.351501 
	C341.408630,603.833557 339.153076,603.408936 336.134552,604.011292 
	C329.166260,605.401794 322.140289,601.539062 318.526001,594.470154 
	C316.700104,590.898926 314.745636,587.479370 312.396667,584.220825 
	C308.395630,578.670410 307.876068,572.833252 312.079041,567.098877 
	C315.866333,561.931641 315.979126,555.781738 316.427124,549.902527 
	C317.063660,541.549011 315.834991,533.292236 312.574219,525.457458 
	C310.948486,521.551331 308.562195,518.326965 305.193970,515.598450 
	C296.320984,508.410706 289.815765,499.828186 290.659119,487.543793 
	C290.810150,485.344025 289.751740,484.230103 287.780396,483.498138 
	C279.886078,480.567047 275.214600,474.274506 271.858307,467.076904 
	C270.491394,464.145569 269.069000,463.844879 266.227173,463.918884 
	C253.638321,464.246674 241.179001,463.562866 230.377304,455.864655 
	C220.047272,448.502686 213.761856,438.305817 210.109512,426.356537 
	C209.542175,424.500366 208.757675,421.996948 210.683701,420.801727 
	C213.089401,419.308777 214.755585,421.673187 215.985550,423.302521 
	C228.172882,439.447357 243.995865,440.668365 261.646973,434.628174 
	C273.932098,430.424225 286.130951,425.943909 298.796326,422.955109 
	C300.500336,422.552979 301.870911,421.768982 302.880035,420.322571 
	C310.604645,409.251068 321.991394,404.002045 334.543060,400.946533 
	C339.260773,399.798096 343.139374,397.658936 346.820282,394.677612 
	C371.756287,374.481079 394.467163,352.032684 415.305084,327.642670 
	C423.108276,318.509277 431.473999,309.920441 441.739746,303.420959 
	C463.310486,289.764008 485.728363,289.990753 508.691742,299.279175 
	C533.551331,309.334625 557.559631,321.372803 582.567200,331.082458 
	C598.396729,337.228546 614.185486,343.570404 631.142517,346.024384 
	C642.311646,347.640717 653.351074,346.698273 664.278687,343.941376 
	C678.777832,340.283386 692.998291,335.460602 708.089600,334.348389 
	C724.499451,333.139008 737.911987,341.522186 743.669067,356.859894 
	C747.007751,365.754700 747.628723,375.036377 748.026306,384.350677 
	C748.165466,387.612518 748.859863,390.467285 750.553162,393.302917 
	C756.684753,403.570984 759.907898,414.971924 762.737122,426.459137 
	C763.508545,429.591309 764.857849,431.723297 767.515625,433.563477 
	C772.163818,436.781738 776.514648,440.431580 780.969666,443.926575 
	C792.262512,452.785797 796.658203,464.379211 793.962891,478.391174 
	C792.864990,484.098572 793.823059,488.904449 797.412109,493.341309 
	C798.563110,494.764221 799.895508,496.323120 798.854248,498.286224 
	C797.750000,500.368164 795.598328,500.320923 793.571960,500.314972 
	C781.009094,500.278107 769.552979,487.384644 770.937927,474.746552 
	C771.281921,471.607819 771.992859,468.511078 772.436462,465.381042 
	C773.192932,460.044037 772.252258,455.167877 767.850098,450.387909 
	C768.242126,458.339386 769.496704,465.423676 768.781555,472.655212 
	C767.646790,484.129486 764.024841,495.119049 762.734680,506.533081 
	C761.820557,514.619995 763.082214,522.213013 768.912048,528.350098 
	C773.118286,532.778015 774.162598,537.845764 772.770020,543.574463 
	C771.453247,548.991394 771.413452,554.266541 772.732056,559.795227 
	C774.205933,565.974915 773.400330,572.418274 773.040649,578.721924 
	C772.206726,593.336853 774.169250,607.298523 781.650208,620.156860 
	C782.149597,621.015259 782.562012,621.948914 782.859192,622.896362 
	C784.572205,628.358337 783.183411,630.145691 777.509644,629.754944 
	C776.080933,631.583679 777.419678,633.196716 778.023926,634.812744 
	C779.598145,639.022217 781.486511,643.127625 782.832214,647.405823 
	C784.618286,653.084473 783.007141,656.261902 777.469543,658.490784 
	C770.680603,661.223389 763.554138,661.690918 756.345337,661.098633 
	C752.514038,660.783875 750.702271,658.542847 751.026733,654.696838 
	C751.263550,651.888672 751.593323,649.088318 752.002319,645.111023 
	C749.488159,649.094727 748.977722,652.357422 749.181641,655.777588 
	C749.316223,658.035461 748.806091,660.054260 746.207397,660.035645 
	C741.470703,660.001709 736.848083,659.170105 733.524597,655.312012 
	C730.537964,651.845093 731.600769,648.045715 733.307617,644.516968 
	C735.697998,639.575256 738.442200,634.805603 740.980347,629.933777 
	C741.980591,628.014038 742.907898,626.087280 741.941528,623.771240 
	C739.976013,619.060669 740.924805,614.306946 741.855591,609.535706 
	C745.302612,591.867310 739.321106,576.404480 730.406189,561.698669 
	C729.592041,560.355591 728.091614,559.249512 726.667786,558.482849 
	C712.517273,550.863098 701.632751,539.859985 693.042053,525.906921 
	C690.599243,527.987671 691.383484,530.148743 692.035583,532.311951 
	C693.964050,538.708679 693.643799,544.796021 689.588684,550.401917 
	C684.424133,557.541321 676.716431,558.243530 670.280273,552.165222 
	C666.397827,548.498596 664.732910,543.628235 663.091248,538.436035 
	C661.613953,540.056641 661.564453,541.699097 661.284058,543.688538 
M784.997498,457.008026 
	C784.997498,457.008026 785.026123,457.042755 784.830017,456.373383 
	C780.450623,448.256195 772.699097,443.825684 765.564575,437.466888 
	C765.373413,440.816620 765.712708,442.934998 767.333557,444.207977 
	C777.384399,452.101746 778.410583,462.263733 775.786377,473.909729 
	C773.547424,483.845795 781.644165,493.875671 792.749878,495.467346 
	C788.639832,489.409149 788.559875,483.047394 789.495728,476.237213 
	C790.429260,469.444458 790.072693,462.543365 784.997498,457.008026 
M388.824005,444.438019 
	C388.635162,441.952698 390.742249,442.026733 392.181854,441.649200 
	C395.996185,440.649017 399.865875,439.860107 404.378357,438.836273 
	C393.780457,434.153381 384.507996,428.245911 375.767639,421.009308 
	C374.199402,431.459625 380.186005,441.920471 389.342926,445.562164 
	C390.512543,448.426758 388.496857,447.800812 387.076050,447.526947 
	C381.838776,446.517578 378.056671,443.430847 375.317291,438.973480 
	C372.238251,433.963470 371.124084,428.434906 371.656982,422.667572 
	C372.439514,414.199036 364.110779,410.629364 361.719299,403.865448 
	C361.525909,403.318359 359.255219,403.368134 357.950836,403.373993 
	C349.909607,403.410126 342.031311,404.755066 334.310608,406.856323 
	C319.245331,410.956482 306.532684,418.132233 300.532776,433.706116 
	C300.293945,434.325989 299.738068,434.749512 298.960815,434.325470 
	C297.703156,432.472168 299.668396,430.035675 297.721436,427.999786 
	C296.052856,428.510406 294.305573,428.991699 292.594086,429.577637 
	C281.884338,433.244232 271.253906,437.162231 260.454193,440.539886 
	C252.641769,442.983276 244.637177,444.310974 236.345444,442.381073 
	C228.259949,440.499207 222.004959,435.854492 216.024017,429.487335 
	C220.687332,443.132782 233.191223,453.879150 246.978439,456.707855 
	C263.598724,460.117798 279.921417,454.442291 296.757477,455.848938 
	C292.745697,446.824829 292.572998,441.214569 296.141418,436.321869 
	C296.836700,440.316010 295.974426,444.200653 297.638123,447.962219 
	C297.638123,447.017944 297.579193,446.235413 297.653320,445.465668 
	C297.742340,444.541595 297.442047,443.394135 298.803955,443.008972 
	C300.360931,443.315521 300.123688,444.641693 300.355804,445.738831 
	C302.695770,456.798523 301.464722,467.694794 298.042389,478.250244 
	C294.169586,490.195068 297.704498,500.001617 306.046631,508.299011 
	C311.363831,513.587585 315.665009,519.096252 317.973694,526.398438 
	C322.659180,541.218445 324.473877,555.682312 315.190826,569.476074 
	C313.045319,572.664062 313.089661,575.562378 315.067474,578.748108 
	C317.169586,582.133972 319.738098,585.234802 321.223724,589.006104 
	C324.535400,597.412842 329.734497,600.460327 338.450836,598.529419 
	C344.027832,597.294006 349.585175,596.717590 355.272888,596.630371 
	C365.515198,596.473450 372.665039,591.808899 376.094269,581.864380 
	C377.177490,578.723145 378.546661,575.666565 379.975769,572.662048 
	C381.857086,568.706787 384.292999,565.456726 389.505707,567.495789 
	C389.884094,564.149475 390.173370,561.291504 389.134583,558.588501 
	C388.308624,556.439453 387.432465,553.922607 384.730743,553.626099 
	C382.173859,553.345398 381.091431,555.658081 379.946259,557.444641 
	C378.962463,558.979431 378.180023,560.656189 377.427460,562.323730 
	C375.490326,566.615967 372.547394,570.455566 371.734924,575.571472 
	C368.417999,567.942261 366.406372,559.786926 357.299469,556.814209 
	C360.835205,555.012817 363.475006,556.482422 366.053040,558.221619 
	C368.789948,560.068054 369.914673,563.412964 372.500336,565.710449 
	C374.732819,561.750793 375.539001,557.517334 378.236328,554.243530 
	C382.595428,548.952820 388.402069,549.653870 391.290710,555.862610 
	C392.176819,557.767151 392.903198,559.745972 394.004456,562.424744 
	C396.050537,558.993896 397.713318,556.205750 399.303925,553.538574 
	C398.393524,552.284729 397.590668,552.959412 396.840393,553.052490 
	C396.007843,553.155762 395.163727,553.316528 394.779327,551.697205 
	C423.230957,531.227478 428.809692,503.408142 418.366119,470.684448 
	C421.390900,471.277954 421.906433,473.037384 422.681946,474.384857 
	C435.509796,496.673645 430.858643,528.159607 411.770752,545.576660 
	C406.086945,550.762939 403.474762,557.695251 398.979919,563.750610 
	C407.119415,561.045959 413.211273,564.486694 419.082825,569.089600 
	C425.278442,573.946655 430.450500,579.853271 436.097961,585.270569 
	C450.029907,598.634888 466.948975,602.178162 482.871887,594.902649 
	C491.225525,591.085571 497.924988,584.742981 506.332794,579.782410 
	C497.994354,576.782715 489.941132,577.271790 481.711212,577.349487 
	C482.605133,574.891174 484.048828,574.921814 485.303680,574.722656 
	C490.921997,573.830933 496.543671,573.629822 502.230316,574.234619 
	C508.686859,574.921326 515.165649,575.364929 521.592651,573.698059 
	C524.860107,572.850586 526.124756,570.993958 526.061401,567.574646 
	C525.880981,557.836853 520.223755,553.007935 510.504517,554.392029 
	C507.587616,554.807434 504.757507,556.586975 501.641754,555.000305 
	C508.868896,551.311462 516.189758,548.488220 524.520691,553.666443 
	C524.065979,546.051025 521.038208,540.129578 519.237000,533.607178 
	C522.377502,533.843567 522.863953,535.842651 523.703552,537.353455 
	C531.327881,551.071899 533.744141,565.813049 531.947876,581.278992 
	C531.510498,585.045044 532.011292,588.556335 533.188965,592.057556 
	C534.932983,597.242615 540.956726,601.709534 546.605103,601.475586 
	C551.745728,601.262756 552.893616,596.674744 554.688721,593.011963 
	C555.262878,591.840515 555.349426,590.440247 555.819519,589.205811 
	C557.201904,585.575928 556.114075,581.632874 557.148926,577.775940 
	C560.532959,582.200134 560.214233,591.721497 556.676025,597.593811 
	C551.951782,605.434570 545.050781,605.383240 536.717224,602.316650 
	C540.302246,616.019409 534.659302,626.982849 528.710144,637.893311 
	C528.012207,639.173279 527.435486,640.685425 527.370483,642.115723 
	C527.086060,648.375610 524.316528,653.643372 521.050537,658.722961 
	C518.437927,662.786377 515.557007,666.682983 513.061340,670.814453 
	C509.883301,676.075562 511.768707,679.090820 518.240417,679.164917 
	C520.677246,671.811035 523.757385,664.758240 530.410828,659.906311 
	C529.941345,665.849976 528.824951,671.487305 527.641357,677.110413 
	C527.038025,679.976929 527.797791,681.636536 531.035522,681.674622 
	C538.535828,681.762939 546.033142,681.952332 553.329956,679.714661 
	C559.748962,677.746277 560.758362,676.027344 559.264893,669.507751 
	C558.227051,664.976929 556.666870,660.549561 556.680054,655.812134 
	C556.688416,652.793579 557.836792,650.244080 560.899658,649.912903 
	C565.345154,649.432373 565.012024,647.126099 563.989868,644.037781 
	C563.205933,641.669434 562.568115,639.250244 561.928833,636.836792 
	C558.358643,623.358826 558.249878,610.228210 565.327515,597.611633 
	C568.519836,591.921082 571.073730,585.752380 571.160583,579.188782 
	C571.272034,570.774109 575.025330,563.845337 578.564209,556.672852 
	C583.445007,546.780518 587.355164,536.617920 588.057495,525.359985 
	C588.562134,517.270508 588.767761,509.025024 592.309082,501.423431 
	C600.293701,484.283997 599.237366,467.231171 591.966003,450.157501 
	C586.233398,436.697052 584.742920,422.548309 585.713379,408.068207 
	C585.805603,406.692108 585.352295,404.925751 587.925354,404.406769 
	C588.548584,410.543671 589.054138,416.628510 589.804932,422.682892 
	C591.323608,434.929352 597.198120,445.770966 601.140015,457.236786 
	C605.355469,469.498322 606.970154,482.018707 602.434998,494.406647 
	C598.467224,505.244568 594.919861,516.049438 594.501099,527.687195 
	C594.429993,529.662781 593.892151,531.621277 593.575256,533.588440 
	C592.402405,540.869446 589.010132,547.374573 585.761536,554.384583 
	C600.436462,555.546387 600.110962,566.480225 600.614502,577.602844 
	C602.927734,574.903442 604.470154,573.177063 605.932434,571.385376 
	C616.797424,558.072998 627.665833,544.819397 642.688782,535.734131 
	C652.662964,529.702209 662.922729,524.109985 672.381165,517.249939 
	C674.734802,515.542847 677.365601,514.018494 678.647217,510.579132 
	C670.827454,506.854034 664.048706,512.788086 655.807190,512.997070 
	C669.147644,502.419281 683.077637,503.390503 692.259277,515.287354 
	C703.586975,529.965027 714.771606,544.667969 730.557068,555.021973 
	C735.106995,558.006409 739.539429,560.855957 745.270386,557.994385 
	C746.073975,557.593140 747.408142,556.751221 748.361267,558.576111 
	C744.686829,561.796814 740.548401,562.363708 735.922302,560.690857 
	C736.049194,562.932983 737.396606,564.073120 738.168701,565.501282 
	C745.691223,579.414490 750.684998,593.889832 747.222900,609.986084 
	C746.170471,614.878784 744.855225,619.576904 746.178894,624.676758 
	C746.901062,627.459351 745.745850,630.292542 744.622253,632.906311 
	C742.912354,636.883850 741.082092,640.810181 739.274597,644.745300 
	C736.077393,651.706116 737.087219,653.506470 745.239685,654.851318 
	C746.011292,647.333679 748.353088,640.519226 754.504333,634.363281 
	C754.960388,636.343689 755.212280,636.975037 755.235962,637.614807 
	C755.402588,642.119568 755.261719,646.608459 754.479919,651.064575 
	C753.893982,654.404175 755.084961,656.034790 758.731079,655.946350 
	C763.576538,655.828918 768.385193,655.669556 773.060913,654.247253 
	C776.856995,653.092529 778.704895,651.014343 777.029968,646.805542 
	C775.863586,643.874634 775.089966,640.786316 774.160645,637.762207 
	C771.900269,630.406982 768.563782,627.757263 760.745605,627.339233 
	C758.087524,627.197083 755.412537,627.399292 752.749023,627.318359 
	C751.529236,627.281311 750.094727,627.889221 748.807129,626.088318 
	C755.049988,622.871460 761.345520,622.923950 767.516052,625.197632 
	C771.299805,626.591797 774.473206,626.655823 777.644165,624.097473 
	C777.384888,622.732788 776.969360,621.542297 775.458679,621.212769 
	C773.877747,621.944824 774.614868,624.696228 771.890015,624.665588 
	C772.325745,620.393738 772.595276,616.077271 771.322632,611.966736 
	C767.275940,598.896362 766.400024,585.526611 766.998230,571.953735 
	C767.195801,567.471924 767.112732,562.936401 766.652344,558.477722 
	C766.112000,553.245239 764.265381,548.148376 760.143066,544.869263 
	C758.366394,543.456055 757.532349,542.148499 757.051697,540.319214 
	C754.282593,529.781128 755.402649,518.097717 747.459351,508.995697 
	C753.182007,510.167664 754.811646,514.838257 757.156555,519.776855 
	C757.867432,523.509399 758.883484,527.214600 759.220459,530.980591 
	C759.781555,537.250793 762.718628,542.134766 767.505798,547.092346 
	C767.315430,542.268188 770.514771,537.730164 766.974060,534.182800 
	C762.529907,529.730347 759.494080,524.599487 756.933838,518.065430 
	C756.068726,507.866486 756.868835,497.812164 759.136963,487.818359 
	C762.270447,474.011597 762.746765,460.199066 759.286743,446.284912 
	C758.190369,441.876068 754.386658,438.764343 754.051514,434.495575 
	C754.869446,432.931274 756.067261,435.010040 756.460266,434.198029 
	C751.819702,401.456055 736.281860,376.737732 706.886902,361.311554 
	C690.287903,352.600647 673.312195,347.049927 654.198975,350.060455 
	C646.686157,351.243835 639.030334,351.694550 631.303833,350.764740 
	C614.308533,348.719421 598.166565,343.587341 582.130920,337.980286 
	C555.841919,328.788025 530.838257,316.494385 505.090698,305.999512 
	C491.069763,300.284485 476.577545,298.079041 461.649231,302.464996 
	C444.563843,307.484619 432.308655,319.242004 421.115692,332.180634 
	C402.417999,353.794586 382.465088,374.016205 359.192078,390.769043 
	C356.498688,392.707825 353.949707,394.847229 350.466370,397.572174 
	C361.424469,397.473145 371.163818,397.151215 380.271667,401.065948 
	C383.962555,402.652374 387.675415,403.097931 391.486633,402.536041 
	C396.660980,401.773193 401.752960,402.079285 406.910339,402.656464 
	C422.141083,404.361053 428.863403,410.181946 432.332428,425.108215 
	C432.691956,426.655121 433.382080,427.510223 434.941437,427.556000 
	C440.043030,427.705688 445.174438,427.324066 450.788330,429.302643 
	C450.174011,413.503143 445.409241,400.048492 437.212250,387.550049 
	C442.233368,389.988617 444.382324,394.626923 446.549469,399.071533 
	C455.737366,417.915192 456.038910,438.120850 453.962616,458.226959 
	C450.451782,492.224030 437.783112,523.301514 421.293823,552.944702 
	C420.633789,554.131287 420.095245,555.633240 417.432709,555.344849 
	C434.721161,523.149353 446.283051,489.629669 450.594513,453.770447 
	C449.223877,455.079712 448.241608,456.550751 447.241425,458.009552 
	C442.743805,464.569641 436.825470,468.771027 428.603943,468.840515 
	C420.399567,468.909821 412.925781,464.061279 404.430054,465.316101 
	C408.749329,460.923157 413.754669,461.291321 419.109406,462.188232 
	C432.396790,464.413849 437.967590,462.870941 444.826752,451.533752 
	C446.649292,448.521393 447.918823,445.266083 448.885834,441.890259 
	C450.869904,434.963654 449.970093,433.486084 442.733429,432.133362 
	C440.454224,431.707336 438.129730,431.415833 435.814758,431.311707 
	C431.161896,431.102448 431.090393,431.228516 429.714874,436.295990 
	C435.278992,435.352966 440.896149,432.945648 446.590302,436.389526 
	C445.452606,438.266479 444.177734,438.069763 443.071838,438.047424 
	C435.870667,437.901886 429.763947,440.572266 424.333160,445.113281 
	C421.399231,447.566528 418.518982,450.109070 415.401520,452.309540 
	C413.022430,453.988892 410.290771,454.994629 405.787628,452.935547 
	C412.332428,450.730530 415.915070,446.872559 420.450195,442.152832 
	C415.429230,443.804474 411.512360,444.395691 407.518494,444.535858 
	C404.320923,444.648071 402.591125,446.294830 401.418427,449.383148 
	C400.406708,452.047424 401.098816,455.262390 398.844818,457.872040 
	C395.136688,453.852509 398.982056,449.647797 397.903595,445.522614 
	C394.904266,445.356842 391.942963,445.193146 388.824005,444.438019 
M658.197815,536.245972 
	C658.620422,535.046509 659.043091,533.847107 659.726257,531.908325 
	C644.350281,540.385315 631.017029,550.071594 620.106445,562.884644 
	C618.579468,564.677795 618.393982,566.728577 618.311401,568.938965 
	C617.895447,580.073730 614.557434,590.121582 607.268982,598.755005 
	C604.299805,602.272095 601.586182,606.020447 600.341125,611.249451 
	C606.116577,612.282288 610.454041,615.720276 615.197388,618.401978 
	C617.092163,619.473267 619.727173,620.862305 621.203552,619.079163 
	C623.885071,615.840576 627.776489,615.556580 631.112976,614.041077 
	C630.783569,607.248047 631.619263,600.854492 633.865295,594.696716 
	C636.857727,586.492798 641.291321,579.048401 646.557312,572.147400 
	C652.346497,564.560547 656.952637,556.741882 655.760376,546.610840 
	C655.370178,543.295471 656.994629,540.115051 658.197815,536.245972 
M405.099854,628.999817 
	C410.427734,631.677979 415.674744,634.536499 421.110413,636.974365 
	C425.084473,638.756775 429.328400,640.408630 432.427338,635.187866 
	C432.852539,634.471497 434.104401,633.950928 435.019653,633.871582 
	C438.946564,633.531067 438.918549,630.973206 438.444031,628.123474 
	C436.960693,619.215881 437.814087,610.563721 441.345276,602.233643 
	C442.099182,600.455200 442.124939,599.218445 440.307373,598.023254 
	C432.723694,593.036499 426.775787,586.269470 420.610229,579.734863 
	C419.603516,578.667908 418.880707,576.754639 416.533447,577.429016 
	C416.475922,578.253479 416.340057,579.069519 416.381531,579.876343 
	C416.441040,581.034607 416.604767,582.189880 416.767242,583.340271 
	C418.622559,596.475708 417.081238,608.871216 408.948273,619.880066 
	C407.062012,622.433350 405.496857,625.181213 405.099854,628.999817 
M424.195496,431.666260 
	C428.859375,424.305481 427.296021,416.737793 419.772858,412.463898 
	C407.478912,405.479675 393.985291,406.428894 380.572449,407.002289 
	C392.050629,413.304718 404.831482,413.989594 417.372345,415.885651 
	C401.399384,421.343933 386.842926,415.751160 372.147949,410.281982 
	C384.307648,421.573944 397.464569,430.946503 413.907745,434.586151 
	C417.402130,435.359619 420.919312,435.066101 424.195496,431.666260 
M420.213806,659.719543 
	C429.605652,658.446411 429.758911,658.271851 429.674744,648.977173 
	C429.664215,647.812134 429.575439,646.639709 429.672302,645.483215 
	C429.917145,642.559387 428.791290,641.267334 425.702637,641.259216 
	C420.183929,641.244812 415.424408,638.857239 410.893890,635.913574 
	C408.558990,634.396423 406.469299,632.372803 403.053589,631.888489 
	C398.071167,640.198547 389.030396,645.840515 386.335114,655.924011 
	C390.335510,650.169189 393.634399,643.842468 400.362915,640.612366 
	C398.924469,645.583984 396.905670,650.095703 394.938385,654.629822 
	C393.405182,658.163391 394.713074,659.961487 398.450531,660.323059 
	C405.439331,660.999268 412.401154,660.904602 420.213806,659.719543 
M726.912964,353.307556 
	C732.804565,357.417816 735.483643,363.435364 736.291931,370.240204 
	C736.887024,375.249969 739.471558,378.555328 743.959900,381.989166 
	C742.577820,371.660217 740.997559,362.421448 736.225220,353.948914 
	C730.874451,344.449463 722.812805,340.170502 712.046997,340.021240 
	C700.974304,339.867706 690.393982,342.372162 679.727112,345.236267 
	C687.900513,347.444855 696.015076,349.627655 703.686035,353.125397 
	C705.494446,353.949982 706.891907,352.863800 708.413391,352.299103 
	C714.443481,350.061218 720.407410,349.723541 726.912964,353.307556 
M680.266052,515.932739 
	C676.834045,520.089417 672.310425,522.976196 668.179382,526.319397 
	C667.042847,527.239136 665.199951,527.938354 665.648376,529.686096 
	C667.413940,536.567505 668.430054,543.841553 674.481934,548.755493 
	C677.963806,551.582581 681.132935,551.114746 684.183228,547.998657 
	C688.433350,543.656921 689.843811,534.142151 684.530457,529.440308 
	C682.658386,527.783630 680.512512,526.076477 679.969299,522.796387 
	C683.614319,523.464905 684.637024,527.483337 687.829163,527.923950 
	C690.288269,522.255554 688.775330,517.480713 683.937134,514.363037 
	C682.181641,513.231812 681.588684,514.547058 680.266052,515.932739 
M603.491638,636.782532 
	C606.312683,636.752747 609.148132,636.890564 611.950989,636.649536 
	C615.246521,636.366150 619.285461,637.177063 619.922546,632.054932 
	C620.898621,624.208008 620.663940,623.943359 614.706482,621.862183 
	C612.086914,620.947021 609.738708,619.250977 607.275146,617.895081 
	C604.955750,616.618652 602.653625,615.310669 600.330811,614.040527 
	C598.837646,613.223938 597.717468,613.943115 596.955811,615.146362 
	C596.315369,616.158020 594.408203,617.390686 595.725464,618.418274 
	C598.368469,620.480103 596.239319,621.883057 595.533813,623.493347 
	C593.669983,627.747803 590.353821,631.453430 590.067871,636.797424 
	C594.607483,636.797424 598.557373,636.797424 603.491638,636.782532 
M291.560608,478.796783 
	C293.683746,473.630096 295.167511,468.298431 296.431458,462.216370 
	C288.976898,462.633789 282.317657,462.902252 275.626129,466.530426 
	C280.409149,471.791504 283.479218,478.149658 291.560608,478.796783 
M728.357178,361.176880 
	C724.019470,355.071899 718.087341,354.233124 710.664978,355.864685 
	C718.016541,360.930054 724.816223,365.615112 732.006653,370.569397 
	C732.224426,366.604828 730.207031,364.301849 728.357178,361.176880 
M366.856476,600.831848 
	C367.743805,600.310608 368.990234,600.268494 369.521912,598.660828 
	C362.687164,602.253235 355.533234,602.498291 347.263733,602.343018 
	C353.311493,604.139160 359.574280,603.594604 366.856476,600.831848 
z"/>
<path fill="#000000" opacity="1.000000" stroke="none" 
	d="
M739.680908,746.059570 
	C739.685425,744.403198 739.650269,743.235779 739.703613,742.072388 
	C739.799438,739.983337 739.216248,737.401062 742.397766,737.089661 
	C745.355469,736.800049 748.375916,736.283142 749.848145,740.174072 
	C752.968201,748.420593 756.306396,756.584961 759.589233,764.769287 
	C760.254883,766.428589 761.071106,768.027466 762.376526,770.870911 
	C766.378418,760.632324 769.973328,751.429199 773.573853,742.228333 
	C774.229370,740.553284 774.457458,738.618286 776.221436,737.587463 
	C780.068726,735.338928 784.115356,737.459717 784.156250,741.920959 
	C784.260071,753.243469 784.210693,764.567322 784.217163,775.890686 
	C784.218384,778.087952 784.426453,780.387268 781.172058,780.500000 
	C777.655640,780.621826 777.681030,778.239746 777.683350,775.796326 
	C777.691406,767.220215 777.686462,758.644043 777.023682,749.956482 
	C773.681763,758.411072 770.388306,766.885315 766.966858,775.307556 
	C766.014832,777.651001 765.680115,780.727600 762.053284,780.766846 
	C758.410706,780.806335 758.079346,777.839478 757.130737,775.419067 
	C753.690002,766.639954 750.246948,757.861633 746.265869,747.708679 
	C746.265869,758.075500 746.248230,766.988770 746.277161,775.901794 
	C746.285217,778.393250 746.222168,780.731323 742.784424,780.630310 
	C739.608398,780.537048 739.687256,778.255615 739.687012,776.024475 
	C739.685791,766.199768 739.683105,756.375061 739.680908,746.059570 
z"/>
<path fill="#000000" opacity="1.000000" stroke="none" 
	d="
M428.513550,753.588074 
	C430.269897,749.034912 432.107452,744.913696 433.450134,740.637024 
	C434.612305,736.935364 437.317200,737.023376 440.207245,737.143494 
	C443.717255,737.289246 443.333435,739.909668 443.341125,742.226318 
	C443.378754,753.545898 443.376801,764.865662 443.445923,776.184998 
	C443.460052,778.503662 443.558929,780.519043 440.243195,780.464661 
	C437.006866,780.411682 436.936066,778.334961 436.932953,776.070007 
	C436.921051,767.419861 436.928162,758.769714 436.249481,749.930603 
	C432.808441,758.656616 429.385956,767.389954 425.913055,776.103271 
	C425.067719,778.224243 424.517090,780.697388 421.421204,780.702576 
	C418.360565,780.707703 417.727570,778.340210 416.878937,776.174683 
	C413.307953,767.061951 409.746521,757.945557 405.330292,748.911316 
	C405.330292,757.747131 405.384033,766.583435 405.290619,775.418213 
	C405.268616,777.497375 406.353302,780.488403 402.453033,780.510437 
	C399.035339,780.529724 398.977112,778.084167 398.974396,775.660522 
	C398.962189,764.673889 398.938629,753.687134 398.992035,742.700745 
	C399.003937,740.249023 398.719147,737.440125 402.412415,737.172058 
	C405.549622,736.944397 408.163849,737.101440 409.563904,740.861389 
	C413.151978,750.497253 417.109772,759.995422 421.472321,770.934143 
	C424.104126,764.464111 426.242004,759.208313 428.513550,753.588074 
z"/>
<path fill="#000000" opacity="1.000000" stroke="none" 
	d="
M287.017212,746.468140 
	C287.706818,751.183350 285.993866,754.641846 282.506470,757.597412 
	C286.057709,760.217102 288.443024,762.918152 288.448120,767.258423 
	C288.457520,775.228699 284.561615,779.841125 276.533112,780.266052 
	C271.050690,780.556213 265.541077,780.291931 260.046387,780.407471 
	C257.088593,780.469604 255.806320,779.209778 255.818314,776.264160 
	C255.865829,764.603882 255.878616,752.943054 255.819412,741.282898 
	C255.803970,738.238892 257.338867,737.185303 260.126862,737.107056 
	C266.130127,736.938477 272.128448,737.000122 278.082184,737.793091 
	C282.909851,738.436035 285.820801,741.341980 287.017212,746.468140 
M265.038055,761.233337 
	C264.320709,761.586975 263.100372,761.807922 262.966370,762.315552 
	C261.984406,766.036255 261.515533,770.084412 263.036438,773.495789 
	C264.128632,775.945435 267.575623,774.451172 269.967316,774.661499 
	C271.777771,774.820740 273.622345,774.766113 275.439728,774.637268 
	C279.595978,774.342346 281.721710,772.091370 281.768799,767.872009 
	C281.817261,763.526855 279.469727,761.464539 275.377716,761.247681 
	C272.233002,761.081055 269.073853,761.186584 265.038055,761.233337 
M278.617828,744.605591 
	C274.111633,741.945190 269.238586,743.553894 264.521332,743.443298 
	C263.168610,743.411560 262.689056,744.502686 262.401825,745.775574 
	C260.837708,752.708008 262.487488,754.896118 269.420837,754.917114 
	C270.748810,754.921143 272.079712,754.960266 273.404358,754.890381 
	C279.715210,754.557556 281.632233,751.286499 278.617828,744.605591 
z"/>
<path fill="#000000" opacity="1.000000" stroke="none" 
	d="
M533.705200,737.328857 
	C536.567627,738.448486 536.104980,740.670654 536.114746,742.586853 
	C536.170044,753.418640 536.184875,764.250977 536.124023,775.082642 
	C536.113586,776.945251 536.861450,779.442261 534.173828,780.132263 
	C531.461975,780.828369 529.037964,780.431946 527.243164,777.674500 
	C521.608826,769.018005 515.796082,760.477600 510.050751,751.893433 
	C509.502808,751.074768 508.942780,750.264160 507.322784,749.534485 
	C507.322784,754.001404 507.328552,758.468384 507.321198,762.935303 
	C507.313538,767.601257 507.285126,772.267212 507.281921,776.933167 
	C507.280396,779.124756 506.409973,780.340576 504.020416,780.327515 
	C501.636688,780.314392 500.770294,779.083862 500.768890,776.903015 
	C500.761169,764.904663 500.749054,752.906250 500.732819,740.907898 
	C500.730377,739.117981 501.035522,737.559448 503.184814,737.187012 
	C505.677002,736.755188 507.760040,737.223755 509.286774,739.492676 
	C514.123413,746.680725 519.028625,753.822693 523.892517,760.992493 
	C525.567444,763.461487 527.198608,765.960144 529.692200,769.713074 
	C529.692200,759.518860 529.710876,750.652405 529.680481,741.786194 
	C529.671814,739.249512 529.836060,736.962524 533.705200,737.328857 
z"/>
<path fill="#000000" opacity="1.000000" stroke="none" 
	d="
M584.776855,736.825134 
	C590.182434,738.360474 594.292847,740.958191 596.335205,746.016479 
	C596.988281,747.633850 598.306519,749.699280 596.021667,750.824280 
	C593.944885,751.846863 591.750732,751.481201 590.694336,748.850830 
	C589.354614,745.515198 586.834106,743.450195 583.433655,742.557068 
	C576.371704,740.702332 569.846985,744.041016 567.412781,750.939575 
	C565.471008,756.442627 565.578674,762.107910 567.638123,767.553467 
	C569.747131,773.129883 575.883545,776.448120 581.731445,775.565186 
	C587.339905,774.718384 590.389587,771.134644 591.118103,764.425842 
	C588.980713,762.649170 586.380127,763.628052 583.988831,763.415649 
	C581.958801,763.235352 579.783081,763.426392 579.840637,760.450134 
	C579.899597,757.399597 582.229858,757.804626 584.163696,757.712769 
	C598.300171,757.041382 598.300537,757.047668 598.286987,771.232849 
	C598.285583,772.729980 598.356262,774.231812 598.261658,775.723083 
	C598.133301,777.747070 598.971130,780.343323 595.734253,780.798035 
	C593.904053,781.055176 593.205444,780.190796 592.056519,776.461609 
	C585.252686,782.513306 577.556824,782.898315 569.841980,779.097961 
	C562.334900,775.400085 559.801636,768.406189 559.685547,760.434326 
	C559.499451,747.661072 564.202454,739.814697 573.501953,737.185120 
	C577.091797,736.170044 580.728088,736.249756 584.776855,736.825134 
z"/>
<path fill="#000000" opacity="1.000000" stroke="none" 
	d="
M367.314087,738.153076 
	C377.863434,743.100891 378.395844,754.188354 368.469116,762.175903 
	C369.719696,765.067566 371.001617,768.090454 372.332275,771.091614 
	C373.587067,773.921509 374.893188,776.728638 376.267120,779.744263 
	C372.009644,781.676514 369.426483,780.852661 367.906219,776.890808 
	C367.132996,774.875732 366.193695,772.918213 365.234070,770.981934 
	C360.427490,761.283630 363.134613,762.659973 350.741394,763.146179 
	C349.561127,767.470398 350.322571,771.957825 350.184601,776.376709 
	C350.105865,778.898438 349.472748,780.617981 346.580963,780.606934 
	C343.634521,780.595642 343.655151,778.539612 343.656677,776.452087 
	C343.665070,764.801758 343.740997,753.150635 343.612427,741.501709 
	C343.576294,738.229858 344.916626,737.056885 348.022522,737.036072 
	C354.348969,736.993591 360.669037,736.892334 367.314087,738.153076 
M361.092194,756.735962 
	C366.707428,756.243713 368.824951,754.320251 368.731018,749.797363 
	C368.636749,745.255432 366.315826,743.341553 360.738831,743.230896 
	C359.415283,743.204590 358.090729,743.223877 356.766663,743.232727 
	C350.087280,743.277405 350.087280,743.278625 350.083801,749.727905 
	C350.079987,756.811707 350.079987,756.812256 357.214081,756.778442 
	C358.207153,756.773682 359.200134,756.760620 361.092194,756.735962 
z"/>
<path fill="#000000" opacity="1.000000" stroke="none" 
	d="
M627.979370,738.731445 
	C628.220215,742.961609 628.415222,746.791992 628.327515,750.615906 
	C628.261536,753.488708 629.198120,755.009705 632.287537,754.959167 
	C637.116699,754.880066 641.949524,754.894409 646.778564,754.988098 
	C649.814270,755.047058 650.917114,753.591370 650.854065,750.703064 
	C650.781311,747.374878 650.914551,744.042175 650.957458,740.711426 
	C650.987488,738.383606 652.268066,737.508362 654.478210,737.531067 
	C656.696594,737.553894 657.301025,738.824585 657.299011,740.758911 
	C657.286499,752.918884 657.284790,765.078796 657.301025,777.238770 
	C657.303589,779.174988 656.720032,780.454590 654.494995,780.464844 
	C652.345703,780.474731 650.913757,779.739624 650.890503,777.364319 
	C650.851379,773.367188 650.749023,769.367126 650.858337,765.373291 
	C650.939331,762.415955 649.781921,761.115662 646.755981,761.197266 
	C641.928589,761.327454 637.094604,761.312500 632.265381,761.235046 
	C629.530029,761.191162 628.312561,762.305603 628.385132,765.092041 
	C628.484741,768.920349 628.371094,772.753845 628.389832,776.584839 
	C628.400574,778.788391 628.065369,780.626160 625.226868,780.566162 
	C622.495300,780.508545 621.967896,778.706482 621.966675,776.510864 
	C621.960205,764.850891 621.932861,753.190735 621.996948,741.531067 
	C622.020752,737.188232 624.163025,736.291199 627.979370,738.731445 
z"/>
<path fill="#000000" opacity="1.000000" stroke="none" 
	d="
M714.077271,767.096802 
	C715.581177,771.350037 716.946655,775.240234 718.379639,779.322815 
	C714.413086,781.404114 711.461548,781.024658 710.639221,776.636475 
	C709.441711,770.246765 705.788330,768.128418 699.718384,769.152100 
	C698.910767,769.288391 698.036499,769.296570 697.232971,769.148254 
	C691.100220,768.015808 687.991028,770.893188 686.753662,776.677734 
	C685.889526,780.717468 683.271912,781.517761 678.969116,779.724121 
	C681.437866,773.183777 683.842590,766.726990 686.312073,760.295044 
	C688.752197,753.939270 691.283997,747.618713 693.720215,741.261475 
	C694.584534,739.006165 695.418579,737.015991 698.437195,736.997314 
	C701.552124,736.978027 702.708740,738.790955 703.700073,741.318359 
	C707.035095,749.820679 710.514648,758.266357 714.077271,767.096802 
M695.249146,762.939453 
	C697.578186,762.918640 699.911194,762.974731 702.234985,762.853149 
	C704.139526,762.753357 704.969604,761.629395 704.297974,759.795898 
	C702.636292,755.259644 700.881531,750.757507 698.759094,745.176392 
	C696.612000,750.724487 694.917480,755.046021 693.272339,759.386292 
	C692.726379,760.826416 692.162903,762.365112 695.249146,762.939453 
z"/>
<path fill="#000000" opacity="1.000000" stroke="none" 
	d="
M468.870972,747.077759 
	C468.914124,744.434753 468.905762,742.276733 469.014435,740.124573 
	C469.117767,738.077454 470.407410,737.239990 472.329376,737.229370 
	C474.373047,737.218018 475.337616,738.264648 475.337219,740.305969 
	C475.334778,752.747559 475.334534,765.189209 475.372314,777.630676 
	C475.378693,779.727783 474.466858,780.623962 472.375824,780.606018 
	C469.865479,780.584412 468.829742,779.416992 468.843109,776.927917 
	C468.895721,767.140625 468.868286,757.352905 468.870972,747.077759 
z"/>
<path fill="#000000" opacity="1.000000" stroke="none" 
	d="
M311.657990,772.848022 
	C311.660645,762.230896 311.653290,752.095093 311.674316,741.959229 
	C311.678741,739.835693 311.260651,737.351746 314.550476,737.250977 
	C317.840149,737.150208 318.196106,739.356689 318.190247,741.924927 
	C318.164795,753.057678 318.184174,764.190491 318.189514,775.323303 
	C318.190765,777.864685 318.471466,780.546082 314.602264,780.416748 
	C310.809540,780.289856 311.865479,777.457275 311.667267,775.322388 
	C311.606110,774.663391 311.657959,773.993958 311.657990,772.848022 
z"/>
<path fill="#000000" opacity="1.000000" stroke="none" 
	d="
M458.485931,523.574341 
	C468.907837,495.222260 474.756073,466.403839 475.960022,436.552673 
	C476.517120,422.740112 477.161224,408.949524 476.721039,395.134613 
	C476.384674,384.578033 475.294159,374.173248 468.408630,365.409485 
	C468.191193,365.132751 468.381073,364.536072 468.381073,363.750031 
	C471.947815,364.498901 473.110535,367.342255 474.416382,369.868439 
	C478.074524,376.945282 479.354156,384.716858 480.134674,392.483734 
	C482.191132,412.948151 480.211487,433.356293 478.820923,453.772186 
	C476.001678,495.162903 459.602020,532.324097 442.992645,569.426331 
	C442.354614,570.851501 442.021912,572.665955 438.635590,573.695251 
	C442.368896,564.762329 445.841400,556.787231 449.041046,548.704163 
	C452.285919,540.506775 455.261261,532.202759 458.485931,523.574341 
z"/>
<path fill="#000000" opacity="1.000000" stroke="none" 
	d="
M433.033447,550.110107 
	C446.817596,520.919800 458.262878,491.281097 463.247650,459.616577 
	C466.708679,437.631317 466.999237,415.536011 461.543915,393.689484 
	C459.840179,386.866638 457.390747,380.345551 453.735931,374.296997 
	C453.120697,373.278809 451.711914,372.364471 452.798950,370.574707 
	C455.298889,370.885895 456.075531,373.099243 457.100006,374.801483 
	C463.663300,385.706665 466.689758,397.744904 468.319336,410.236267 
	C473.935242,453.284302 462.561523,493.058258 444.893524,531.590454 
	C440.521576,541.125305 435.759216,550.482178 431.100555,559.883301 
	C430.416199,561.264282 430.124695,563.132690 427.308197,563.695557 
	C428.303314,558.605652 431.169189,554.740906 433.033447,550.110107 
z"/>
<path fill="#000000" opacity="1.000000" stroke="none" 
	d="
M501.513428,457.404541 
	C497.810059,454.103851 493.340515,454.021881 488.692444,452.449554 
	C488.417694,459.665100 491.524261,465.951050 491.770264,473.437775 
	C488.652618,471.419312 488.544250,468.776978 487.917725,466.583557 
	C481.406525,443.788055 480.180725,420.875000 486.069244,397.690460 
	C488.685333,387.390350 489.988251,376.875153 487.432892,365.896454 
	C489.932129,366.177124 490.059662,367.680542 490.371490,369.064392 
	C493.111176,381.223694 490.888580,393.181335 488.947876,405.157318 
	C487.059631,416.809265 485.116943,428.427582 487.242615,440.322693 
	C488.163361,445.475067 490.187592,448.907654 495.697174,449.920105 
	C501.735260,451.029724 506.271790,454.497620 509.525970,459.728394 
	C515.458557,469.264404 520.421814,479.180939 521.886414,490.496002 
	C522.880310,498.174591 519.921143,504.848114 516.374207,511.338348 
	C515.986755,512.047363 515.348511,512.639282 513.486084,512.028992 
	C524.835205,490.715790 514.080811,473.999969 501.513428,457.404541 
z"/>
<path fill="#000000" opacity="1.000000" stroke="none" 
	d="
M364.969421,485.018433 
	C367.475677,479.237946 371.777130,475.711639 378.044647,474.759064 
	C381.342834,474.257843 383.276886,472.240723 384.776276,469.444397 
	C385.495270,468.103516 385.263947,466.030823 388.035645,465.385071 
	C388.111969,471.432709 386.182434,476.018158 380.770447,479.097443 
	C381.502472,480.927582 381.899139,482.773956 382.880829,484.224335 
	C386.940186,490.221497 385.794891,496.091064 379.575287,499.840973 
	C378.450745,500.518982 377.175873,501.299347 375.932709,501.370117 
	C369.398834,501.741974 365.475006,505.242828 363.377045,511.209991 
	C363.105560,511.982208 362.502136,512.628479 360.409790,512.250549 
	C363.729156,503.710022 364.241882,494.756531 364.958862,485.402893 
	C364.997101,484.981354 364.969421,485.018433 364.969421,485.018433 
M378.012482,485.159424 
	C376.622284,481.047882 374.378906,482.027069 372.283691,484.395142 
	C370.236847,486.708527 369.578491,489.626038 370.019836,492.670776 
	C370.177399,493.757751 371.240051,494.281433 372.309998,493.955627 
	C375.388397,493.018280 377.284119,490.889160 378.041290,487.776978 
	C378.192719,487.154419 378.128448,486.479370 378.012482,485.159424 
z"/>
<path fill="#000000" opacity="1.000000" stroke="none" 
	d="
M571.830566,377.259033 
	C574.534973,384.631470 577.623596,391.468597 577.512024,399.217224 
	C577.433960,404.632263 575.582214,408.953186 571.141907,412.054962 
	C554.768616,423.492432 547.737671,439.079254 549.850769,458.968353 
	C550.354370,463.708099 551.146179,468.647949 548.725342,473.287537 
	C547.336548,461.101776 543.675537,449.081207 547.417175,436.696350 
	C550.711487,425.791931 556.661438,416.875519 565.942078,410.220642 
	C573.824646,404.568329 575.040833,401.518768 572.754089,392.008789 
	C571.471802,386.676056 569.870300,381.419617 568.387756,376.135773 
	C567.780029,373.970062 567.077881,371.823761 568.040833,368.836700 
	C570.374329,371.543091 570.633484,374.409973 571.830566,377.259033 
z"/>
<path fill="#000000" opacity="1.000000" stroke="none" 
	d="
M546.511047,334.479736 
	C551.427307,337.870331 556.047241,341.055939 562.085449,343.264343 
	C559.196960,345.445038 557.274536,344.191528 555.424316,343.540771 
	C547.784363,340.853546 541.258240,336.109375 534.743774,331.559967 
	C516.829956,319.049835 497.919708,315.165894 477.180023,323.482788 
	C476.429657,323.783691 475.593384,323.906158 474.784149,324.002808 
	C474.537933,324.032196 474.247986,323.695404 473.916138,323.487518 
	C474.176788,321.098083 476.338806,321.055603 477.887054,320.381165 
	C496.555542,312.248444 514.513000,313.788635 531.694397,324.568329 
	C536.623962,327.661163 541.380005,331.030701 546.511047,334.479736 
z"/>
<path fill="#000000" opacity="1.000000" stroke="none" 
	d="
M351.996460,564.007019 
	C344.474060,568.109131 344.474060,568.109131 338.937408,567.989624 
	C344.880432,564.440979 349.060486,560.447083 354.904419,559.855225 
	C358.517029,559.489319 361.240753,561.806519 362.944092,564.886963 
	C366.297638,570.951721 365.989838,577.044983 362.395203,582.913208 
	C360.395569,586.177612 357.322235,587.535461 353.496307,587.394043 
	C350.642548,587.288513 348.095764,586.499817 346.873810,583.785461 
	C345.739655,581.266113 346.583435,578.776001 348.427307,576.872925 
	C351.784332,573.408081 353.758240,569.661011 352.328583,564.361389 
	C357.233093,565.762756 358.583893,569.353699 356.312622,574.346313 
	C355.110168,576.989563 353.388458,579.396606 351.912201,581.891541 
	C354.212280,584.137878 356.141998,583.133301 357.880829,581.747681 
	C361.923218,578.526245 362.776978,571.535828 359.824432,566.715210 
	C357.957733,563.667419 355.600616,562.034180 351.996460,564.007019 
z"/>
<path fill="#000000" opacity="1.000000" stroke="none" 
	d="
M474.096008,535.885315 
	C469.306824,549.854126 463.672760,562.966736 455.081543,574.705017 
	C468.417603,545.838989 477.359528,515.736572 481.709808,483.368805 
	C484.693604,489.668945 481.154236,512.321350 474.096008,535.885315 
z"/>
<path fill="#000000" opacity="1.000000" stroke="none" 
	d="
M395.436523,394.504333 
	C393.557587,395.191345 392.032166,396.028748 390.397522,394.894409 
	C390.438690,394.542938 390.380890,394.019958 390.524170,393.957397 
	C405.509338,387.412903 417.553467,376.469971 430.698456,367.171692 
	C437.235046,362.548004 444.026886,358.312286 451.497253,355.321899 
	C454.190826,354.243652 456.940521,353.046722 460.050385,353.791809 
	C459.904480,354.454315 459.912933,354.967041 459.762970,355.018555 
	C443.798859,360.502747 431.630157,371.942383 418.265533,381.488617 
	C411.192108,386.541046 403.904266,391.168365 395.436523,394.504333 
z"/>
<path fill="#000000" opacity="1.000000" stroke="none" 
	d="
M718.111328,387.405640 
	C718.896057,399.006561 715.198364,409.817596 716.397400,422.257477 
	C712.920166,418.589935 713.039490,415.283936 712.746887,412.133057 
	C712.111816,405.292877 713.794861,398.567047 713.746460,391.739746 
	C713.642029,377.000763 707.532532,367.714569 693.955505,361.874634 
	C692.084534,361.069916 689.696472,361.000793 688.490784,358.812988 
	C699.704773,355.663116 714.698486,370.011932 718.111328,387.405640 
z"/>
<path fill="#000000" opacity="1.000000" stroke="none" 
	d="
M567.200684,557.143250 
	C564.445618,561.247559 562.736450,565.518677 560.655212,570.185913 
	C558.443237,567.639465 559.730225,565.767883 560.269592,564.049438 
	C562.020386,558.471741 564.728821,553.296326 567.358582,548.103088 
	C574.569702,533.862610 576.648621,519.713379 566.949585,505.636169 
	C566.446472,504.906036 565.632446,504.004395 566.520752,502.926056 
	C568.009583,502.202423 568.607300,503.436310 569.297485,504.283813 
	C577.031677,513.780396 580.195740,524.302673 576.563660,536.397400 
	C574.395630,543.616943 571.251709,550.378784 567.200684,557.143250 
z"/>
<path fill="#000000" opacity="1.000000" stroke="none" 
	d="
M656.206909,508.811432 
	C654.617737,506.869232 656.404053,506.040253 657.387146,505.263977 
	C672.879272,493.031158 683.421204,477.466156 689.109070,458.581757 
	C689.186829,458.323792 689.580383,458.160889 689.829651,457.957275 
	C695.722473,468.053345 675.974609,498.236420 656.206909,508.811432 
z"/>
<path fill="#000000" opacity="1.000000" stroke="none" 
	d="
M339.365601,469.412170 
	C335.398834,485.716003 341.538452,498.601715 351.686798,510.462128 
	C342.642456,507.214050 337.681824,500.586517 335.628082,491.889343 
	C332.758698,479.738098 334.219879,468.183441 341.759857,457.876373 
	C342.583527,461.934906 339.761292,465.182892 339.365601,469.412170 
z"/>
<path fill="#000000" opacity="1.000000" stroke="none" 
	d="
M532.971436,563.041504 
	C534.798584,548.018188 532.971741,533.355774 533.978394,518.753906 
	C539.415771,536.167542 539.020874,553.610107 534.982727,571.901489 
	C531.959656,568.992249 533.310059,566.066833 532.971436,563.041504 
z"/>
<path fill="#000000" opacity="1.000000" stroke="none" 
	d="
M654.338379,464.719086 
	C654.110962,466.835388 654.891663,468.782501 651.923035,471.132294 
	C652.271973,446.685577 648.857605,423.904327 640.709045,401.960327 
	C652.246887,421.205841 655.467285,442.257172 654.338379,464.719086 
z"/>
<path fill="#000000" opacity="1.000000" stroke="none" 
	d="
M663.639038,423.286194 
	C660.199707,410.869720 654.135681,400.075348 647.408569,388.854553 
	C658.643433,393.248322 673.453064,432.265717 669.090759,448.385040 
	C667.109070,439.276947 666.407288,431.232086 663.639038,423.286194 
z"/>
<path fill="#000000" opacity="1.000000" stroke="none" 
	d="
M688.594177,393.345154 
	C687.843628,381.624054 681.751343,375.396057 670.659424,373.631531 
	C666.370178,372.949280 662.340027,371.247375 658.544861,369.132599 
	C657.213440,368.390686 655.305969,368.016510 655.213318,365.567352 
	C658.564270,365.181000 661.166626,367.317444 664.114258,368.003448 
	C668.809387,369.096222 673.452515,370.411804 678.118713,371.628906 
	C686.292664,373.760986 690.264771,379.519623 691.071716,387.481232 
	C691.454651,391.258942 692.099670,395.276978 690.169250,399.493256 
	C687.941284,397.657135 689.003418,395.512787 688.594177,393.345154 
z"/>
<path fill="#000000" opacity="1.000000" stroke="none" 
	d="
M532.026123,648.055786 
	C535.372192,648.598328 538.318115,649.058594 541.254333,649.574402 
	C548.695740,650.881653 553.182312,647.456482 553.854309,639.740295 
	C554.068909,637.276001 553.831299,634.773804 553.831238,632.288940 
	C553.831116,629.840454 553.191101,627.342041 554.400513,624.716248 
	C557.433289,626.409424 556.276367,629.514465 556.828430,631.804443 
	C558.731140,639.696594 556.990601,646.817993 551.274597,652.811035 
	C550.526855,653.594971 549.680664,654.062683 548.672791,654.045166 
	C541.373962,653.918335 534.407410,652.370300 527.574463,649.528992 
	C528.657532,646.992615 530.318481,648.143738 532.026123,648.055786 
z"/>
<path fill="#000000" opacity="1.000000" stroke="none" 
	d="
M633.828796,477.025452 
	C636.176575,462.044220 636.047668,447.474457 634.281372,432.891266 
	C634.162231,431.907715 633.913330,430.933533 633.876404,429.949310 
	C633.860291,429.520935 634.227844,429.078217 634.436890,428.606323 
	C641.057251,435.994812 640.342468,476.360535 633.431213,485.681091 
	C631.813232,482.749084 634.162537,480.129486 633.828796,477.025452 
z"/>
<path fill="#000000" opacity="1.000000" stroke="none" 
	d="
M328.918335,538.000732 
	C328.913727,528.040955 328.913727,518.580627 328.913727,507.630341 
	C333.488129,524.989136 334.283325,541.023804 330.909180,557.211182 
	C330.247101,557.246582 329.585022,557.281982 328.922943,557.317322 
	C328.922943,551.044983 328.922943,544.772644 328.918335,538.000732 
z"/>
<path fill="#000000" opacity="1.000000" stroke="none" 
	d="
M365.006317,484.960083 
	C362.138031,490.340057 364.399475,496.713837 362.138062,502.720154 
	C356.349304,494.209320 360.486847,475.156403 368.639282,470.466370 
	C372.632233,468.169281 375.830933,468.113159 379.626129,470.701324 
	C371.071045,471.653076 366.518616,476.413147 365.007690,484.635712 
	C364.969421,485.018433 364.997101,484.981354 365.006317,484.960083 
z"/>
<path fill="#000000" opacity="1.000000" stroke="none" 
	d="
M521.247437,405.140991 
	C519.621643,408.565613 518.161743,411.653381 516.534363,415.095459 
	C514.072021,412.616241 515.255798,410.294006 516.013672,408.338806 
	C519.065308,400.466003 522.309021,392.666473 525.565491,384.874847 
	C526.990234,381.465881 527.074036,377.523468 529.888184,374.621887 
	C530.572571,385.655823 526.147461,395.272156 521.247437,405.140991 
z"/>
<path fill="#000000" opacity="1.000000" stroke="none" 
	d="
M390.602844,503.455444 
	C386.639465,508.884308 380.967712,509.822632 375.000946,510.586182 
	C380.002930,506.764008 386.339172,504.564117 388.694977,498.043640 
	C391.049011,491.528015 389.008606,485.340790 387.133820,478.889496 
	C394.005432,482.177887 395.660461,494.373322 390.602844,503.455444 
z"/>
<path fill="#000000" opacity="1.000000" stroke="none" 
	d="
M316.763245,505.395142 
	C315.953552,507.552124 317.126648,509.834991 314.405334,511.826935 
	C312.305084,498.134796 313.148926,484.647308 310.452240,471.546753 
	C316.333221,481.975128 317.155182,493.360535 316.763245,505.395142 
z"/>
<path fill="#000000" opacity="1.000000" stroke="none" 
	d="
M325.977478,444.490723 
	C325.637360,450.585602 325.316681,456.249084 324.948181,462.757324 
	C319.606873,454.992920 322.439911,427.143036 329.148163,420.992279 
	C327.837921,429.158325 325.876526,436.496674 325.977478,444.490723 
z"/>
<path fill="#000000" opacity="1.000000" stroke="none" 
	d="
M529.807861,512.796997 
	C534.379883,502.596161 541.920166,493.562866 547.958374,490.887421 
	C547.918823,492.912231 531.044861,517.454224 528.148865,519.520813 
	C526.985901,516.901550 529.087646,515.173523 529.807861,512.796997 
z"/>
<path fill="#000000" opacity="1.000000" stroke="none" 
	d="
M678.250488,410.850677 
	C678.967407,412.849426 680.365112,414.296692 679.283386,417.810272 
	C671.823669,404.796661 664.929749,392.640411 654.366821,382.222748 
	C661.025024,382.590637 671.515320,395.694305 678.250488,410.850677 
z"/>
<path fill="#000000" opacity="1.000000" stroke="none" 
	d="
M710.538330,479.688385 
	C719.565491,487.293152 729.368530,493.191711 739.319397,498.876282 
	C731.163574,500.235657 711.507202,487.413544 707.740479,478.962769 
	C708.836975,477.920868 709.492310,479.022369 710.538330,479.688385 
z"/>
<path fill="#000000" opacity="1.000000" stroke="none" 
	d="
M562.128662,484.863617 
	C573.210999,488.668915 577.224487,497.933655 580.819580,507.630676 
	C573.073303,500.393860 568.752747,489.673096 557.723694,486.091858 
	C559.235718,483.614838 560.573914,484.630524 562.128662,484.863617 
z"/>
<path fill="#000000" opacity="1.000000" stroke="none" 
	d="
M736.220459,430.768951 
	C740.664856,435.438751 744.852295,439.861450 749.272400,444.529938 
	C744.549683,444.975311 729.058899,431.187561 725.024780,423.038361 
	C730.275146,423.974823 732.713318,427.890198 736.220459,430.768951 
z"/>
<path fill="#000000" opacity="1.000000" stroke="none" 
	d="
M752.157959,452.261902 
	C753.025146,449.903381 751.995667,447.542114 753.564148,445.703827 
	C759.657837,454.450317 752.398315,469.464325 740.340271,471.854584 
	C741.952515,467.576843 746.460266,466.662811 748.404419,463.372345 
	C750.394714,460.003815 751.677307,456.520660 752.157959,452.261902 
z"/>
<path fill="#000000" opacity="1.000000" stroke="none" 
	d="
M419.909241,460.238373 
	C417.272461,459.207336 414.546448,459.459808 411.854340,456.595886 
	C420.627563,455.124969 429.317444,461.679810 436.908295,454.315948 
	C436.383392,460.720398 429.823730,462.742188 419.909241,460.238373 
z"/>
<path fill="#000000" opacity="1.000000" stroke="none" 
	d="
M342.556580,554.520752 
	C349.616150,549.531067 350.845612,541.865051 352.355774,533.359131 
	C356.587280,541.902893 352.630005,552.762512 345.396179,555.487427 
	C344.348969,555.881897 342.936523,557.088013 342.556580,554.520752 
z"/>
<path fill="#000000" opacity="1.000000" stroke="none" 
	d="
M692.684387,423.047546 
	C692.954956,421.259369 692.395264,419.573547 694.943115,418.458893 
	C695.867981,427.861023 695.535400,436.747375 692.242249,445.462097 
	C690.482605,438.104553 692.035950,430.794800 692.684387,423.047546 
z"/>
<path fill="#000000" opacity="1.000000" stroke="none" 
	d="
M369.308044,534.047424 
	C367.477325,537.662903 367.102386,541.660461 363.893646,544.339905 
	C362.602356,539.970337 365.669678,530.030945 371.275024,520.740234 
	C372.245087,525.944031 370.286682,529.749268 369.308044,534.047424 
z"/>
<path fill="#000000" opacity="1.000000" stroke="none" 
	d="
M324.733795,489.872498 
	C323.388062,483.902435 323.309845,478.327301 323.926941,472.737915 
	C324.462891,472.680450 324.998840,472.622986 325.534790,472.565521 
	C326.460510,480.392944 327.386230,488.220367 328.406403,496.846680 
	C325.001648,494.985199 325.793793,492.213135 324.733795,489.872498 
z"/>
<path fill="#000000" opacity="1.000000" stroke="none" 
	d="
M358.158264,522.738403 
	C357.652466,524.968323 357.916473,527.044067 355.708649,529.080688 
	C354.150238,524.155518 355.211609,520.329529 357.144806,515.855896 
	C358.822876,518.429382 358.139252,520.411194 358.158264,522.738403 
z"/>
<path fill="#000000" opacity="1.000000" stroke="none" 
	d="
M638.087158,581.899658 
	C637.007935,582.990906 636.792175,584.746765 634.100098,584.018738 
	C641.113770,571.633423 646.975403,558.950806 649.156677,544.501465 
	C653.449097,549.877808 648.061951,567.293701 638.087158,581.899658 
z"/>
<path fill="#000000" opacity="1.000000" stroke="none" 
	d="
M784.981201,456.992493 
	C788.434143,464.780304 789.418762,472.731842 786.808350,481.067871 
	C784.336182,480.418182 784.766113,478.694427 784.738892,477.316925 
	C784.614746,471.048431 785.577576,464.687378 782.488892,458.736938 
	C781.516113,456.862701 782.708130,456.365112 784.735596,456.937073 
	C785.026123,457.042755 784.997498,457.008026 784.981201,456.992493 
z"/>
<path fill="#000000" opacity="1.000000" stroke="none" 
	d="
M784.750000,490.770813 
	C778.433167,484.728577 777.076538,477.038391 780.859253,469.976013 
	C782.610107,470.636017 782.113953,472.167633 782.018372,473.362335 
	C781.580627,478.831879 782.077881,483.978760 785.943298,488.351624 
	C786.700928,489.208679 788.522156,491.223358 784.750000,490.770813 
z"/>
</svg>