<svg version="1.1" id="Layer_1" xmlns="http://www.w3.org/2000/svg" xmlns:xlink="http://www.w3.org/1999/xlink" x="0px" y="0px"
	 width="100%" viewBox="0 0 1024 1024" enable-background="new 0 0 1024 1024" xml:space="preserve">
<path fill="#000000" opacity="1.000000" stroke="none" 
	d="
M571.357666,603.705322 
	C574.398499,612.055420 577.534851,619.960022 580.157410,628.031494 
	C581.255127,631.410034 582.903931,632.320435 586.277283,632.205200 
	C590.130737,632.073486 594.227173,631.073792 598.095764,633.540161 
	C596.129700,640.776794 597.765869,648.138428 596.469543,655.388550 
	C595.407593,661.328064 597.311157,666.710083 600.677307,671.869263 
	C618.519592,699.215332 636.138794,726.707031 653.855347,754.135315 
	C654.656616,755.375732 655.440063,757.418701 656.856445,757.256531 
	C662.792908,756.577026 664.747742,761.328979 667.569885,764.757874 
	C669.570984,767.189148 671.839661,768.226929 674.921387,768.084717 
	C676.983704,767.989624 679.224792,767.748657 681.008301,769.722229 
	C679.762146,772.138672 677.642090,771.909790 675.770447,771.914001 
	C649.946228,771.971924 624.121765,771.944580 598.297852,772.048767 
	C594.725403,772.063171 593.169128,770.604492 592.897095,767.126099 
	C589.533203,724.112915 546.211060,692.168701 500.968811,699.020996 
	C466.580261,704.229492 440.846771,727.877869 433.847198,760.369019 
	C433.812164,760.531738 433.755310,760.689941 433.721649,760.852905 
	C431.374329,772.222168 431.374756,772.153442 419.802185,772.104065 
	C396.804260,772.005798 373.805908,772.008179 350.807953,771.913025 
	C348.758118,771.904541 346.426849,772.619934 344.772888,770.444580 
	C345.533447,767.723633 347.989075,768.095337 349.686340,768.238770 
	C354.703827,768.662903 357.849579,766.255493 360.366119,762.331299 
	C362.168121,759.521240 363.959991,756.811890 368.172882,757.379150 
	C370.143005,757.644409 371.156921,755.485474 372.140503,753.956604 
	C390.257172,725.796570 408.351532,697.622192 426.467072,669.461487 
	C428.044739,667.008911 428.891296,664.416260 428.843262,661.462036 
	C428.723999,654.132507 428.610657,646.799316 428.736908,639.471741 
	C428.774200,637.306458 427.484833,635.775513 426.815369,633.433533 
	C431.126923,631.764099 435.559204,631.788696 439.908142,632.225159 
	C442.951324,632.530579 444.341339,631.635193 445.414337,628.748779 
	C455.577454,601.409912 464.040924,573.532959 472.125610,545.529724 
	C472.986115,542.549316 472.823975,540.142761 470.468323,537.798035 
	C463.113190,530.477234 464.963043,521.596375 474.797943,518.028992 
	C477.521393,517.041138 478.316437,515.796936 478.737122,513.210754 
	C482.984161,487.102386 486.667633,460.909882 489.376526,434.605713 
	C491.557739,413.425049 493.118439,392.174316 494.610748,370.930511 
	C496.442474,344.855072 497.995819,318.759064 499.506653,292.662537 
	C500.112946,282.189911 500.289093,271.692261 500.654297,261.205780 
	C500.724640,259.185760 500.724030,257.112885 499.355560,255.481400 
	C493.592072,248.610123 495.975769,241.378113 497.190033,233.588181 
	C498.300323,226.465225 501.482758,222.043777 507.001068,218.315308 
	C509.349457,216.728607 508.939240,213.790543 508.977386,211.365265 
	C509.148804,200.460922 513.311890,189.902054 511.739532,178.847229 
	C511.583191,177.748077 511.738556,176.292999 513.303711,176.184906 
	C515.241211,176.051102 515.199768,177.654099 515.293884,178.966431 
	C515.365295,179.961227 515.411987,180.977692 515.293030,181.963181 
	C514.004395,192.633835 517.828369,202.942078 517.479675,213.573730 
	C517.324768,218.296844 521.599609,220.308197 524.972046,222.127808 
	C527.679321,223.588486 528.580627,225.252121 528.307495,227.985260 
	C527.708984,233.975052 532.439270,238.911911 531.365295,245.189255 
	C530.736267,248.866608 530.870850,252.390808 527.474060,254.904968 
	C525.613525,256.282074 525.313904,258.484894 525.337830,260.771149 
	C525.534851,279.589294 526.681885,298.365479 527.767822,317.143860 
	C528.546143,330.601898 529.552185,344.048065 530.210938,357.511536 
	C531.373657,381.276031 533.571533,404.949524 535.855286,428.625061 
	C538.267151,453.628601 541.625916,478.503113 545.257202,503.348022 
	C545.425415,504.499146 545.812012,505.647522 545.792603,506.792053 
	C545.683167,513.261292 548.269470,517.575317 554.311035,520.687439 
	C559.928223,523.580933 560.393799,532.793274 555.634155,537.139099 
	C553.038574,539.508972 552.624329,541.750732 553.537598,545.026306 
	C558.994507,564.597351 564.983582,584.002808 571.357666,603.705322 
M489.053558,623.334045 
	C488.479126,625.895874 487.613831,628.421326 487.944214,631.033203 
	C488.353699,631.295288 488.622284,631.613037 488.907227,631.628418 
	C504.189941,632.455750 519.483337,631.887817 534.772217,631.935791 
	C537.613220,631.944702 538.002258,629.974060 537.499207,627.772644 
	C533.276733,609.292297 530.586182,590.549255 527.946594,571.802002 
	C527.525452,568.810425 526.119812,567.916565 523.355042,567.906494 
	C516.873108,567.882935 510.377930,567.911987 503.914978,567.498718 
	C499.382690,567.208984 497.863922,569.231262 497.330017,573.387207 
	C495.214478,589.854553 492.478455,606.226868 489.053558,623.334045 
M515.500000,651.951416 
	C489.677002,651.999207 463.854004,652.083069 438.031097,652.053772 
	C434.367859,652.049622 432.128357,652.537964 432.163422,657.153992 
	C432.197235,661.607788 434.446716,661.888245 437.823273,661.886108 
	C487.636566,661.854675 537.450012,661.841431 587.263000,661.965515 
	C591.528015,661.976135 593.049133,660.722046 593.200745,656.302979 
	C593.368958,651.398987 590.527222,651.900757 587.470825,651.904114 
	C563.813904,651.930298 540.156921,651.935974 515.500000,651.951416 
M435.986847,729.471619 
	C428.310272,739.814026 423.089752,751.206421 421.336792,764.048523 
	C421.034546,766.262512 420.942169,768.554443 424.262299,768.612671 
	C427.043854,768.661316 429.275757,768.800842 429.810242,764.805847 
	C432.482361,744.832397 441.567444,728.268311 456.987640,715.193665 
	C508.441345,671.566284 587.799316,701.900879 596.027527,764.529663 
	C596.578308,768.721741 598.740112,768.774658 601.776245,768.630005 
	C605.487000,768.453186 604.918152,765.786621 604.653381,763.543823 
	C604.362183,761.076843 603.772522,758.632202 603.153992,756.218628 
	C593.006836,716.623779 548.180420,689.077271 508.849487,691.683777 
	C479.668457,693.617615 454.952209,705.603455 435.986847,729.471619 
M530.499756,679.711975 
	C540.873840,679.582275 551.270874,679.962830 562.242859,678.899780 
	C559.981567,675.054504 557.988708,672.005371 556.352539,668.775574 
	C555.056641,666.217407 553.304260,665.246643 550.435486,665.256104 
	C525.308289,665.339478 500.180664,665.302795 475.053162,665.309448 
	C473.396942,665.309875 471.520996,665.073303 470.529938,666.749512 
	C468.304230,670.513916 466.247131,674.378052 463.900909,678.598267 
	C486.289246,680.030151 507.898407,679.663147 530.499756,679.711975 
M548.511658,534.274048 
	C548.817017,532.175293 550.220459,530.310669 549.888245,527.692627 
	C525.007446,527.692627 500.179413,527.692627 475.338013,527.692627 
	C475.600861,535.217529 476.168579,535.838623 482.935089,535.850342 
	C502.905945,535.885010 522.876892,535.898071 542.847778,535.880310 
	C544.627991,535.878723 546.543762,536.340942 548.511658,534.274048 
M514.405151,687.982117 
	C542.711365,689.118347 566.715637,700.148010 587.458313,720.877197 
	C583.287720,709.032898 574.355286,703.821838 565.376099,698.692749 
	C525.603821,675.973877 482.396820,680.561523 447.216614,707.855957 
	C443.501556,710.738281 440.543365,715.374451 439.128998,720.024841 
	C459.672546,699.040527 484.613068,688.928284 514.405151,687.982117 
M538.368103,557.581238 
	C543.241821,556.842773 548.242004,558.417786 553.127502,557.093079 
	C553.617798,553.032898 551.510498,551.703369 548.230835,551.608337 
	C546.407593,551.555542 544.571228,551.887634 542.751160,551.808350 
	C521.285889,550.874023 499.810638,551.571960 478.341919,551.344238 
	C474.294067,551.301331 472.437683,552.757385 473.235687,557.589905 
	C494.708130,557.589905 516.121338,557.589905 538.368103,557.581238 
M444.524353,665.313293 
	C431.780609,665.302856 427.972290,667.962769 425.991272,678.917175 
	C434.543213,678.917175 442.976288,678.919678 451.409332,678.916443 
	C459.798828,678.913147 464.629944,674.549866 465.922913,665.314331 
	C459.076172,665.314331 452.296600,665.314331 444.524353,665.313293 
M560.335144,669.208435 
	C563.209717,677.213196 568.726868,680.429199 577.215881,679.033508 
	C580.446289,678.502502 583.839783,679.049377 587.148132,678.885254 
	C591.352234,678.676636 595.638733,679.503662 600.412903,678.146179 
	C598.094727,674.044617 596.024963,670.331543 593.898743,666.651062 
	C593.241577,665.513306 592.052368,665.348267 590.853943,665.347473 
	C581.403687,665.341064 571.953430,665.332336 562.503174,665.338074 
	C560.311462,665.339417 558.775085,665.902649 560.335144,669.208435 
M398.418701,768.024048 
	C402.198456,768.024048 405.978210,768.024048 409.759399,768.024048 
	C409.506195,761.143127 408.762085,760.346924 402.419434,760.345886 
	C392.596649,760.344299 382.764771,760.657288 372.954468,760.320618 
	C366.952362,760.114624 363.360046,762.704895 360.842316,768.023743 
	C373.226959,768.023743 385.334503,768.023743 398.418701,768.024048 
M661.428223,768.090393 
	C662.572021,767.853027 664.055664,769.001404 664.800964,767.459473 
	C662.348267,761.665100 658.104065,759.966797 652.050903,760.249451 
	C642.113281,760.713501 632.132507,760.526855 622.179626,760.256958 
	C618.254517,760.150391 616.491821,761.816711 616.532593,765.337952 
	C616.575562,769.041504 619.729614,768.005005 621.796387,768.019836 
	C634.743774,768.112488 647.692017,768.066895 661.428223,768.090393 
M514.432983,259.932892 
	C517.016785,259.379883 521.081909,261.657013 521.515991,256.898346 
	C521.884521,252.858139 521.753662,248.773254 523.306152,244.637970 
	C516.286255,242.850021 509.833252,242.885422 503.136414,244.564789 
	C503.514282,248.319565 504.069336,251.743149 504.144989,255.177292 
	C504.220062,258.584656 505.733948,260.008057 509.022308,259.891113 
	C510.512482,259.838104 512.007080,259.909607 514.432983,259.932892 
M437.505707,682.273621 
	C434.008118,682.267212 430.490295,682.496521 427.017731,682.198425 
	C421.945190,681.763062 419.970184,684.578125 418.677673,689.341675 
	C420.702881,689.433044 422.315369,689.595215 423.924042,689.563354 
	C432.076874,689.401855 440.229706,689.019226 448.380585,689.063965 
	C452.808563,689.088318 455.098206,687.184448 456.156311,682.275269 
	C450.032959,682.275269 444.267670,682.275269 437.505707,682.273621 
M572.788086,688.078430 
	C574.377747,689.230408 576.287659,689.198059 578.067932,689.222534 
	C587.185059,689.347900 596.304199,689.340576 605.422546,689.329163 
	C605.810059,689.328674 606.196899,688.828674 606.748413,688.447876 
	C605.441040,684.346680 603.247681,681.957275 598.499023,682.223999 
	C593.033325,682.531006 587.533936,682.178467 582.055054,682.328979 
	C578.018311,682.439819 573.887207,681.624695 569.908691,682.945740 
	C570.067932,685.057251 571.253296,686.264648 572.788086,688.078430 
M542.414734,523.952454 
	C545.434570,523.952454 548.454407,523.952454 551.908508,523.952454 
	C550.508850,521.211121 548.779663,521.311951 547.146545,521.312012 
	C524.370483,521.312988 501.594452,521.327393 478.818420,521.356140 
	C477.125092,521.358276 475.244690,521.125916 474.157257,523.950439 
	C496.939026,523.950439 519.189880,523.950439 542.414734,523.952454 
M546.500000,648.000610 
	C509.103577,648.000610 471.707153,648.000610 434.310730,648.000610 
	C434.311432,648.146606 434.312134,648.292542 434.312836,648.438538 
	C486.363464,648.438538 538.414062,648.438538 590.464722,648.438538 
	C590.464539,648.291199 590.464355,648.143921 590.464172,647.996582 
	C576.142761,647.996582 561.821411,647.996582 546.500000,648.000610 
M445.047913,701.633972 
	C446.272308,699.446167 447.496735,697.258362 449.193481,694.226501 
	C442.046387,697.436096 435.923615,700.185730 429.109283,703.245850 
	C432.441803,706.502136 434.906769,709.490662 438.641113,711.448547 
	C441.258087,708.631653 442.840668,705.353760 445.047913,701.633972 
M493.499329,644.692566 
	C494.323792,644.691895 495.149872,644.657227 495.972443,644.696472 
	C499.206238,644.850830 501.779022,644.649048 501.755432,640.158813 
	C501.732483,635.783447 499.055115,636.016541 496.164948,635.961609 
	C494.518951,635.930298 492.859497,635.856873 491.234650,635.612488 
	C487.337616,635.026245 486.012482,636.591064 486.029663,640.522583 
	C486.052765,645.808960 489.699158,644.441711 493.499329,644.692566 
M509.809448,644.658142 
	C511.965179,644.658142 514.125610,644.567627 516.275452,644.679993 
	C519.258911,644.835876 520.966003,643.977173 520.909363,640.539490 
	C520.858643,637.467224 519.858337,635.838318 516.591919,635.961853 
	C514.108643,636.055847 511.618774,635.985657 509.131958,635.968811 
	C506.556122,635.951294 505.129913,636.988525 505.082458,639.785950 
	C505.035278,642.565247 505.282562,644.882019 509.809448,644.658142 
M535.991577,644.654114 
	C540.158020,644.695801 539.648682,641.730774 539.591064,639.056396 
	C539.529358,636.194153 537.521057,636.063660 535.408630,636.072571 
	C533.247314,636.081665 531.084351,636.140564 528.925171,636.075378 
	C526.040649,635.988403 524.224365,636.660034 524.232422,640.194824 
	C524.240601,643.803833 525.876404,644.894775 529.126770,644.710449 
	C531.115662,644.597656 533.115845,644.683350 535.991577,644.654114 
M407.563049,754.760010 
	C408.837494,755.727173 410.179413,757.426758 411.666687,755.286743 
	C414.633545,751.018005 417.417358,746.622070 420.276764,742.278687 
	C413.388214,743.558167 407.323853,745.714722 401.475647,748.791687 
	C402.906799,751.618347 405.344727,752.589050 407.563049,754.760010 
M587.940979,699.620605 
	C584.920044,698.758301 582.340820,696.300110 578.197083,696.847534 
	C581.118286,702.170959 583.410034,707.216492 587.282898,711.911133 
	C590.283569,708.950073 593.514832,706.979126 595.373535,703.567322 
	C593.407349,701.394592 590.799744,701.072205 587.940979,699.620605 
M422.689850,733.449768 
	C424.619965,734.943481 425.715973,733.721497 426.636871,732.181458 
	C429.149414,727.979736 431.623596,723.755005 434.645935,718.636841 
	C427.775055,721.465027 421.836090,723.909607 415.252991,726.619324 
	C418.095032,729.228394 420.154327,731.118835 422.689850,733.449768 
M592.844299,720.400208 
	C592.871704,722.715088 594.547119,724.299683 595.551331,726.131226 
	C601.283142,736.585022 601.465454,736.569946 609.452332,727.756409 
	C609.637695,727.551880 609.596375,727.141907 609.741028,726.436707 
	C604.353821,724.195679 599.028564,721.642517 592.844299,720.400208 
M543.315857,617.205200 
	C544.140015,619.578247 544.056824,622.365845 546.487061,624.473755 
	C549.348877,621.492188 552.548645,619.210571 554.438293,615.416870 
	C550.467407,612.264221 546.349609,609.879700 541.136780,607.034424 
	C542.016235,611.025024 542.610474,613.721497 543.315857,617.205200 
M630.849915,731.340210 
	C632.247925,731.797729 633.645996,732.255249 636.005249,733.027344 
	C632.236206,727.220642 629.115417,722.412781 625.861267,717.399353 
	C622.395996,719.840393 619.897095,722.267761 617.535889,725.561035 
	C622.031921,727.504517 626.120544,729.271851 630.849915,731.340210 
M477.622620,622.631592 
	C479.455536,624.004944 480.397705,622.946106 480.842407,621.285400 
	C482.084534,616.647034 483.856903,612.109375 484.193420,606.421082 
	C481.763428,608.013977 479.997650,609.171204 478.232056,610.328796 
	C469.649384,615.955933 469.617096,614.992615 477.622620,622.631592 
M621.629395,751.321655 
	C622.761353,750.336670 624.435303,749.087585 622.090332,748.011169 
	C617.296143,745.810425 612.514709,743.406677 606.917664,742.365356 
	C607.268127,745.914551 609.160950,747.872742 610.585388,750.052002 
	C614.958008,756.741638 614.972595,756.732117 621.629395,751.321655 
M619.848633,708.932007 
	C617.754211,703.512268 614.311768,699.016235 610.618652,694.338318 
	C607.623413,696.883911 605.223267,699.041626 603.326477,702.390625 
	C608.695557,705.257812 613.951660,707.533386 619.848633,708.932007 
M410.526459,707.794861 
	C414.397034,706.062866 418.267609,704.330872 422.586517,702.398254 
	C420.142639,699.204163 418.034760,696.585205 414.600098,694.259521 
	C411.455994,699.239746 408.470825,703.968262 405.296967,708.995667 
	C407.614838,709.450378 408.674530,708.511536 410.526459,707.794861 
M403.163239,727.728271 
	C404.623138,726.818604 406.786133,726.830566 407.340118,724.464966 
	C405.230988,722.012268 403.068085,719.597839 399.380829,718.338318 
	C396.446655,722.861389 393.572144,727.292480 390.171326,732.534973 
	C395.411652,731.567932 398.756714,729.287476 403.163239,727.728271 
M382.837158,752.142456 
	C386.277710,750.727905 390.030090,749.966187 393.470917,747.304138 
	C390.600525,744.826111 388.521942,742.045044 384.828156,740.641296 
	C381.879059,745.255676 379.071960,749.647888 375.603882,755.074341 
	C378.558014,753.884583 380.358307,753.159485 382.837158,752.142456 
M635.495605,749.317017 
	C640.075928,751.068298 644.656311,752.819641 650.439697,755.030945 
	C646.728027,749.390076 643.859985,745.031372 640.997253,740.680786 
	C637.969360,741.879578 636.217957,743.899170 634.209045,745.545593 
	C632.386475,747.039429 632.621521,748.264221 635.495605,749.317017 
M563.726501,611.100647 
	C562.822266,612.375610 560.905029,612.996826 561.169678,615.388794 
	C565.303284,617.858215 569.576599,620.411011 574.655762,623.445312 
	C572.460022,617.152405 570.640259,611.936951 568.525940,605.877258 
	C566.571167,608.013794 565.378113,609.317810 563.726501,611.100647 
M458.541718,619.036255 
	C460.467529,617.575867 462.887115,616.691589 464.349548,614.030579 
	C461.940643,611.745056 460.337433,608.653320 456.829803,606.785156 
	C454.900330,612.398621 453.163452,617.451660 451.059937,623.571472 
	C454.043823,621.767334 455.994568,620.587891 458.541718,619.036255 
M413.236084,765.301331 
	C414.358002,767.708130 416.762512,769.281677 417.368561,765.915649 
	C418.935699,757.212280 421.230530,748.821167 424.951080,740.809326 
	C421.250214,746.405457 417.742218,752.041504 414.158173,757.628845 
	C412.751709,759.821411 411.681976,761.989502 413.236084,765.301331 
M511.716370,228.039978 
	C515.007202,227.835266 518.624634,228.919571 521.555420,225.588608 
	C518.849854,222.876724 516.912598,219.474716 512.483093,220.155609 
	C508.871796,220.710724 506.742188,222.967361 505.625061,226.219345 
	C507.127655,228.165192 509.105530,227.705475 511.716370,228.039978 
M544.780762,595.263733 
	C545.695374,593.963440 547.368896,593.156982 547.426086,591.011719 
	C544.414368,588.201904 540.822449,586.087646 536.249329,583.578125 
	C537.478210,589.553040 538.515137,594.594910 539.583130,599.787781 
	C541.999146,598.937012 542.872375,597.019348 544.780762,595.263733 
M487.658081,584.163086 
	C484.319061,586.446228 480.568085,588.197083 477.766846,591.561768 
	C480.073517,594.486572 482.081421,597.382935 486.053986,599.322815 
	C486.583466,593.845642 489.614624,589.300476 487.658081,584.163086 
M556.215698,587.513367 
	C555.450989,588.663696 553.689575,589.297363 554.389038,591.505188 
	C557.774597,593.545044 560.762573,596.684082 565.504578,598.178711 
	C564.488342,592.835754 562.916199,588.269897 561.046387,583.595886 
	C558.821716,584.120789 557.977417,585.881775 556.215698,587.513367 
M613.307678,763.956726 
	C613.503357,756.358337 606.984985,752.434753 604.079285,746.513611 
	C605.798767,752.436218 607.221558,758.341187 608.217041,764.351379 
	C608.425842,765.611938 608.146851,767.240356 609.837830,767.599060 
	C612.096863,768.078186 612.529785,766.255554 613.307678,763.956726 
M462.486694,597.467957 
	C465.280304,594.986694 469.020874,593.635254 471.369965,590.293884 
	C469.434448,587.835266 467.797241,585.397583 464.618683,583.425232 
	C462.893402,588.708923 461.300507,593.587158 459.442383,599.277649 
	C460.863861,598.439453 461.422699,598.109924 462.486694,597.467957 
M509.548431,564.126282 
	C515.155823,563.614197 520.956665,565.129272 527.403992,563.090576 
	C521.939453,560.100342 501.653076,560.607971 499.239685,563.400635 
	C502.349518,564.698181 505.517822,563.884460 509.548431,564.126282 
M506.762970,239.931107 
	C513.329407,239.931107 519.895874,239.931107 527.589966,239.931107 
	C522.212646,236.379456 504.728485,236.464920 499.680481,239.945724 
	C502.355408,239.945724 504.111053,239.945724 506.762970,239.931107 
M587.842163,643.792297 
	C589.730591,644.896118 591.906006,645.377747 593.134949,643.337891 
	C594.232300,641.516357 594.491333,638.639465 593.052734,637.184204 
	C590.676208,634.780212 587.416748,635.103394 584.275513,636.309204 
	C584.484497,639.187378 586.302734,641.051086 587.842163,643.792297 
M557.954407,572.771362 
	C557.030029,569.497498 556.105591,566.223633 555.062073,562.527954 
	C552.170349,564.543823 550.253540,566.444946 548.635193,569.052917 
	C551.791565,571.544983 554.735840,573.928528 558.711304,575.896545 
	C558.439453,574.613037 558.308838,573.996399 557.954407,572.771362 
M436.459747,644.564392 
	C439.946259,643.059082 440.462524,639.912964 441.258728,636.304077 
	C437.766876,636.685242 433.730286,633.767212 432.324646,638.882568 
	C431.639374,641.376160 431.128662,644.842529 436.459747,644.564392 
M535.564575,575.572693 
	C538.867859,574.747681 540.369934,572.058350 542.263550,569.403931 
	C539.653931,567.105896 537.216187,565.032532 533.601929,563.552979 
	C533.743835,567.855286 534.056519,571.523132 535.564575,575.572693 
M509.440674,478.211426 
	C510.177734,480.172302 510.572388,482.378265 512.887695,483.246948 
	C517.318542,478.152161 517.282593,476.179688 512.651611,470.330475 
	C511.125244,472.555298 509.918365,474.859741 509.440674,478.211426 
M491.150818,571.531921 
	C491.477722,569.041565 491.804626,566.551208 492.244080,563.203369 
	C488.588593,565.712036 485.456879,566.950134 483.697784,570.140381 
	C485.777191,572.209534 487.146088,574.711792 490.204468,576.018372 
	C490.518677,574.456970 490.740936,573.352661 491.150818,571.531921 
M476.382629,568.653198 
	C475.256226,566.156250 473.304596,564.531555 470.663788,562.887878 
	C469.449066,567.057678 468.365356,570.777832 467.050964,575.289917 
	C471.188110,573.694519 473.989258,571.855713 476.382629,568.653198 
M528.911377,498.627686 
	C531.812683,498.627686 534.713928,498.627686 537.615234,498.627686 
	C535.493774,495.662842 533.815491,492.984650 530.856750,491.543457 
	C528.634338,493.355804 527.186707,495.482605 525.863037,497.569458 
	C526.564819,498.705994 527.466553,498.463745 528.911377,498.627686 
M468.111511,641.239807 
	C468.089294,643.371460 468.930817,645.152649 471.248566,644.437744 
	C474.984680,643.285339 474.898834,639.695068 475.758087,636.643433 
	C469.181213,635.761780 468.914276,635.902588 468.111511,641.239807 
M425.506897,706.736633 
	C424.481964,708.716980 422.627106,710.337097 422.571411,713.336975 
	C426.182709,713.756714 429.468689,713.972778 433.241302,712.330811 
	C430.696716,709.898682 429.536102,706.750122 425.506897,706.736633 
M513.832092,512.138428 
	C509.913849,511.806396 508.764893,515.230774 505.741730,517.545166 
	C510.972443,517.844238 515.251221,518.241394 520.310242,517.254822 
	C517.921204,515.312317 516.158752,513.879211 513.832092,512.138428 
M601.525208,709.005371 
	C600.679138,708.081909 600.576050,706.458069 598.788818,706.213867 
	C596.845459,708.534485 594.852905,710.913940 593.005920,713.119507 
	C594.730103,713.741882 597.341858,713.588135 599.928894,713.570984 
	C603.284912,713.548645 603.592590,712.030334 601.525208,709.005371 
M491.174896,490.081970 
	C492.929626,485.775635 489.365601,484.847626 486.704865,482.506256 
	C486.167603,486.112915 485.701569,489.005371 485.328003,491.909698 
	C485.230438,492.668182 485.420624,493.463715 485.488617,494.375305 
	C487.996796,493.812469 489.050385,491.749054 491.174896,490.081970 
M491.318542,498.649780 
	C493.869965,498.506348 496.499451,499.056366 499.310486,498.044678 
	C497.963928,495.380371 496.870270,493.074249 494.234497,491.750549 
	C492.004486,493.752441 489.702637,495.435944 488.028229,498.315918 
	C489.333160,498.482361 489.973785,498.564087 491.318542,498.649780 
M504.202728,484.819855 
	C504.285797,484.047760 504.817993,483.259399 504.129242,482.508423 
	C497.171539,487.540466 495.016846,489.188629 502.472961,494.257965 
	C504.046600,491.533356 503.488922,488.415619 504.202728,484.819855 
M539.202087,619.460205 
	C540.273254,623.315918 540.125427,627.564331 542.931458,630.884216 
	C540.157288,620.005737 538.215820,608.956421 535.013550,598.174194 
	C536.357544,604.992493 537.701477,611.810791 539.202087,619.460205 
M539.936340,490.760895 
	C539.517761,487.928406 539.735291,484.941498 538.073303,482.278961 
	C532.105530,488.817810 532.294373,489.862091 540.257019,493.969269 
	C540.175659,493.017426 540.108521,492.231140 539.936340,490.760895 
M413.712433,729.895691 
	C409.174591,729.032532 409.745544,732.978027 407.996063,735.467407 
	C411.968140,735.859131 415.316650,736.125671 419.531342,735.276733 
	C417.344543,733.212158 415.798401,731.752502 413.712433,729.895691 
M615.205505,730.694763 
	C609.858154,727.617676 610.199402,733.848267 607.441345,735.171204 
	C610.779968,735.596924 613.949158,736.292664 617.434082,735.177429 
	C616.649841,733.553406 616.090027,732.394104 615.205505,730.694763 
M521.358704,485.289886 
	C521.820068,488.459198 522.281494,491.628510 522.884644,495.771729 
	C524.665833,493.445953 525.911194,491.963623 526.993896,490.370850 
	C528.427979,488.261353 526.905029,486.828217 525.406372,485.917145 
	C524.260925,485.220856 523.648682,481.837006 521.358704,485.289886 
M488.772797,607.440125 
	C488.844818,604.981018 490.098846,602.645142 489.502197,599.663086 
	C488.263458,605.408264 487.202759,610.745300 485.946716,616.035889 
	C484.692902,621.316956 483.243408,626.551453 481.879700,631.806335 
	C485.790588,624.376343 486.971893,616.257751 488.772797,607.440125 
M506.417542,461.710175 
	C503.449432,462.417328 501.281128,464.513123 500.843689,467.187042 
	C500.479523,469.413055 502.548126,471.186005 505.051361,472.236603 
	C506.133911,468.754425 506.929535,465.589661 506.417542,461.710175 
M569.806580,642.620850 
	C571.789246,643.665710 573.982788,644.969421 574.690247,641.456726 
	C575.025085,639.794128 575.508240,637.643311 573.425659,636.575745 
	C572.070251,635.881042 570.302917,635.794373 569.171021,636.824707 
	C567.413269,638.424805 567.797058,640.364685 569.806580,642.620850 
M507.815155,441.031250 
	C502.009308,445.709320 502.055298,446.957703 508.341522,450.716827 
	C508.698669,448.731506 509.227112,446.819305 509.329437,444.884552 
	C509.404816,443.459778 511.111359,441.421600 507.815155,441.031250 
M491.650360,482.046722 
	C492.733551,483.198181 493.316040,484.915039 495.363342,485.248535 
	C497.482635,483.956116 499.323120,482.278137 501.178314,479.370636 
	C497.934357,479.370636 495.381805,479.346375 492.830078,479.380310 
	C491.427917,479.398926 490.577301,479.903107 491.650360,482.046722 
M550.249634,636.759644 
	C549.716553,638.354858 550.592224,639.637329 551.275513,640.905396 
	C552.102905,642.440979 552.682373,644.416626 554.943237,644.359009 
	C556.104492,644.329468 556.517883,643.338928 556.619507,642.284973 
	C556.831482,640.085266 556.754150,637.965088 554.536682,636.688782 
	C553.345642,636.003235 552.049927,635.945251 550.249634,636.759644 
M513.350891,498.675476 
	C514.570435,498.444244 516.017700,499.091583 517.090332,497.617676 
	C516.122681,495.276825 515.110718,492.963501 512.417358,491.850037 
	C510.663269,493.668976 509.154602,495.334167 508.890533,497.710358 
	C509.947357,499.104706 511.376495,498.500641 513.350891,498.675476 
M481.818695,514.109497 
	C485.236847,514.153259 486.818268,511.549469 488.933899,509.582092 
	C487.511749,507.543030 486.140289,505.960510 484.014435,505.016785 
	C481.877869,507.583008 482.626068,510.767639 481.818695,514.109497 
M523.075684,470.337799 
	C526.239624,466.366486 525.647339,464.931763 519.661011,462.281952 
	C518.668457,465.110901 519.629578,467.789948 520.231201,470.464569 
	C520.704712,472.569672 521.731384,471.495575 523.075684,470.337799 
M530.794678,448.486694 
	C531.996277,449.038818 532.588745,450.832886 534.494446,450.307251 
	C534.076660,446.900513 533.670776,443.590668 533.088196,438.839783 
	C531.429565,442.734100 525.634644,443.675781 530.794678,448.486694 
M494.223419,514.225403 
	C489.670227,510.362030 488.344788,515.747925 485.660614,517.386658 
	C489.254425,517.386658 492.848236,517.386658 497.088379,517.386658 
	C495.958679,516.105408 495.319458,515.380432 494.223419,514.225403 
M495.287018,442.250031 
	C494.194031,441.312500 492.952301,439.653351 492.202057,442.427979 
	C491.494629,445.044434 490.830902,447.725739 491.815796,451.171356 
	C494.015350,448.280396 499.518677,447.796051 495.287018,442.250031 
M520.775452,443.671967 
	C519.469299,442.839417 518.615845,441.169159 516.567749,441.414154 
	C515.792053,444.769348 517.282104,447.699646 517.859680,452.139618 
	C519.509583,448.685608 524.125183,448.168304 520.775452,443.671967 
M535.985046,462.550629 
	C535.723816,461.635681 535.080994,460.853760 534.332092,461.795319 
	C531.293640,465.615479 529.081177,466.989105 536.601929,471.551605 
	C536.996338,468.628632 536.782532,465.902100 535.985046,462.550629 
M601.903687,716.472595 
	C599.906738,716.472595 597.909729,716.472595 595.912781,716.472595 
	C598.024658,718.002625 600.128235,718.954895 602.310547,719.665283 
	C604.506653,720.380188 606.491089,721.961426 609.356812,721.893127 
	C607.738281,718.703552 606.515442,715.883667 601.903687,716.472595 
M626.216064,739.783081 
	C625.399902,742.284851 627.109131,743.617737 628.668518,745.359619 
	C631.286438,744.071411 633.271667,742.374390 635.233276,739.482422 
	C631.946167,739.482422 629.381348,739.482422 626.216064,739.783081 
M603.661865,696.374146 
	C604.107605,695.259644 606.075623,694.945557 605.347778,693.065979 
	C602.411438,692.528503 599.529053,692.756409 596.161316,693.292603 
	C597.210388,695.798767 598.157410,697.807739 600.322876,699.434631 
	C601.317200,698.554626 602.283081,697.699829 603.661865,696.374146 
M533.642029,474.927185 
	C532.480225,472.651184 530.634216,471.097534 528.410339,469.712189 
	C526.429810,471.205200 524.835144,472.724823 524.189392,475.400299 
	C527.464417,475.987457 530.399048,475.914337 533.642029,474.927185 
M394.778687,739.313416 
	C393.580231,739.542114 392.136475,738.759888 391.054565,740.341614 
	C392.948700,742.052795 394.409912,744.264282 397.338257,745.119873 
	C398.298584,743.335083 400.169952,742.241333 399.826385,739.587158 
	C398.387848,739.495972 396.957764,739.405273 394.778687,739.313416 
M529.296326,484.682709 
	C533.103638,485.284760 532.900085,482.056244 534.476624,479.747925 
	C530.914429,479.270416 527.990234,478.697449 524.487244,480.309448 
	C526.184998,481.890350 527.484436,483.100403 529.296326,484.682709 
M456.217621,638.086548 
	C454.921234,636.861938 453.714203,635.390686 451.361664,636.488770 
	C450.830017,638.753906 450.468262,641.060913 452.124207,643.554077 
	C454.569031,642.560364 458.026947,642.918030 456.217621,638.086548 
M428.426636,695.261597 
	C428.714844,694.321594 430.130188,692.905334 427.913635,692.781799 
	C425.244049,692.632996 422.547363,692.970459 419.120300,693.132568 
	C421.284973,695.850891 422.913696,697.826538 425.123627,699.078735 
	C427.070740,698.634277 427.294678,696.964172 428.426636,695.261597 
M543.079468,513.769165 
	C543.361511,510.728485 543.079773,507.792938 541.746765,504.910187 
	C535.724487,509.085297 535.866272,510.267212 543.079468,513.769165 
M509.179077,421.139801 
	C503.634857,425.614746 503.671631,426.704987 509.840973,429.896332 
	C510.383362,426.843353 511.798645,424.000275 509.179077,421.139801 
M530.342651,515.605286 
	C529.908813,516.396667 529.710205,517.380310 530.809265,517.516296 
	C533.755920,517.880859 536.748718,518.204712 540.561279,516.984131 
	C536.872070,515.037720 534.812195,509.913696 530.342651,515.605286 
M496.349701,457.970734 
	C495.442383,458.153625 494.327087,457.554321 493.585236,458.797241 
	C494.223083,460.868896 495.491608,463.119812 497.586395,463.186554 
	C500.404694,463.276398 501.676971,460.529907 503.709106,457.958221 
	C500.954468,457.958221 499.004028,457.958221 496.349701,457.970734 
M466.755707,686.545593 
	C465.411652,684.547485 464.722443,681.451050 461.102417,682.955627 
	C460.814972,685.588013 462.596954,687.089722 463.632599,688.864258 
	C464.322784,690.046814 465.089539,691.970215 466.858948,691.245117 
	C469.241547,690.268860 467.574371,688.549683 466.755707,686.545593 
M561.791748,690.048401 
	C562.765259,687.711609 565.163147,685.933533 564.814514,682.970337 
	C561.630432,683.092773 557.479187,687.378357 558.096313,689.904602 
	C558.618286,692.041504 560.014587,691.841187 561.791748,690.048401 
M545.320923,637.342712 
	C544.537964,636.654907 543.459961,635.977417 542.902100,637.197388 
	C541.895325,639.398987 542.200012,641.861328 543.598755,643.701355 
	C544.788818,645.266846 546.682861,645.004272 548.280762,643.872559 
	C548.149475,641.390259 546.657837,639.768433 545.320923,637.342712 
M617.070618,720.441711 
	C617.903625,719.287903 619.537598,718.710510 619.630676,716.647644 
	C616.765747,716.327576 613.977417,715.903748 610.373230,717.313049 
	C612.962463,718.660522 611.817383,724.260559 617.070618,720.441711 
M498.898773,426.060944 
	C498.981506,423.342316 497.181122,422.137360 494.771271,420.695160 
	C494.237823,424.062500 492.791351,426.846008 493.995911,429.994476 
	C496.237183,429.387482 497.356293,427.911407 498.898773,426.060944 
M499.153992,471.691193 
	C494.253418,468.063324 494.543427,473.682922 491.191101,475.470886 
	C495.463074,475.738525 498.330750,476.434265 501.414154,474.875641 
	C500.656982,473.776001 500.102814,472.971191 499.153992,471.691193 
M497.642639,450.137360 
	C496.880798,451.222168 495.060211,451.716370 495.706665,453.795654 
	C498.679260,454.064240 501.631500,454.336914 504.793579,453.523376 
	C501.420959,448.564636 501.420959,448.564636 497.642639,450.137360 
M527.888733,502.860443 
	C533.549988,508.547180 534.612732,508.508820 537.381775,502.399506 
	C534.246948,502.399506 531.165222,502.399506 527.888733,502.860443 
M512.221924,449.935791 
	C510.723724,456.097534 510.799805,456.736267 513.492310,459.775665 
	C516.004700,455.300140 513.571533,451.190979 512.502380,446.953552 
	C512.430298,447.719360 512.358215,448.485199 512.221924,449.935791 
M489.281311,464.979431 
	C489.157471,467.190247 489.033630,469.401062 488.909760,471.611877 
	C491.110046,470.772736 492.564362,469.417908 493.568024,467.785950 
	C495.124359,465.255310 492.842255,463.626923 491.392181,462.458557 
	C489.444977,460.889587 489.566315,463.094543 489.281311,464.979431 
M482.617310,639.752747 
	C482.454742,638.565674 483.099884,636.965210 480.858856,636.650330 
	C479.007080,638.700378 477.690186,641.003723 477.591217,644.131531 
	C481.170227,645.234436 482.837036,644.186951 482.617310,639.752747 
M521.920593,451.926849 
	C521.103149,453.028961 521.366821,453.847717 522.722412,453.907440 
	C525.262024,454.019287 527.809937,453.939667 530.777710,453.939667 
	C529.413025,451.044830 527.659119,449.690887 525.698486,448.644196 
	C523.868896,448.877350 523.331360,450.456726 521.920593,451.926849 
M526.910034,441.367401 
	C527.543945,440.192841 529.271423,439.491089 528.434082,437.354645 
	C526.390747,437.354645 524.276550,437.324860 522.164124,437.373840 
	C521.573486,437.387543 520.988220,437.633636 519.813354,437.912537 
	C522.047668,439.951630 522.592712,443.512329 526.910034,441.367401 
M622.581665,744.135864 
	C621.277527,738.911377 619.695190,738.293396 611.620300,740.036621 
	C615.250488,741.456177 618.644897,742.783508 622.581665,744.135864 
M622.909058,756.915161 
	C625.279907,756.721313 627.784790,757.658936 630.111938,756.144592 
	C630.031189,753.945557 629.214417,751.505798 627.139343,751.857605 
	C624.948547,752.229004 622.117981,753.435974 622.909058,756.915161 
M501.260010,506.482727 
	C501.276764,506.317017 501.324921,506.146667 501.301239,505.986969 
	C501.277924,505.829681 501.139099,505.546570 501.123810,505.551392 
	C498.701599,506.309753 496.193542,507.559631 495.778687,510.037262 
	C495.422882,512.162109 497.437988,513.661682 499.504395,514.565613 
	C501.164978,512.085510 500.407654,509.415344 501.260010,506.482727 
M531.877441,426.919067 
	C531.443604,425.052032 532.267639,422.892487 530.250122,420.923706 
	C528.825806,422.188080 526.540405,423.151031 526.788513,425.228363 
	C527.087891,427.734131 529.414490,429.085052 531.937561,430.568787 
	C531.937561,429.181335 531.937561,428.384552 531.877441,426.919067 
M527.397034,457.929138 
	C525.829956,458.102875 524.135925,457.445221 522.465881,458.765320 
	C523.916077,460.810638 525.412842,463.231506 527.918701,463.176147 
	C530.033997,463.129456 531.088196,460.780914 531.830627,458.408142 
	C530.361755,458.223175 529.245789,458.082642 527.397034,457.929138 
M473.622711,623.477112 
	C472.058472,622.115234 470.982269,620.181152 468.901550,619.327637 
	C467.867798,620.567261 467.455292,621.946960 467.377380,623.414551 
	C467.269958,625.438049 468.664490,625.750244 470.269867,625.914734 
	C472.682465,626.161926 473.389771,625.838806 473.622711,623.477112 
M515.291260,426.244843 
	C515.440430,427.493042 514.884155,428.954437 516.345215,429.812592 
	C521.676880,426.522369 521.649658,425.145691 516.063416,421.853271 
	C514.951050,422.889435 515.318298,424.259033 515.291260,426.244843 
M431.943237,695.759033 
	C431.566956,696.459961 431.019318,697.121277 431.587402,698.394775 
	C434.880280,696.878906 438.157990,695.370056 442.763214,693.250122 
	C438.000763,692.826294 434.485107,690.800842 431.943237,695.759033 
M405.915070,717.283508 
	C406.886963,719.816467 408.683258,721.427185 411.146332,722.308167 
	C412.759247,720.964294 413.951813,719.677185 413.866516,717.594360 
	C411.501221,715.491760 408.861755,716.999146 405.915070,717.283508 
M498.411346,441.028778 
	C501.937408,442.729095 502.865570,442.229645 504.696716,437.362305 
	C502.757111,437.362305 500.947144,437.311554 499.141022,437.373840 
	C496.198669,437.475342 496.798645,438.923157 498.411346,441.028778 
M520.338074,420.275757 
	C524.580017,424.975098 525.114136,420.199005 526.776794,418.075256 
	C524.530029,417.423889 522.435608,417.259827 520.379028,417.468689 
	C518.198853,417.690094 519.293457,418.852417 520.338074,420.275757 
M489.813660,502.221436 
	C488.641205,502.384857 487.985107,502.820496 488.655457,504.138580 
	C490.766815,508.289978 493.226990,507.858978 497.557770,502.160370 
	C494.967621,502.160370 492.724701,502.160370 489.813660,502.221436 
M628.192810,733.933899 
	C625.518616,732.809143 622.844421,731.684387 619.602600,730.320923 
	C622.114319,736.219055 624.023560,736.922546 630.143616,734.844910 
	C629.642273,734.604370 629.199951,734.392151 628.192810,733.933899 
M480.441895,601.331665 
	C480.344849,598.158203 477.912262,596.894897 475.733521,595.061279 
	C474.804718,597.355652 473.600555,599.164307 474.562439,601.592041 
	C476.376343,601.592041 478.147247,601.592041 480.441895,601.331665 
M412.480865,710.749268 
	C411.643280,711.416382 410.076782,710.994934 409.786133,712.523071 
	C417.032349,714.084717 417.929840,713.681824 419.939819,707.887085 
	C417.248138,707.771423 415.414124,709.792419 412.480865,710.749268 
M583.474121,693.996887 
	C586.966797,695.236511 590.133972,697.384399 594.045654,698.065979 
	C592.399719,693.081848 587.465698,691.277344 583.474121,693.996887 
M427.180328,717.452698 
	C420.720490,715.440979 419.409027,715.967163 416.900604,721.590088 
	C417.212585,721.641418 417.574890,721.824097 417.819611,721.722717 
	C420.865509,720.461609 423.894318,719.158997 427.180328,717.452698 
M567.310364,623.031677 
	C565.365112,621.892456 563.419922,620.753296 561.134583,619.414917 
	C562.142944,626.215149 563.401062,626.936646 570.458191,625.111084 
	C569.479980,624.460022 568.668213,623.919800 567.310364,623.031677 
M405.799622,731.736938 
	C405.804382,731.573364 405.849792,731.396729 405.802368,731.250000 
	C405.755981,731.106384 405.584076,730.868774 405.519958,730.884644 
	C401.762878,731.817078 398.281250,733.373169 395.026764,735.471619 
	C398.853912,735.288269 403.463104,737.713684 405.799622,731.736938 
M500.841461,433.749664 
	C502.395630,433.535553 504.060333,434.258179 505.770416,433.093597 
	C504.936737,431.124786 503.831665,429.499054 501.801025,428.594299 
	C499.806152,429.674194 498.250916,430.969452 497.423676,432.963287 
	C498.165039,434.118927 499.248932,433.591034 500.841461,433.749664 
M525.736572,433.738251 
	C526.574646,433.453735 527.758118,434.303955 528.349670,432.894653 
	C526.847778,431.412354 525.809082,429.404663 523.394653,428.780914 
	C521.772705,429.845245 520.212219,430.937744 519.918152,433.068878 
	C521.716064,434.221436 523.407776,433.708588 525.736572,433.738251 
M605.363098,708.039917 
	C606.811707,714.443909 611.577698,712.904541 616.114502,711.956177 
	C612.653564,710.536682 609.192566,709.117249 605.363098,708.039917 
M529.411499,508.795654 
	C527.872559,507.951843 526.910583,506.130188 524.230896,505.995636 
	C525.056519,508.782196 524.608337,511.588593 526.660889,514.208923 
	C528.353760,512.732178 530.877441,512.230408 529.411499,508.795654 
M514.403992,403.439270 
	C514.524353,405.636078 513.905334,408.013214 515.843506,410.107422 
	C516.701721,409.404907 517.374573,408.947327 517.929993,408.375641 
	C518.609985,407.675720 519.407288,406.998291 519.327881,405.859039 
	C517.032288,402.791290 517.032288,402.791290 514.403992,403.439270 
M504.533905,417.325317 
	C502.668579,417.541473 500.641205,416.723206 498.885590,418.164703 
	C499.124695,420.395264 500.402466,421.639679 502.344360,422.311371 
	C506.425934,419.391968 506.425934,419.391968 504.533905,417.325317 
M463.389679,619.905090 
	C460.783417,621.628601 457.789795,622.857300 455.430023,625.614380 
	C462.916931,626.242432 463.385895,625.904602 463.389679,619.905090 
M550.080078,596.351685 
	C546.838989,596.524170 545.982056,599.189758 544.191895,601.478149 
	C546.830811,601.797913 548.915955,602.094421 550.906738,601.164368 
	C551.637329,599.554260 550.744934,598.218018 550.080078,596.351685 
M395.783630,755.688354 
	C398.190460,758.031677 400.833832,756.744446 404.188660,756.519287 
	C401.942291,754.279724 400.397095,752.446411 398.181091,751.679443 
	C396.557953,752.482971 396.191742,753.774597 395.783630,755.688354 
M581.034424,644.510010 
	C582.395142,644.558350 583.506409,644.180298 582.848145,642.563721 
	C582.016357,640.521057 581.601746,638.137146 578.298157,636.409546 
	C579.036621,639.615662 576.503845,642.545776 581.034424,644.510010 
M520.987122,409.878723 
	C520.290955,410.877625 518.740173,411.408752 519.253235,413.285431 
	C521.699951,413.871826 524.134766,414.032135 527.385498,412.991486 
	C524.934509,411.532928 524.632446,408.280975 520.987122,409.878723 
M403.521088,742.058044 
	C403.333862,742.784424 402.068512,744.299500 404.200195,743.632202 
	C407.547089,742.584351 410.757385,741.100220 414.025543,739.800842 
	C410.471161,739.890381 406.507629,737.655334 403.521088,742.058044 
M557.453308,621.575684 
	C552.909241,618.895874 553.365601,623.949646 551.491699,625.439514 
	C553.709473,624.646057 558.886780,629.471313 557.453308,621.575684 
M564.685303,691.890137 
	C564.171082,693.747375 565.115356,694.794800 566.789307,694.969421 
	C568.315979,695.128601 569.023376,693.664734 569.590454,692.587524 
	C570.763123,690.360107 569.425720,688.998657 567.669678,687.908936 
	C566.002686,688.546753 565.634644,690.051697 564.685303,691.890137 
M560.110046,610.123352 
	C561.327881,608.746887 562.545776,607.370483 564.191040,605.510986 
	C561.103333,605.319397 558.997009,604.783020 556.122925,606.532959 
	C558.454346,607.257935 555.547974,610.971802 560.110046,610.123352 
M519.125732,506.044769 
	C517.899414,507.032745 515.949097,507.870422 516.863953,509.795135 
	C517.653992,511.457123 519.126221,512.832458 521.598267,512.751648 
	C521.526917,510.120728 521.724365,507.725494 519.125732,506.044769 
M555.312195,600.494202 
	C557.237366,602.510437 559.382874,601.545654 562.680542,601.397400 
	C559.333130,599.027954 556.985107,597.365967 554.437500,595.562683 
	C554.006531,597.465271 554.479309,598.687134 555.312195,600.494202 
M510.703217,403.739349 
	C509.058807,402.796753 507.794098,402.994843 507.048340,404.568359 
	C505.558105,407.712738 507.684570,408.834747 509.970245,410.075989 
	C511.132324,408.026062 510.513855,406.164612 510.703217,403.739349 
M461.529449,693.198120 
	C461.572845,690.696594 460.286438,689.083008 458.350708,687.844177 
	C456.066132,689.419250 455.917419,691.153137 457.188019,693.073547 
	C458.246307,694.673035 459.567749,695.293640 461.529449,693.198120 
M503.355469,413.819855 
	C504.437927,413.646851 505.680206,414.206268 506.662781,413.049103 
	C505.878387,411.204376 504.702362,409.744690 502.792999,408.938202 
	C500.988098,409.521881 499.735046,410.705841 499.853119,412.499664 
	C499.952454,414.008698 501.566406,413.678833 503.355469,413.819855 
M504.272186,511.526276 
	C506.649078,512.534302 506.649078,512.534302 509.490753,508.983398 
	C508.500610,507.660004 507.759857,506.023621 505.665039,506.115234 
	C504.305634,507.608795 504.409241,509.293091 504.272186,511.526276 
M519.276733,391.710358 
	C518.771118,392.439301 517.613892,392.875061 518.356873,394.472198 
	C520.450073,394.150879 522.776306,395.322144 525.661621,393.589630 
	C523.274292,392.586761 523.202087,388.051270 519.276733,391.710358 
M512.634033,502.173767 
	C511.475830,502.397736 509.996613,501.610138 509.254700,503.198059 
	C512.621765,507.731598 513.432922,507.679535 516.523987,502.755676 
	C515.590942,501.822968 514.399048,502.301910 512.634033,502.173767 
M511.995605,541.158264 
	C510.553040,542.270447 508.680023,543.260437 510.599792,545.443726 
	C511.277924,546.214966 512.148376,546.788452 513.224731,546.503784 
	C514.221375,546.240295 515.167175,545.595459 515.314697,544.568726 
	C515.603149,542.561768 514.222961,541.637390 511.995605,541.158264 
M495.335907,407.134094 
	C495.490906,408.021240 494.890808,409.171997 496.193848,409.666748 
	C501.249725,405.848389 501.276428,405.443146 496.647827,402.934265 
	C495.366211,403.805267 495.477264,405.184967 495.335907,407.134094 
M391.459930,754.883606 
	C391.719818,753.869629 392.701263,752.281677 390.327576,753.044861 
	C387.509857,753.950745 384.761597,755.072632 381.983215,756.100891 
	C385.251953,756.641357 388.491364,758.195862 391.459930,754.883606 
M507.365601,233.064285 
	C512.726440,233.064285 518.087280,233.064285 523.448120,233.064285 
	C523.434998,232.395889 523.421814,231.727509 523.408630,231.059113 
	C516.665100,233.557693 509.879547,231.827713 502.630890,231.526001 
	C503.950165,234.082474 505.379669,233.105057 507.365601,233.064285 
M465.513763,605.197754 
	C464.450928,605.395264 463.198364,604.801270 462.182220,606.145325 
	C463.260010,608.048584 464.580322,609.758118 467.237885,611.332703 
	C466.922668,608.853394 470.812592,606.626221 465.513763,605.197754 
M641.521606,755.339966 
	C638.958008,754.586121 636.643433,752.895264 633.573303,752.883911 
	C635.508484,756.671387 639.490173,758.086548 642.974854,756.551331 
	C642.670410,756.214111 642.365967,755.876892 641.521606,755.339966 
M552.406860,684.754700 
	C551.906860,686.082031 550.708740,688.285217 552.876648,688.301758 
	C555.997009,688.325745 556.526489,685.403259 556.948975,682.833191 
	C554.869507,682.114990 553.712402,682.907166 552.406860,684.754700 
M447.626343,639.640503 
	C447.390869,638.658325 448.098999,637.178345 446.027832,636.987305 
	C444.573730,639.036926 443.334473,641.175964 443.666290,644.031494 
	C446.606903,644.145935 447.401245,642.532654 447.626343,639.640503 
M520.679260,401.759827 
	C523.898499,403.252594 524.464294,401.157257 525.140137,398.647491 
	C522.621765,398.073883 520.488770,397.896484 517.897522,398.821838 
	C518.912659,399.946869 519.556396,400.660339 520.679260,401.759827 
M469.452423,683.816040 
	C470.306335,686.031921 470.331909,689.224976 475.118988,687.885742 
	C473.326050,685.693115 474.234344,681.748474 469.452423,683.816040 
M458.920471,632.545532 
	C460.206848,632.084290 461.415497,631.572998 460.574524,629.386414 
	C458.162842,629.556396 455.671265,629.731995 452.513245,629.954590 
	C454.488129,631.901428 456.165710,632.686646 458.920471,632.545532 
M465.037262,599.958374 
	C464.848907,600.368164 464.436920,601.093018 464.505035,601.141357 
	C465.986328,602.192383 467.681488,602.002136 469.048950,601.189575 
	C470.537720,600.304810 471.141602,598.785706 470.098816,596.989075 
	C468.050903,597.015442 467.013702,598.746094 465.037262,599.958374 
M525.846802,405.066284 
	C525.632812,407.580322 527.154175,408.444946 529.770569,409.143250 
	C529.836914,406.547424 530.221008,404.397522 529.010925,401.939301 
	C527.850281,402.995148 527.004150,403.764893 525.846802,405.066284 
M550.824158,583.915649 
	C552.835083,586.922607 553.451965,586.682556 555.982178,581.670044 
	C553.924927,581.646179 551.708435,580.145752 550.824158,583.915649 
M483.265350,581.376709 
	C479.957672,581.100342 477.753387,582.013000 478.390839,586.983215 
	C480.129425,584.390137 483.407867,584.648254 483.265350,581.376709 
M551.684326,609.262756 
	C552.361389,609.522888 552.898865,610.396484 553.788879,609.764221 
	C552.855408,604.835876 552.732300,604.761780 547.435669,605.979065 
	C548.320129,607.455139 549.832031,608.095093 551.684326,609.262756 
M505.055786,394.605896 
	C505.930664,394.455078 507.348938,394.694702 506.830444,393.174438 
	C506.424377,391.983673 505.473602,390.660339 504.098541,390.740295 
	C502.420166,390.837830 501.190094,391.886841 501.181335,393.747528 
	C502.121582,394.936035 503.320557,394.559540 505.055786,394.605896 
M526.466919,384.595215 
	C522.656677,387.810577 525.706238,388.652618 527.889526,389.810638 
	C528.140625,387.824097 529.834167,385.549713 526.466919,384.595215 
M473.956085,608.989868 
	C475.460876,607.990356 476.965668,606.990845 478.470459,605.991333 
	C476.554901,605.266907 475.032043,605.126404 473.640137,605.488892 
	C471.986053,605.919678 471.410431,607.522400 471.569672,609.016296 
	C471.704742,610.283447 472.747101,609.601929 473.956085,608.989868 
M518.655640,489.950012 
	C518.573425,488.060394 518.431274,486.188080 517.313232,484.366577 
	C513.973694,487.383484 515.547302,489.954865 517.791443,491.960449 
	C518.790955,492.853699 518.431274,491.110626 518.655640,489.950012 
M541.683716,578.007385 
	C545.720337,578.235474 546.021301,576.439392 543.956543,572.805054 
	C543.177490,575.005188 539.618469,574.838196 541.683716,578.007385 
M502.107300,398.424011 
	C499.619080,399.586945 500.430847,401.261230 502.046661,402.027954 
	C504.488525,403.186676 505.402679,401.274170 506.044647,399.455109 
	C505.087402,398.009338 503.867828,398.349579 502.107300,398.424011 
M507.539612,388.109497 
	C508.162903,389.031616 508.665009,390.136383 510.274902,389.816376 
	C511.060242,388.048706 511.084869,386.279755 510.336304,384.386292 
	C508.530060,384.888306 507.732330,385.975708 507.539612,388.109497 
M516.514587,389.734650 
	C519.906128,386.820801 517.394592,385.952667 514.985657,385.015167 
	C514.970032,386.768341 513.054932,388.901215 516.514587,389.734650 
M470.769348,584.060730 
	C471.562836,584.831116 472.253265,586.389465 473.469757,585.700867 
	C474.920410,584.879761 474.932709,583.285950 474.101624,581.831299 
	C470.886841,581.757751 470.886841,581.757751 470.769348,584.060730 
M545.051208,585.002441 
	C545.728760,585.330811 546.300903,586.090454 547.298096,585.482117 
	C547.150208,581.364624 544.757324,580.914612 540.884583,581.929260 
	C542.335266,583.029907 543.443359,583.870605 545.051208,585.002441 
M507.971039,491.316101 
	C510.255157,489.287262 511.589600,487.187439 508.306152,484.431488 
	C507.510742,486.812164 506.868713,488.916229 507.971039,491.316101 
M465.025970,631.015442 
	C467.982941,634.412354 470.074066,630.665466 472.568298,630.164917 
	C470.172302,630.760864 467.646271,628.801208 465.025970,631.015442 
z"/>
<path fill="#000000" opacity="1.000000" stroke="none" 
	d="
M523.806213,828.758911 
	C515.384827,827.882812 515.458008,827.884644 515.246887,836.255493 
	C515.186707,838.639832 516.417297,841.932129 512.130005,842.315796 
	C508.648041,842.627319 506.466400,842.012878 506.556305,837.642944 
	C506.788696,826.346985 506.725311,815.042725 506.613922,803.743408 
	C506.583344,800.641541 507.583344,799.051270 510.818420,799.079651 
	C517.129211,799.134949 523.463562,798.742981 529.729553,799.724731 
	C535.528870,800.633362 540.228333,803.232300 541.749939,809.381348 
	C543.263184,815.496704 542.237610,821.090149 536.651245,824.812744 
	C533.888977,826.653381 534.335632,828.239136 535.834106,830.517578 
	C538.153870,834.044922 541.023132,837.287109 542.398621,841.453430 
	C535.197876,843.457764 533.792908,842.912537 530.098694,837.481384 
	C528.147888,834.613403 526.898987,831.249451 523.806213,828.758911 
M518.951477,807.412354 
	C516.867554,807.405518 515.226013,808.095947 515.346741,810.483459 
	C515.493835,813.389771 514.335815,816.476929 516.282043,819.145630 
	C516.590515,819.568604 517.484314,819.729431 518.107971,819.730286 
	C521.422180,819.734680 524.765442,819.900269 528.042786,819.523926 
	C531.236877,819.157166 533.030457,816.901611 533.186707,813.722229 
	C533.350891,810.380249 531.333984,808.361633 528.241760,807.841309 
	C525.489380,807.378113 522.634766,807.522278 518.951477,807.412354 
z"/>
<path fill="#000000" opacity="1.000000" stroke="none" 
	d="
M654.011414,809.711548 
	C650.791321,811.014099 648.932251,808.346436 646.444641,807.687256 
	C640.909546,806.220642 635.742737,807.074036 635.462708,810.130859 
	C634.945984,815.771118 640.044250,815.261353 643.324219,816.566101 
	C645.939148,817.606262 648.789429,818.087891 651.342529,819.243286 
	C656.022278,821.361450 658.407166,825.168518 658.292603,830.353516 
	C658.174438,835.700378 655.673889,839.674622 650.677673,841.586182 
	C642.121338,844.859619 634.004150,843.307251 626.405823,838.550110 
	C624.904358,837.610046 622.969604,836.292542 624.837036,834.223389 
	C626.421875,832.467407 627.483337,828.901550 631.033936,831.229065 
	C634.911377,833.770691 639.009644,835.323730 643.717468,834.739929 
	C646.149109,834.438354 648.408569,833.773743 648.691406,830.825500 
	C648.952942,828.099060 646.975525,827.023376 644.845581,826.324890 
	C641.220337,825.136047 637.489014,824.252808 633.908752,822.948730 
	C628.688354,821.047302 625.890625,817.168274 625.750610,811.584534 
	C625.616272,806.228638 628.682251,801.850098 634.195129,799.864014 
	C641.421265,797.260681 648.321106,798.628723 654.750732,802.446228 
	C658.930786,804.928040 655.180420,807.168457 654.011414,809.711548 
z"/>
<path fill="#000000" opacity="1.000000" stroke="none" 
	d="
M446.015808,803.049316 
	C447.079285,799.900635 449.032227,798.929199 451.910034,798.993225 
	C454.859100,799.058838 456.312164,800.505310 457.423157,803.103027 
	C462.461639,814.884521 467.664124,826.595764 472.802338,838.334595 
	C473.264740,839.390930 473.863678,840.433472 473.384949,841.658630 
	C466.267090,843.302185 465.649628,843.135437 462.828491,836.663818 
	C461.632874,833.921082 459.939789,832.868713 457.076996,833.063538 
	C454.922455,833.210144 452.736694,833.231323 450.586823,833.049011 
	C445.077301,832.581604 440.663483,833.163269 438.730682,839.748901 
	C437.447052,844.122559 433.398254,842.192688 429.203674,841.617676 
	C434.891357,828.568176 440.375671,815.985291 446.015808,803.049316 
M453.594299,815.194824 
	C452.931274,814.202942 452.981628,812.580872 451.285858,812.469543 
	C448.137177,817.763672 447.112274,820.630737 447.098114,824.377869 
	C450.395233,824.613647 453.708344,825.404053 457.175903,823.834717 
	C455.967560,820.975952 454.883667,818.411621 453.594299,815.194824 
z"/>
<path fill="#000000" opacity="1.000000" stroke="none" 
	d="
M389.347443,799.961792 
	C397.737732,802.675110 401.992310,808.650391 401.086029,815.952881 
	C400.093842,823.947327 394.318207,828.935303 385.632507,829.296692 
	C385.300385,829.310486 384.967560,829.306030 384.635101,829.312683 
	C375.818665,829.489319 375.714264,829.485168 375.366302,838.138367 
	C375.249420,841.044678 374.330780,842.358215 371.293274,842.367737 
	C368.289917,842.377136 366.629944,841.602295 366.663635,838.186646 
	C366.778381,826.549805 366.770508,814.910828 366.689392,803.273499 
	C366.667603,800.146606 368.147797,799.212769 370.987854,799.325134 
	C376.964355,799.561707 382.945129,799.689697 389.347443,799.961792 
M375.679871,820.155457 
	C379.818817,822.167786 384.102570,821.327087 388.185242,820.297852 
	C391.092163,819.564941 391.973175,816.835388 391.838165,813.916138 
	C391.696289,810.849060 390.074738,809.054504 387.148834,808.286743 
	C377.432281,805.737366 375.230255,807.432373 375.345154,817.427856 
	C375.352783,818.090942 375.410797,818.753479 375.679871,820.155457 
z"/>
<path fill="#000000" opacity="1.000000" stroke="none" 
	d="
M578.882324,836.820312 
	C578.897095,825.843872 578.952393,815.347595 578.902954,804.851868 
	C578.887146,801.488037 579.344116,798.933838 583.675659,799.018860 
	C587.884399,799.101501 587.962463,801.831848 587.959839,804.812561 
	C587.950195,815.641663 587.918640,826.470764 587.943481,837.299744 
	C587.950317,840.283386 587.485229,842.390747 583.637756,842.450012 
	C579.737061,842.510010 578.596924,840.744324 578.882324,836.820312 
z"/>
</svg>