<svg version="1.1" id="Layer_1" xmlns="http://www.w3.org/2000/svg" xmlns:xlink="http://www.w3.org/1999/xlink" x="0px" y="0px"
	 width="100%" viewBox="0 0 2048 2048" enable-background="new 0 0 2048 2048" xml:space="preserve">
<path fill="none" opacity="1.000000" stroke="#000000" stroke-linecap="round" stroke-linejoin="round" stroke-width="8.000000"
	d="
M1174.500000,525.500000 
	C1186.418701,519.561157 1196.761963,511.522949 1203.368164,499.924896 
	C1212.415771,484.040894 1211.397095,467.758545 1202.469849,452.017090 
	C1191.996948,433.549469 1174.875610,422.951660 1156.489014,414.022675 
	C1139.167603,405.611053 1120.717773,400.442200 1101.957642,396.712921 
	C1093.798950,395.091095 1085.402222,394.098969 1077.018799,393.302063 
	C1064.847900,392.145172 1052.710815,391.396484 1040.499878,391.491486 
	C1027.593872,391.591919 1014.798340,392.699158 1001.980591,394.349213 
	C988.990784,396.021362 976.127258,398.172058 963.515747,401.558624 
	C934.367737,409.385834 906.617371,420.167969 883.471558,440.467590 
	C874.466797,448.365082 866.903625,457.328003 862.565186,468.525238 
	C854.640320,488.978882 861.524353,510.767639 878.021606,524.473999 
	C882.043213,527.815247 886.392273,530.759949 890.470032,534.037292 
	C892.026855,535.288574 893.629883,535.678040 895.500000,535.500000 
"/>
<path fill="none" opacity="1.000000" stroke="#000000" stroke-linecap="round" stroke-linejoin="round" stroke-width="6.000000"
	d="
M1139.500000,737.500000 
	C1137.992920,743.500000 1139.644043,749.497070 1139.583740,755.500854 
	C1139.526733,761.163635 1140.323486,766.829224 1140.470215,772.500793 
	C1140.888428,788.665283 1141.111206,804.834717 1141.515137,820.999634 
	C1141.948364,838.334595 1142.486694,855.667053 1143.004028,872.999878 
	C1143.456665,888.168030 1144.051880,903.339111 1144.690186,918.492004 
	C1145.665771,941.658936 1146.627930,964.827698 1147.510010,987.999634 
	C1148.093506,1003.330505 1148.692505,1018.662598 1149.243896,1033.991211 
	C1149.573730,1043.157471 1149.476562,1052.349487 1150.069702,1061.495483 
	C1151.160767,1078.318237 1151.635376,1095.150635 1152.068481,1111.998291 
	C1152.715332,1137.164062 1153.098389,1162.328003 1152.974487,1187.499878 
	C1152.956299,1191.179321 1155.069946,1195.082153 1152.000000,1198.500000 
"/>
<path fill="none" opacity="1.000000" stroke="#000000" stroke-linecap="round" stroke-linejoin="round" stroke-width="7.000000"
	d="
M1181.500000,520.500000 
	C1182.719849,516.273865 1186.025146,513.271729 1188.206787,509.623657 
	C1196.433350,495.867371 1192.629272,475.529144 1182.986328,464.011414 
	C1170.424927,449.007812 1153.942139,439.923431 1136.012817,432.967010 
	C1123.346680,428.052734 1110.287964,424.544769 1096.982178,422.096649 
	C1087.255005,420.306885 1077.385498,419.325684 1067.519775,418.308380 
	C1055.317749,417.050201 1043.151001,417.384003 1031.002563,417.626709 
	C1007.925415,418.087769 985.245422,421.659851 962.989258,427.962128 
	C940.624023,434.295258 919.489685,442.947571 900.927002,457.406311 
	C891.408203,464.820618 883.417786,473.257507 879.072388,484.527924 
	C872.496765,501.582733 879.776245,517.902344 890.825256,529.664124 
	C897.909851,537.205750 906.349121,541.673767 915.500000,545.500000 
"/>
<path fill="none" opacity="1.000000" stroke="#000000" stroke-linecap="round" stroke-linejoin="round" stroke-width="9.000000"
	d="
M883.000000,1031.500000 
	C881.575867,1040.666626 883.759460,1049.825317 883.089355,1059.006470 
	C882.947998,1060.944458 884.354431,1062.696533 885.991943,1064.010010 
	C889.020630,1066.439575 890.640259,1069.483398 891.075806,1073.491821 
	C892.196655,1083.808716 893.347229,1094.063477 892.605957,1104.507568 
	C892.064453,1112.135742 892.499512,1119.833374 892.500183,1127.500000 
	C892.500549,1131.241089 896.300476,1133.810181 895.934998,1137.493530 
	C894.796875,1148.962891 899.475342,1159.481567 900.883911,1170.514771 
	C901.141479,1172.532349 901.776001,1175.091797 902.652954,1175.814331 
	C907.400085,1179.725098 906.583130,1185.110107 906.893311,1190.006714 
	C907.440735,1198.649292 908.029602,1207.387329 907.363525,1215.989380 
	C905.674194,1237.804199 906.427429,1259.694580 904.696045,1281.515503 
	C903.907959,1291.447266 903.905823,1301.502808 903.491089,1311.499634 
	C902.350037,1339.000732 901.166077,1366.500000 900.003540,1394.000122 
	C899.975403,1394.665527 899.976624,1395.334351 900.003418,1395.999878 
	C900.702148,1413.353271 899.011780,1430.655273 898.825623,1447.998169 
	C898.643005,1465.019287 897.426025,1482.036011 895.669800,1499.017578 
	C894.578552,1509.569824 893.370789,1520.068237 891.500000,1530.500000 
"/>
<path fill="none" opacity="1.000000" stroke="#000000" stroke-linecap="round" stroke-linejoin="round" stroke-width="8.000000"
	d="
M1167.000000,692.500000 
	C1166.160034,708.177368 1166.524780,723.846497 1167.519897,739.498718 
	C1169.107666,764.476929 1169.646362,789.494751 1170.681763,814.492493 
	C1171.220093,827.488892 1171.246826,840.533569 1172.528198,853.497192 
	C1173.269409,860.996277 1172.473877,868.528687 1173.070923,875.994324 
	C1174.536133,894.312805 1174.114868,912.663086 1174.591919,930.997620 
	C1175.216797,955.007385 1176.301758,979.010376 1177.556152,1002.997070 
	C1178.793457,1026.656250 1179.732788,1050.321899 1180.629639,1073.995117 
	C1181.160156,1088.000366 1180.624756,1102.060669 1181.723145,1115.982422 
	C1183.039795,1132.670776 1181.772827,1149.346680 1182.892090,1166.007202 
	C1183.370605,1173.130493 1182.572754,1180.332764 1182.529541,1187.500122 
	C1182.494507,1193.299805 1177.457764,1195.492188 1173.882690,1196.631958 
	C1168.780640,1198.258423 1165.568115,1201.132202 1162.430176,1204.942505 
	C1160.876343,1206.829224 1158.588013,1208.110840 1156.751587,1209.571167 
	C1154.662476,1209.051147 1154.013550,1207.776489 1153.438354,1206.020142 
	C1150.617676,1197.408936 1141.000244,1188.657959 1129.000122,1189.002319 
	C1123.666260,1189.155273 1118.304565,1189.039673 1113.005737,1189.559082 
	C1100.750244,1190.760864 1093.447388,1183.643433 1086.391724,1175.089233 
	C1080.118530,1167.483643 1082.581909,1159.210815 1083.132812,1151.008911 
	C1083.194580,1150.089233 1083.437500,1148.993530 1083.473389,1147.999023 
	C1084.460815,1120.670654 1085.733765,1093.360107 1086.169189,1066.002686 
	C1086.675903,1034.167114 1086.859863,1002.335938 1087.038452,970.500244 
	C1087.180664,945.165833 1087.436035,919.827087 1088.120239,894.503235 
	C1088.372559,885.164612 1088.052856,875.818237 1088.618530,866.507202 
	C1088.838257,862.889099 1088.042847,858.569824 1092.000000,856.000000 
"/>
<path fill="none" opacity="1.000000" stroke="#000000" stroke-linecap="round" stroke-linejoin="round" stroke-width="6.000000"
	d="
M929.000000,1185.000000 
	C925.116211,1191.519409 927.572327,1198.665771 927.168152,1205.509888 
	C927.078979,1207.019653 927.463562,1208.843384 927.465698,1210.500000 
	C927.510986,1246.000000 927.997314,1281.509521 927.314758,1316.996460 
	C926.901184,1338.498901 927.093323,1360.014404 926.331116,1381.494019 
	C925.751343,1397.835083 925.662292,1414.162476 925.482605,1430.499756 
	C925.216797,1454.667236 924.846802,1478.833618 924.483704,1502.999756 
	C924.436096,1506.168213 924.166626,1509.333374 923.999939,1512.500000 
"/>
<path fill="none" opacity="1.000000" stroke="#000000" stroke-linecap="round" stroke-linejoin="round" stroke-width="5.000000"
	d="
M915.500061,1180.000000 
	C915.333374,1203.500000 915.410278,1227.005005 914.926453,1250.498535 
	C914.504333,1270.999023 913.671997,1291.489258 913.418640,1311.999023 
	C913.245667,1326.000732 912.367920,1339.996948 911.832947,1353.993652 
	C911.189514,1370.826904 910.633484,1387.671021 909.826782,1404.491699 
	C908.827393,1425.330322 908.628906,1446.156006 908.457642,1466.999634 
	C908.354919,1479.501587 907.833313,1492.000000 907.500000,1504.500000 
"/>
<path fill="none" opacity="1.000000" stroke="#000000" stroke-linecap="round" stroke-linejoin="round" stroke-width="6.000000"
	d="
M971.000000,654.500000 
	C968.957275,631.334290 973.438904,608.719971 976.708557,585.994019 
	C977.566162,580.033508 977.807861,573.986938 978.527649,568.003357 
	C979.411438,560.656006 980.133179,553.259277 981.594421,546.019043 
	C983.352356,537.308105 984.449402,528.448547 987.459961,519.985718 
	C994.029724,501.518036 1007.441101,491.093597 1025.998291,486.493256 
	C1030.787964,485.305908 1035.389648,484.684143 1040.120239,487.280975 
	C1041.040405,487.786163 1043.693115,487.339539 1045.496704,486.983398 
	C1055.916504,484.925903 1064.494751,489.191376 1071.918091,495.594971 
	C1082.303101,504.553558 1087.299316,516.500305 1089.033813,529.995667 
	C1090.892090,544.453247 1090.754272,558.974365 1091.059692,573.498718 
	C1091.505127,594.676453 1094.205444,615.765320 1093.554810,637.001709 
	C1093.312134,644.923523 1092.491333,652.679688 1091.234497,660.537537 
	C1089.018921,674.389099 1089.909912,688.476318 1090.384399,702.503906 
	C1090.688843,711.507019 1090.950439,720.508423 1091.503174,729.499817 
	C1092.834351,751.147522 1092.633545,772.847961 1093.738281,794.513367 
	C1094.113647,801.875122 1092.874512,809.539490 1092.340210,817.024292 
	C1091.813965,824.393738 1091.982666,832.025818 1092.637939,839.487915 
	C1092.893066,842.395203 1092.951416,845.182434 1092.479858,847.996643 
	C1091.604248,853.223572 1094.286621,857.975708 1094.436401,863.001892 
	C1094.937622,879.830200 1095.169678,896.666626 1095.499268,913.500000 
	C1096.001953,939.166626 1096.323853,964.838745 1097.113037,990.496521 
	C1097.333618,997.667480 1097.291992,1004.834412 1097.503052,1011.999939 
	C1098.298096,1038.996704 1099.449097,1065.981079 1099.640137,1092.999023 
	C1099.691895,1100.320435 1099.886841,1107.666382 1099.982544,1115.000244 
	C1100.204346,1131.999512 1100.274292,1149.000977 1100.539673,1165.999390 
	C1100.610107,1170.503540 1101.166626,1175.000000 1101.500000,1179.500000 
"/>
<path fill="none" opacity="1.000000" stroke="#000000" stroke-linecap="round" stroke-linejoin="round" stroke-width="7.000000"
	d="
M947.000000,1196.000000 
	C945.386963,1198.277344 945.366150,1200.898560 945.515381,1203.499146 
	C946.873535,1227.167236 945.025024,1250.828613 945.391785,1274.501709 
	C945.631714,1289.992798 945.118042,1305.512817 944.419922,1320.996338 
	C943.720703,1336.503174 944.673279,1352.021484 943.906860,1367.495361 
	C942.627869,1393.321045 942.913513,1419.172729 942.010620,1445.000366 
	C941.614441,1456.331543 941.468933,1467.672729 940.961060,1478.998291 
	C940.474915,1489.839722 939.641357,1500.665161 939.032776,1511.501831 
	C938.958679,1512.821655 939.333313,1514.166626 939.500000,1515.500000 
"/>
<path fill="none" opacity="1.000000" stroke="#000000" stroke-linecap="round" stroke-linejoin="round" stroke-width="6.000000"
	d="
M966.000000,1207.500000 
	C964.804565,1209.684326 964.343140,1211.990479 964.479431,1214.501099 
	C965.646423,1235.991699 965.112183,1257.506470 964.837097,1278.997925 
	C964.681335,1291.163940 964.804199,1303.335815 964.489929,1315.499756 
	C963.856934,1340.000610 963.381042,1364.508301 962.427612,1388.997192 
	C961.746277,1406.496948 961.104187,1424.000000 960.354919,1441.493774 
	C959.668945,1457.508301 959.205688,1473.576416 956.996277,1489.499512 
	C955.515869,1500.168823 954.000000,1510.833374 952.500000,1521.500000 
"/>
<path fill="none" opacity="1.000000" stroke="#000000" stroke-linecap="round" stroke-linejoin="round" stroke-width="7.000000"
	d="
M983.500000,1217.500000 
	C981.469604,1220.425049 981.535950,1223.858032 982.104248,1226.981079 
	C983.443237,1234.339478 982.998779,1241.640869 982.548218,1249.002930 
	C982.283997,1253.320190 982.524170,1257.666748 982.495972,1262.000000 
	C982.337646,1286.333374 982.587830,1310.679077 981.865723,1334.995972 
	C981.296387,1354.166748 981.843628,1373.374146 980.770874,1392.487183 
	C979.674927,1412.014526 980.852417,1431.519409 979.889038,1450.994507 
	C979.211487,1464.689575 979.695007,1478.339111 980.081970,1491.997681 
	C980.285339,1499.177490 981.333374,1506.333374 982.000061,1513.500000 
"/>
<path fill="none" opacity="1.000000" stroke="#000000" stroke-linecap="round" stroke-linejoin="round" stroke-width="6.000000"
	d="
M1006.000000,1230.000000 
	C1003.398499,1233.264771 1003.328857,1237.120605 1003.509277,1240.999512 
	C1004.695923,1266.509277 1003.447021,1292.001831 1003.001343,1317.500000 
	C1002.989685,1318.166504 1003.002136,1318.833374 1002.999695,1319.500000 
	C1002.833313,1364.500000 1002.608093,1409.499878 1002.531128,1454.500000 
	C1002.503540,1470.666382 1002.819153,1486.833496 1003.019470,1502.999756 
	C1003.042236,1504.834961 1003.333313,1506.666626 1003.500000,1508.500000 
"/>
<path fill="none" opacity="1.000000" stroke="#000000" stroke-linecap="round" stroke-linejoin="round" stroke-width="6.000000"
	d="
M949.500061,939.500000 
	C952.500061,949.500000 955.462097,959.511597 958.507385,969.497742 
	C966.765808,996.579163 975.551086,1023.474609 985.437927,1050.023071 
	C1002.257263,1095.187012 1020.569946,1139.594604 1046.408325,1180.557861 
	C1052.946533,1190.923462 1059.813354,1200.980713 1067.500000,1210.500000 
"/>
<path fill="none" opacity="1.000000" stroke="#000000" stroke-linecap="round" stroke-linejoin="round" stroke-width="5.000000"
	d="
M1056.500000,1252.000000 
	C1057.785889,1274.152344 1056.786865,1296.357300 1057.697754,1318.491821 
	C1058.589966,1340.173340 1057.963989,1361.839233 1058.553345,1383.498535 
	C1059.483032,1417.666016 1058.771362,1451.833618 1058.944214,1486.000244 
	C1058.986328,1494.331787 1058.300415,1502.665527 1058.030640,1511.000977 
	C1057.982422,1512.494019 1058.333252,1514.000000 1058.500000,1515.500000 
"/>
<path fill="none" opacity="1.000000" stroke="#000000" stroke-linecap="round" stroke-linejoin="round" stroke-width="6.000000"
	d="
M1036.000000,1245.500000 
	C1034.804565,1247.684326 1034.439331,1249.995728 1034.460083,1252.500366 
	C1034.544922,1262.677490 1034.737671,1272.835571 1035.370483,1283.008057 
	C1035.855225,1290.800903 1035.006958,1298.666992 1035.026367,1306.499878 
	C1035.138794,1351.666748 1035.554199,1396.834351 1035.355347,1441.999390 
	C1035.301147,1454.336914 1035.455566,1466.666992 1035.435913,1478.999878 
	C1035.420410,1488.833740 1034.833252,1498.666626 1034.500000,1508.500000 
"/>
<path fill="none" opacity="1.000000" stroke="#000000" stroke-linecap="round" stroke-linejoin="round" stroke-width="6.000000"
	d="
M1079.500000,1259.500000 
	C1079.500000,1263.666626 1079.343018,1267.840210 1079.524902,1271.998901 
	C1080.960449,1304.822510 1080.062134,1337.669922 1080.617065,1370.498047 
	C1080.958008,1390.668701 1080.450684,1410.845337 1081.115112,1430.996216 
	C1081.620972,1446.338745 1081.052979,1461.673462 1081.556396,1476.998169 
	C1081.934204,1488.500366 1080.822144,1500.014648 1082.000000,1511.500000 
"/>
<path fill="none" opacity="1.000000" stroke="#000000" stroke-linecap="round" stroke-linejoin="round" stroke-width="7.000000"
	d="
M944.000000,811.000000 
	C942.702393,812.427368 942.492554,814.136230 942.475342,815.999756 
	C942.347534,829.833435 941.925842,843.698914 942.237793,857.494629 
	C942.705505,878.182007 941.646973,898.831665 941.969727,919.500488 
	C942.276855,939.164978 942.030396,958.842407 942.619751,978.496399 
	C942.945251,989.349792 942.117554,1000.213684 942.711792,1010.988342 
	C943.485596,1025.018555 941.586182,1039.003052 942.767334,1053.019653 
	C942.897705,1054.566162 944.103882,1057.812378 941.000000,1059.000000 
"/>
<path fill="none" opacity="1.000000" stroke="#000000" stroke-linecap="round" stroke-linejoin="round" stroke-width="6.000000"
	d="
M1128.000000,1284.000000 
	C1126.356201,1285.714111 1126.416260,1287.845459 1126.494751,1290.000244 
	C1126.840210,1299.499756 1127.189087,1308.999268 1127.494141,1318.500244 
	C1127.852417,1329.666016 1128.207764,1340.832275 1128.491089,1352.000244 
	C1129.015259,1372.666260 1129.954346,1393.317017 1130.132080,1413.998901 
	C1130.233765,1425.824463 1130.908203,1437.657227 1131.036133,1449.499634 
	C1131.232300,1467.667725 1131.560425,1485.836182 1132.045654,1503.998779 
	C1132.281982,1512.839233 1133.000122,1521.666626 1133.500122,1530.500000 
"/>
<path fill="none" opacity="1.000000" stroke="#000000" stroke-linecap="round" stroke-linejoin="round" stroke-width="6.000000"
	d="
M1101.500000,1278.500000 
	C1102.832886,1282.737183 1102.803589,1287.174316 1102.914429,1291.502197 
	C1103.302124,1306.663208 1103.292847,1321.833984 1103.509888,1336.999878 
	C1103.803223,1357.500488 1103.909546,1378.008423 1104.576904,1398.497437 
	C1105.168701,1416.664551 1105.076904,1434.842529 1105.682007,1452.993896 
	C1106.065674,1464.496826 1106.898193,1476.011475 1106.364502,1487.493652 
	C1105.928345,1496.880615 1106.673828,1506.169556 1107.000000,1515.500000 
"/>
<path fill="none" opacity="1.000000" stroke="#000000" stroke-linecap="round" stroke-linejoin="round" stroke-width="8.000000"
	d="
M678.500000,735.500000 
	C693.587524,749.557495 710.762878,760.717407 728.534546,770.939880 
	C748.730713,782.557068 769.116211,793.828430 789.080017,805.867371 
	C802.217834,813.790039 815.416687,821.680786 829.451904,828.105042 
	C843.953979,834.743103 859.019531,835.659790 874.987427,834.584045 
	C876.754517,842.728088 876.243958,851.185852 875.724976,859.482788 
	C875.536621,862.493591 875.572266,865.531738 875.595886,868.499268 
	C875.733582,885.834106 876.545044,903.169861 876.398804,920.499146 
	C876.236877,939.703735 874.667297,958.855225 873.149902,978.011902 
	C871.952454,993.128967 870.824524,1008.298645 871.017456,1023.499756 
	C871.113464,1031.068726 874.927490,1036.042847 881.500000,1037.500000 
"/>
<path fill="none" opacity="1.000000" stroke="#000000" stroke-linecap="round" stroke-linejoin="round" stroke-width="8.000000"
	d="
M912.500000,803.500000 
	C911.721191,812.316528 910.948669,821.195679 911.665161,829.986511 
	C912.241089,837.053040 911.493835,844.010437 911.374207,850.997864 
	C911.117432,866.004883 910.658569,881.043213 909.345886,895.986450 
	C908.276794,908.156372 907.660583,920.367859 906.197449,932.523743 
	C905.324585,939.775513 905.141479,947.178650 904.475525,954.497803 
	C903.504761,965.166931 902.745056,975.854492 901.703613,986.519897 
	C901.203979,991.636658 900.673218,996.818298 900.444519,1001.997559 
	C900.119751,1009.351746 898.982239,1016.699890 898.744080,1024.007935 
	C898.512329,1031.121094 896.583496,1038.385620 899.000000,1045.500000 
"/>
<path fill="none" opacity="1.000000" stroke="#000000" stroke-linecap="round" stroke-linejoin="round" stroke-width="15.000000"
	d="
M1156.000000,1631.000000 
	C1154.796997,1626.747803 1155.627686,1622.345825 1154.632568,1617.969849 
	C1150.562500,1600.073975 1136.165161,1592.301025 1122.000244,1591.988037 
	C1110.966309,1591.744019 1101.255127,1594.944946 1094.071899,1603.559937 
	C1088.988647,1609.656250 1086.895386,1617.156372 1085.982788,1624.998047 
	C1084.769531,1635.423584 1085.787476,1645.372681 1090.400024,1655.047729 
	C1094.487671,1663.621826 1101.486816,1668.162476 1110.025513,1670.402954 
	C1125.245239,1674.395996 1139.794800,1670.187866 1148.486694,1658.490112 
	C1152.990845,1652.428345 1154.980347,1645.453613 1155.502319,1638.000122 
	C1155.654175,1635.832520 1155.833374,1633.666626 1156.000000,1631.500000 
"/>
<path fill="none" opacity="1.000000" stroke="#000000" stroke-linecap="round" stroke-linejoin="round" stroke-width="6.000000"
	d="
M999.500000,606.000000 
	C996.093872,610.885437 997.801697,616.233093 997.941711,621.501526 
	C998.189026,630.811890 998.948486,640.238647 993.055969,648.539734 
	C990.980408,651.463623 989.506104,654.299011 984.976624,653.667969 
	C982.778809,653.361877 980.021545,654.357056 978.082642,655.626282 
	C975.890930,657.060974 974.687622,656.860596 972.418640,655.652771 
	C968.824829,653.739746 964.528259,654.888245 961.057861,656.158081 
	C951.744507,659.565918 942.455322,660.919617 932.490112,660.123657 
	C907.047058,658.091370 882.965454,664.475952 859.532410,673.583313 
	C851.367798,676.756531 842.873840,678.969421 834.892395,682.774353 
	C831.548340,684.368530 827.375793,681.472900 823.505371,680.959534 
	C812.553223,679.506714 802.082153,680.480042 792.503845,686.506165 
	C785.475037,690.928345 776.822266,692.196167 770.430359,697.922241 
	C769.783081,698.502075 768.154175,698.111816 767.001892,697.983093 
	C751.857361,696.291443 736.918030,698.479675 722.007874,700.556641 
	C708.550476,702.431213 695.087524,703.806335 681.511169,704.674500 
	C664.052612,705.790833 647.100525,702.497803 630.024841,700.306580 
	C625.518127,699.728271 621.762085,701.628845 617.506836,701.747070 
	C610.030945,701.954773 603.440247,702.404297 597.847778,695.625549 
	C590.837769,687.128601 580.063904,685.365967 570.038086,682.372437 
	C565.151245,680.913330 560.665955,682.340637 556.000183,682.504578 
	C546.925476,682.823364 537.946045,681.986267 528.991333,680.554199 
	C526.673828,680.183533 524.138672,680.117371 522.516785,682.535156 
	C523.514404,689.437927 528.961121,690.869751 534.506653,691.966492 
	C540.433594,693.138550 546.470947,693.409546 552.500244,693.474548 
	C556.267456,693.515137 559.599548,693.786804 562.106018,697.427002 
	C564.077881,700.290649 567.713135,702.105713 569.357117,705.079041 
	C573.224426,712.073669 579.319885,713.858765 586.500000,714.000000 
"/>
<path fill="none" opacity="1.000000" stroke="#000000" stroke-linecap="round" stroke-linejoin="round" stroke-width="5.000000"
	d="
M1149.000000,1312.500000 
	C1147.215210,1314.806519 1148.006958,1317.500610 1148.046265,1319.999268 
	C1148.401855,1342.507324 1149.714722,1364.983521 1150.130737,1387.497559 
	C1150.561890,1410.830688 1151.660522,1434.148438 1151.567383,1457.500244 
	C1151.518921,1469.665405 1152.243164,1481.832031 1152.460083,1494.000732 
	C1152.540283,1498.496338 1152.166748,1503.000000 1152.000000,1507.500000 
"/>
<path fill="none" opacity="1.000000" stroke="#000000" stroke-linecap="round" stroke-linejoin="round" stroke-width="9.000000"
	d="
M1156.500000,1252.500000 
	C1156.146729,1270.024414 1157.610840,1287.496948 1157.985718,1305.000366 
	C1158.061279,1308.527710 1158.195801,1312.072876 1157.060181,1315.519775 
	C1156.943970,1315.872437 1156.355347,1316.231567 1156.940186,1317.043091 
	C1161.068115,1322.770508 1157.133667,1330.072876 1160.501221,1335.999268 
	C1161.799438,1338.283936 1159.829346,1340.244385 1159.913940,1342.503174 
	C1160.674316,1362.832764 1160.470947,1383.188965 1161.916626,1403.505981 
	C1162.435791,1410.802368 1161.762207,1418.175781 1162.044189,1425.498291 
	C1162.923706,1448.336304 1164.147583,1471.161499 1164.938110,1494.002197 
	C1165.337646,1505.546997 1165.763184,1517.065430 1167.500000,1528.500000 
"/>
<path fill="none" opacity="1.000000" stroke="#000000" stroke-linecap="round" stroke-linejoin="round" stroke-width="16.000000"
	d="
M906.500000,1620.500000 
	C918.000000,1620.500000 929.552979,1619.831665 940.981201,1620.737305 
	C948.482361,1621.331787 954.291138,1619.422852 960.607239,1615.681030 
	C973.125977,1608.264404 977.087524,1597.028687 975.315308,1584.526245 
	C973.307129,1570.359863 962.855042,1561.167847 949.499756,1560.002930 
	C937.013000,1558.913452 924.499207,1559.614624 911.999756,1559.566528 
	C905.845947,1559.542847 904.510681,1561.259644 904.504517,1567.500000 
	C904.490356,1581.833374 903.877441,1596.203125 904.716064,1610.487305 
	C905.287476,1620.220215 904.138245,1629.826294 904.435059,1639.501953 
	C904.731262,1649.159546 904.500000,1658.833374 904.500000,1668.500000 
"/>
<path fill="none" opacity="1.000000" stroke="#000000" stroke-linecap="round" stroke-linejoin="round" stroke-width="6.000000"
	d="
M1487.500000,694.000000 
	C1496.500000,693.166687 1505.579468,692.809570 1514.471191,691.327026 
	C1520.089600,690.390137 1525.010254,687.286621 1527.531128,681.513550 
	C1528.593506,679.080627 1527.640381,677.600403 1525.478394,677.091553 
	C1523.915771,676.723694 1522.180542,676.954102 1520.486328,677.453430 
	C1513.485107,679.516785 1506.233032,679.834900 1499.016479,680.646729 
	C1482.788086,682.472168 1466.766357,685.328064 1453.973999,696.971497 
	C1449.307617,701.218750 1443.837158,701.953369 1438.001953,699.495361 
	C1431.829102,696.895142 1425.975952,699.110229 1419.990479,700.457764 
	C1407.300293,703.315063 1394.650269,706.881836 1381.503174,706.412170 
	C1370.616943,706.023193 1359.817871,704.285400 1348.983521,703.158936 
	C1329.145752,701.096436 1309.209351,700.342407 1290.032349,707.585571 
	C1286.892822,708.771423 1284.036499,708.735352 1281.001709,707.992737 
	C1258.413574,702.465210 1236.216187,695.572083 1214.005127,688.733215 
	C1206.935791,686.556519 1200.889526,682.096375 1193.997925,679.505676 
	C1177.316650,673.234924 1160.738525,666.588501 1143.469360,662.118347 
	C1134.002197,659.667786 1124.146118,660.916077 1114.508423,661.616150 
	C1106.592773,662.191162 1099.494019,660.158936 1092.500000,657.000000 
"/>
<path fill="none" opacity="1.000000" stroke="#000000" stroke-linecap="round" stroke-linejoin="round" stroke-width="8.000000"
	d="
M874.500000,862.000000 
	C850.892395,854.357788 827.632263,845.884155 805.467590,834.563416 
	C795.184753,829.311340 784.440308,824.713928 772.513245,826.112793 
	C764.510132,827.051453 756.471191,828.007690 748.478333,828.773804 
	C734.549377,830.109070 720.513184,832.020203 706.527039,830.711182 
	C702.310059,830.316467 697.537720,830.253662 693.502563,827.995422 
	C687.635193,824.711975 682.155457,820.825500 677.536072,815.965759 
	C659.226990,796.703918 643.162476,775.823975 632.003174,751.498535 
	C630.539551,748.308044 627.563843,745.564209 629.000000,741.500000 
"/>
<path fill="none" opacity="1.000000" stroke="#000000" stroke-linecap="round" stroke-linejoin="round" stroke-width="7.000000"
	d="
M1084.500000,797.500000 
	C1071.567139,799.601685 1058.905029,802.794495 1046.501587,807.004517 
	C1022.646484,815.101440 998.043945,818.239014 973.010437,816.816284 
	C961.762268,816.176941 950.874023,813.250427 940.377991,808.256409 
	C931.721191,804.137451 922.567139,800.976624 913.977783,796.543091 
	C904.919250,791.867371 896.489502,786.132263 888.609070,779.862915 
	C870.181641,765.202576 850.979492,751.579590 832.467285,737.041687 
	C821.144348,728.149597 809.287842,719.930298 798.074829,710.906982 
	C790.646240,704.929077 782.445557,700.865417 773.500000,698.000000 
"/>
<path fill="none" opacity="1.000000" stroke="#000000" stroke-linecap="round" stroke-linejoin="round" stroke-width="5.000000"
	d="
M1333.500000,712.500000 
	C1313.298096,731.011414 1291.525635,747.598450 1270.066284,764.583801 
	C1259.516968,772.933655 1249.743652,782.257202 1239.483521,790.980713 
	C1220.085571,807.473633 1201.092651,824.503601 1179.010498,837.517883 
	C1177.263306,838.547729 1175.666626,839.833313 1174.000000,841.000000 
"/>
<path fill="none" opacity="1.000000" stroke="#000000" stroke-linecap="round" stroke-linejoin="round" stroke-width="9.000000"
	d="
M1433.000000,744.000000 
	C1434.536011,749.089783 1432.145386,753.492676 1430.487427,757.995361 
	C1421.396729,782.682922 1407.770020,804.455872 1389.041626,823.041992 
	C1382.152954,829.878296 1374.458374,833.515198 1364.495728,833.102783 
	C1344.056030,832.256592 1323.801025,834.885559 1303.479980,836.786499 
	C1287.245605,838.305237 1270.853027,840.069458 1254.480347,837.108826 
	C1251.793945,836.623108 1248.834839,837.119385 1245.987671,837.341492 
	C1240.685303,837.755188 1235.159912,840.406067 1229.933472,836.591125 
	C1229.251709,836.093506 1227.620239,836.685669 1226.510742,837.034241 
	C1224.803223,837.570679 1223.185913,838.387329 1221.496460,838.989990 
	C1216.189087,840.883179 1210.986572,842.491760 1206.349487,846.317627 
	C1200.178955,851.408813 1191.842285,852.525818 1184.477417,855.443054 
	C1181.109741,856.777161 1177.500000,857.500061 1174.000000,858.500061 
"/>
<path fill="none" opacity="1.000000" stroke="#000000" stroke-linecap="round" stroke-linejoin="round" stroke-width="6.000000"
	d="
M731.500000,719.500000 
	C737.045593,722.263367 740.796326,727.211670 745.464111,731.043701 
	C749.470642,734.332825 753.260010,737.904297 756.973389,741.527283 
	C760.577454,745.043823 765.478821,746.308228 769.456970,749.062195 
	C781.243835,757.221924 792.635498,765.962524 804.548401,773.927673 
	C820.687256,784.718445 836.962280,795.342285 853.624695,805.291199 
	C858.615540,808.271179 864.193420,811.313171 870.500000,811.500000 
"/>
<path fill="none" opacity="1.000000" stroke="#000000" stroke-linecap="round" stroke-linejoin="round" stroke-width="5.000000"
	d="
M1082.500000,576.500000 
	C1081.152954,588.687378 1083.231445,600.824829 1083.030151,613.000488 
	C1082.848999,623.952942 1081.133423,634.711792 1079.592773,645.513245 
	C1079.153442,648.593445 1079.134644,652.089966 1080.179443,654.934082 
	C1081.444824,658.378601 1080.570679,661.307373 1080.025146,664.504272 
	C1076.966797,682.424072 1074.050537,700.372253 1068.493896,717.748047 
	C1065.957275,725.680237 1065.608521,726.655396 1056.500854,726.458923 
	C1046.163696,726.235840 1035.864746,727.316956 1025.490112,726.654785 
	C1017.117004,726.120361 1008.930115,725.414551 1000.979065,722.558350 
	C998.109802,721.527710 994.866882,721.515991 992.025452,720.433228 
	C984.095520,717.411255 980.019714,710.647278 976.511108,703.494568 
	C970.470886,691.180969 964.500000,678.833313 958.500000,666.500000 
"/>
<path fill="none" opacity="1.000000" stroke="#000000" stroke-linecap="round" stroke-linejoin="round" stroke-width="4.000000"
	d="
M996.500000,526.500000 
	C992.733643,526.728027 991.963867,529.789307 991.029297,532.510071 
	C988.581177,539.637451 987.538757,547.040771 986.300537,554.466736 
	C984.525513,565.111755 983.781494,575.779358 982.841003,586.486023 
	C981.943542,596.704163 983.661621,606.583008 985.135559,616.479797 
	C986.502625,625.659180 987.654663,634.735291 986.524109,644.002930 
	C986.129150,647.240112 984.161560,650.121704 984.500000,653.500000 
"/>
<path fill="none" opacity="1.000000" stroke="#000000" stroke-linecap="round" stroke-linejoin="round" stroke-width="8.000000"
	d="
M897.000000,1132.500000 
	C898.970337,1130.985107 899.898743,1129.139526 900.073975,1126.504883 
	C900.954956,1113.265381 904.122986,1100.481445 908.542786,1088.015137 
	C910.197021,1083.349243 913.491028,1080.296021 918.481079,1078.930786 
	C922.739380,1077.765747 926.947571,1076.254028 930.974304,1074.442871 
	C937.707458,1071.414429 941.285400,1063.605713 938.470459,1058.516357 
	C936.834290,1055.558228 934.626404,1053.110840 931.516479,1051.468750 
	C925.079590,1048.069702 918.508972,1044.995728 911.490662,1043.033447 
	C906.929382,1041.758057 899.359680,1044.937988 897.025391,1049.014526 
	C895.099060,1052.378906 892.847290,1055.589478 891.968689,1059.492920 
	C891.466370,1061.725220 889.407837,1062.892944 888.000000,1064.500000 
"/>
<path fill="none" opacity="1.000000" stroke="#000000" stroke-linecap="round" stroke-linejoin="round" stroke-width="4.000000"
	d="
M989.000000,978.500000 
	C987.445923,980.559937 987.908447,982.736084 988.482300,985.004456 
	C996.755066,1017.709595 1006.965210,1049.813599 1018.541626,1081.484741 
	C1021.259827,1088.921143 1024.500000,1096.166626 1027.500000,1103.500000 
"/>
<path fill="none" opacity="1.000000" stroke="#000000" stroke-linecap="round" stroke-linejoin="round" stroke-width="7.000000"
	d="
M1174.000000,1197.500000 
	C1175.861572,1202.837036 1173.199585,1207.582031 1171.973633,1212.493408 
	C1170.720581,1217.512817 1170.184814,1222.720703 1168.054810,1227.524292 
	C1167.839722,1228.009521 1167.298828,1228.515503 1167.902954,1229.556274 
	C1170.230835,1233.567505 1169.418945,1238.121948 1169.493774,1242.500122 
	C1169.841187,1262.833252 1170.038574,1283.170044 1170.574463,1303.498047 
	C1170.745605,1309.998291 1172.753418,1316.653687 1170.814209,1322.942749 
	C1169.162598,1328.299683 1167.770264,1334.545898 1161.000000,1336.500000 
"/>
<path fill="none" opacity="1.000000" stroke="#000000" stroke-linecap="round" stroke-linejoin="round" stroke-width="7.000000"
	d="
M1554.000000,718.500000 
	C1554.843140,723.949219 1550.812256,725.914429 1546.971313,726.886841 
	C1528.011230,731.687012 1509.248169,737.462830 1489.505127,738.589966 
	C1483.159302,738.952209 1476.833862,738.912842 1470.499756,738.959839 
	C1467.987183,738.978516 1465.529175,738.924683 1462.940186,738.219543 
	C1460.377075,737.521362 1457.105713,736.878174 1454.505493,739.006775 
	C1451.775024,741.242126 1448.488892,739.534058 1445.466553,740.380432 
	C1438.740479,742.263977 1431.781006,743.302063 1425.023926,745.090515 
	C1422.015869,745.886658 1419.770020,745.149780 1417.500000,743.500000 
"/>
<path fill="none" opacity="1.000000" stroke="#000000" stroke-linecap="round" stroke-linejoin="round" stroke-width="9.000000"
	d="
M483.000000,712.000000 
	C482.314270,716.639343 486.017822,717.772705 489.035828,719.172791 
	C490.840668,720.010071 492.999512,720.085632 495.000153,720.499268 
	C496.511658,720.811829 498.650909,721.237793 498.876007,722.521729 
	C500.187378,730.000977 506.741882,729.373718 511.532410,730.339172 
	C529.177124,733.895386 547.152100,735.308289 565.012817,737.390137 
	C574.812317,738.532349 584.563843,736.987305 593.972168,733.914856 
	C594.861572,733.624390 595.666992,733.668213 596.500000,733.500000 
"/>
<path fill="none" opacity="1.000000" stroke="#000000" stroke-linecap="round" stroke-linejoin="round" stroke-width="5.000000"
	d="
M1070.500000,1072.500000 
	C1048.452881,1056.235962 1030.946899,1035.576782 1014.608093,1013.918457 
	C1007.302185,1004.233948 1001.742493,993.221802 994.331665,983.630066 
	C987.456726,974.731689 984.164734,964.352905 979.315674,954.591553 
	C974.849487,945.601013 969.043152,937.280518 964.925232,928.033264 
	C963.373169,924.547913 963.025330,920.560547 960.500000,917.500000 
"/>
<path fill="none" opacity="1.000000" stroke="#000000" stroke-linecap="round" stroke-linejoin="round" stroke-width="8.000000"
	d="
M1435.500000,700.000000 
	C1430.295288,710.540588 1426.878418,721.838440 1421.929688,732.467285 
	C1415.002686,747.345581 1405.733154,760.822571 1396.042725,774.031311 
	C1390.186523,782.013611 1383.798706,789.572998 1378.380127,797.922241 
	C1371.931885,807.857849 1368.448486,817.876587 1372.963501,829.514160 
	C1373.244507,830.238464 1373.000000,831.166687 1373.000000,832.000000 
"/>
<path fill="none" opacity="1.000000" stroke="#000000" stroke-linecap="round" stroke-linejoin="round" stroke-width="3.000000"
	d="
M1059.500000,741.500000 
	C1044.323730,756.786621 1025.478271,765.220642 1004.991394,770.466492 
	C994.015625,773.276917 982.928711,775.589050 971.500000,775.500000 
"/>
<path fill="none" opacity="1.000000" stroke="#000000" stroke-linecap="round" stroke-linejoin="round" stroke-width="4.000000"
	d="
M887.000000,784.500000 
	C886.250000,785.361084 885.943970,786.333679 885.985474,787.500488 
	C886.827271,811.173462 884.993591,834.828674 885.502686,858.499939 
	C885.595947,862.833679 886.772339,867.166687 885.500000,871.500000 
"/>
<path fill="none" opacity="1.000000" stroke="#000000" stroke-linecap="round" stroke-linejoin="round" stroke-width="3.000000"
	d="
M845.500000,679.500000 
	C844.996887,682.474060 847.255920,683.934326 849.027466,685.468262 
	C861.061951,695.888489 874.218445,704.791443 887.516846,713.474243 
	C898.410278,720.586731 909.272522,727.767212 920.966370,733.567810 
	C921.814392,733.988525 922.472534,734.652100 923.500000,734.500000 
"/>
<path fill="none" opacity="1.000000" stroke="#000000" stroke-linecap="round" stroke-linejoin="round" stroke-width="5.000000"
	d="
M945.500000,818.500000 
	C959.513367,839.565918 977.519348,856.973206 995.927795,874.077698 
	C1003.858948,881.447021 1011.000000,889.666687 1018.500000,897.500000 
"/>
<path fill="none" opacity="1.000000" stroke="#000000" stroke-linecap="round" stroke-linejoin="round" stroke-width="5.000000"
	d="
M1048.500000,501.000000 
	C1050.480957,504.115692 1054.128662,504.457672 1057.036377,505.928070 
	C1071.484741,513.234375 1077.357788,525.841248 1079.539429,540.994324 
	C1080.671997,548.859863 1081.242065,556.708374 1079.458740,564.490540 
	C1076.529907,577.272583 1075.102539,590.361145 1071.499878,603.000000 
	C1071.333618,603.583435 1070.882446,604.262756 1071.042236,604.735779 
	C1073.962280,613.378540 1069.407715,621.530334 1069.406738,630.000000 
	C1069.406006,637.068237 1070.051636,644.066040 1071.134644,650.978882 
	C1071.907349,655.910706 1074.671997,657.250244 1079.500000,656.500000 
"/>
<path fill="none" opacity="1.000000" stroke="#000000" stroke-linecap="round" stroke-linejoin="round" stroke-width="4.000000"
	d="
M887.000000,922.500000 
	C886.500000,935.666687 886.546631,948.883362 885.346619,961.985962 
	C884.140686,975.153870 884.319702,988.341064 883.500000,1001.500000 
"/>
<path fill="none" opacity="1.000000" stroke="#000000" stroke-linecap="round" stroke-linejoin="round" stroke-width="8.000000"
	d="
M621.000000,702.500000 
	C624.161682,710.225281 629.233215,716.749451 633.942871,723.539612 
	C641.699890,734.723450 649.391541,745.933105 657.966248,756.527344 
	C665.780334,766.181885 674.622986,774.873596 683.017212,783.984131 
	C687.810852,789.186646 692.923157,794.067871 697.605164,799.407776 
	C704.089905,806.803467 705.535583,814.847351 703.010498,824.002869 
	C702.602478,825.482239 702.333374,827.000000 702.000061,828.500000 
"/>
<path fill="none" opacity="1.000000" stroke="#000000" stroke-linecap="round" stroke-linejoin="round" stroke-width="16.000000"
	d="
M1030.500000,1594.500000 
	C1030.500000,1619.166626 1030.500000,1643.833374 1030.500000,1668.500000 
"/>
<path fill="none" opacity="1.000000" stroke="#000000" stroke-linecap="round" stroke-linejoin="round" stroke-width="5.000000"
	d="
M1097.500000,1187.000000 
	C1095.718018,1190.188477 1096.260742,1193.529053 1096.404907,1197.003906 
	C1097.158447,1215.160767 1098.496582,1233.309692 1097.943604,1251.498291 
	C1097.835815,1255.041992 1098.415161,1258.545898 1098.730225,1261.978882 
	C1099.425903,1269.562012 1105.789185,1272.901123 1112.040649,1274.870850 
	C1129.924438,1280.505615 1141.622192,1292.610840 1149.442139,1309.027588 
	C1150.971191,1312.237061 1152.455322,1315.194336 1156.000000,1316.500000 
"/>
<path fill="none" opacity="1.000000" stroke="#000000" stroke-linecap="round" stroke-linejoin="round" stroke-width="3.000000"
	d="
M912.500000,688.500000 
	C918.709900,694.704895 923.742554,701.975586 929.722107,708.289612 
	C934.135803,712.950256 939.237000,717.083191 943.497803,722.001892 
	C953.001465,732.972839 961.918457,744.487854 973.005981,753.992981 
	C979.521790,759.578918 986.536194,764.225098 994.947205,766.680908 
	C996.508240,767.136719 997.984375,767.237061 999.500000,767.500000 
"/>
<path fill="none" opacity="1.000000" stroke="#000000" stroke-linecap="round" stroke-linejoin="round" stroke-width="4.000000"
	d="
M1007.500000,835.500000 
	C1014.545654,842.549927 1023.735413,846.324707 1032.022217,851.464111 
	C1046.136963,860.217834 1061.041382,867.431396 1076.500000,873.500000 
"/>
<path fill="none" opacity="1.000000" stroke="#000000" stroke-linecap="round" stroke-linejoin="round" stroke-width="3.000000"
	d="
M1343.500000,810.000000 
	C1331.252075,812.069519 1318.876709,813.170288 1306.497803,813.347473 
	C1297.842529,813.471375 1289.171631,812.089111 1280.497925,811.532959 
	C1276.223389,811.258911 1271.920654,811.311035 1268.000732,813.501221 
	C1257.904297,819.142334 1247.462891,824.088867 1237.018433,829.038757 
	C1233.760864,830.582581 1230.903076,832.794067 1229.000000,836.000000 
"/>
<path fill="none" opacity="1.000000" stroke="#000000" stroke-linecap="round" stroke-linejoin="round" stroke-width="4.000000"
	d="
M1112.000000,662.500000 
	C1111.298218,684.839844 1110.962524,707.176880 1112.500000,729.500000 
"/>
<path fill="none" opacity="1.000000" stroke="#000000" stroke-linecap="round" stroke-linejoin="round" stroke-width="3.000000"
	d="
M953.500000,1088.500000 
	C955.939514,1097.278687 960.465027,1105.182251 964.022095,1113.490601 
	C969.870544,1127.150879 976.505188,1140.475464 981.500000,1154.500000 
"/>
<path fill="none" opacity="1.000000" stroke="#000000" stroke-linecap="round" stroke-linejoin="round" stroke-width="5.000000"
	d="
M975.000000,657.500000 
	C974.296814,661.067749 976.846130,663.641663 978.126587,666.442139 
	C983.584351,678.378601 987.842529,690.770691 992.376953,703.045471 
	C994.283142,708.205627 996.410828,713.206970 999.114441,717.934509 
	C999.841125,719.205200 999.894348,720.268311 1000.000000,721.500000 
"/>
<path fill="none" opacity="1.000000" stroke="#000000" stroke-linecap="round" stroke-linejoin="round" stroke-width="3.000000"
	d="
M1379.500000,739.500000 
	C1368.233887,746.306519 1358.140137,754.685120 1348.001953,763.002380 
	C1336.856934,772.145630 1326.915039,782.575928 1316.500000,792.500000 
"/>
<path fill="none" opacity="1.000000" stroke="#000000" stroke-linecap="round" stroke-linejoin="round" stroke-width="3.000000"
	d="
M912.500000,1100.500000 
	C913.628845,1121.493896 913.238892,1142.560059 915.500000,1163.500000 
"/>
<path fill="none" opacity="1.000000" stroke="#000000" stroke-linecap="round" stroke-linejoin="round" stroke-width="3.000000"
	d="
M791.500000,719.500000 
	C801.405579,733.164856 811.706360,746.526733 822.520203,759.483154 
	C829.176208,767.457886 836.450867,774.865479 844.000000,782.000000 
"/>
<path fill="none" opacity="1.000000" stroke="#000000" stroke-linecap="round" stroke-linejoin="round" stroke-width="15.000000"
	d="
M951.500000,1622.000000 
	C958.998047,1636.834351 966.916565,1651.449707 974.171082,1666.417114 
	C976.598816,1671.425903 982.724243,1672.913696 987.500000,1675.500000 
"/>
<path fill="none" opacity="1.000000" stroke="#000000" stroke-linecap="round" stroke-linejoin="round" stroke-width="3.000000"
	d="
M1210.500000,697.500000 
	C1200.580078,716.992188 1186.625488,733.631165 1172.968750,750.474670 
	C1172.025879,751.637451 1170.812378,752.791443 1169.000000,752.500000 
"/>
<path fill="none" opacity="1.000000" stroke="#000000" stroke-linecap="round" stroke-linejoin="round" stroke-width="5.000000"
	d="
M877.000000,773.500000 
	C875.169128,776.098450 875.132080,779.135498 875.563782,781.990356 
	C877.548523,795.117065 876.834167,808.320068 877.018372,821.499756 
	C877.060303,824.501465 877.333374,827.500000 877.500000,830.500000 
"/>
<path fill="none" opacity="1.000000" stroke="#000000" stroke-linecap="round" stroke-linejoin="round" stroke-width="5.000000"
	d="
M1078.500000,756.500000 
	C1064.166626,768.000000 1049.877563,779.555847 1035.467285,790.958618 
	C1032.069824,793.647034 1028.846924,796.735657 1024.500000,798.000000 
"/>
<path fill="none" opacity="1.000000" stroke="#000000" stroke-linecap="round" stroke-linejoin="round" stroke-width="5.000000"
	d="
M1040.000000,488.000000 
	C1040.982544,496.203186 1036.809204,500.720123 1029.528809,503.573517 
	C1022.105713,506.482819 1014.593079,509.291718 1007.981567,513.973938 
	C1003.487915,517.156372 998.983398,520.672668 997.717590,526.051208 
	C996.716370,530.305725 995.708252,534.655273 995.060791,539.009033 
	C993.726868,547.979004 993.514465,556.842712 994.510498,566.052917 
	C995.225281,572.662170 994.943115,579.697876 995.599243,586.490417 
	C996.084473,591.513062 995.424622,597.261902 998.190918,601.371460 
	C1004.227051,610.338623 1008.196411,620.932434 1017.497070,627.504211 
	C1020.830139,629.859314 1024.269897,630.615845 1028.518433,630.180481 
	C1033.772949,629.641968 1039.196289,629.534851 1044.497925,630.511597 
	C1047.668213,631.095581 1049.915527,629.401855 1051.981323,627.479919 
	C1057.501343,622.344299 1062.368530,616.632690 1065.936768,609.966187 
	C1067.079712,607.830994 1068.222656,605.967041 1070.500000,605.000000 
"/>
<path fill="none" opacity="1.000000" stroke="#000000" stroke-linecap="round" stroke-linejoin="round" stroke-width="5.000000"
	d="
M1167.000000,1229.000000 
	C1160.811035,1230.239380 1156.140625,1234.040894 1151.475586,1237.971069 
	C1145.150513,1243.299927 1139.985718,1249.877686 1133.033936,1254.550415 
	C1127.064453,1258.562622 1120.655151,1260.629272 1113.500000,1260.500000 
"/>
<path fill="none" opacity="1.000000" stroke="#000000" stroke-linecap="round" stroke-linejoin="round" stroke-width="4.000000"
	d="
M761.500000,800.500000 
	C752.285522,802.832092 742.889771,804.354675 733.480286,805.305115 
	C728.611084,805.796997 723.487854,806.435730 718.448730,804.644165 
	C716.081299,803.802490 713.166687,804.500000 710.500000,804.500000 
"/>
<path fill="none" opacity="1.000000" stroke="#000000" stroke-linecap="round" stroke-linejoin="round" stroke-width="4.000000"
	d="
M1522.500000,699.000000 
	C1534.595337,698.813477 1546.490112,696.569031 1558.494873,695.445618 
	C1563.391968,694.987305 1568.192749,694.223328 1573.014282,695.960327 
	C1575.289673,696.780090 1577.611572,697.875122 1576.861450,700.459778 
	C1576.046509,703.267761 1572.919922,706.207336 1570.606934,705.243347 
	C1564.458740,702.680664 1558.637451,704.961975 1553.047241,705.810913 
	C1545.212036,707.000549 1537.289795,707.900452 1529.494385,709.472351 
	C1526.194458,710.137878 1522.833374,710.500000 1519.500000,711.000000 
"/>
<path fill="none" opacity="1.000000" stroke="#000000" stroke-linecap="round" stroke-linejoin="round" stroke-width="4.000000"
	d="
M533.500000,713.000000 
	C526.360718,714.449707 519.471680,712.392456 512.500183,711.498596 
	C504.200287,710.434326 495.888367,709.644043 487.499146,709.978455 
	C484.837952,710.084534 482.440826,711.876099 479.407043,710.164795 
	C477.257111,708.952087 476.119507,707.591858 476.083344,705.498535 
	C476.048065,703.455505 477.666748,702.208313 479.505432,701.514404 
	C482.406494,700.419617 485.023712,699.498230 488.551392,700.262817 
	C493.693481,701.377319 499.199341,701.014832 504.510986,701.237122 
	C512.510803,701.571899 520.447876,703.417419 528.500000,702.500000 
"/>
<path fill="none" opacity="1.000000" stroke="#000000" stroke-linecap="round" stroke-linejoin="round" stroke-width="5.000000"
	d="
M1284.500000,709.500000 
	C1283.312012,713.645325 1279.086182,714.755310 1276.414307,717.413940 
	C1264.808105,728.962524 1254.460693,741.555969 1244.497437,754.498047 
	C1243.919434,755.248840 1242.462769,755.129395 1242.500000,756.500000 
"/>
<path fill="none" opacity="1.000000" stroke="#000000" stroke-linecap="round" stroke-linejoin="round" stroke-width="3.000000"
	d="
M1218.500000,755.500000 
	C1207.458496,761.313782 1197.630981,769.042297 1186.985596,775.476257 
	C1181.678223,778.684021 1176.872314,782.741028 1171.000000,785.000000 
"/>
<path fill="none" opacity="1.000000" stroke="#000000" stroke-linecap="round" stroke-linejoin="round" stroke-width="3.000000"
	d="
M1029.500000,818.500000 
	C1042.407471,838.151917 1059.506226,852.911133 1081.018311,862.458679 
	C1083.214966,863.433533 1085.666626,863.833252 1088.000000,864.499939 
"/>
<path fill="none" opacity="1.000000" stroke="#000000" stroke-linecap="round" stroke-linejoin="round" stroke-width="4.000000"
	d="
M1525.000000,688.000000 
	C1528.937012,690.414001 1533.400146,689.912476 1537.480469,689.356812 
	C1545.994019,688.197449 1554.453857,687.699524 1563.000610,688.493896 
	C1566.650513,688.833191 1567.225586,691.248840 1567.000000,694.250000 
"/>
<path fill="none" opacity="1.000000" stroke="#000000" stroke-linecap="round" stroke-linejoin="round" stroke-width="5.000000"
	d="
M524.500000,690.000000 
	C522.764771,692.068848 520.409241,691.991455 518.000305,692.023804 
	C508.327850,692.153870 498.660797,691.720032 488.982880,692.853943 
	C484.600159,693.367432 483.491730,695.187561 484.000000,699.000000 
"/>
<path fill="none" opacity="1.000000" stroke="#000000" stroke-linecap="round" stroke-linejoin="round" stroke-width="4.000000"
	d="
M1571.000000,706.000000 
	C1570.616699,709.793396 1568.651123,712.384644 1564.994019,713.479980 
	C1559.755127,715.049133 1555.236572,717.952881 1548.964600,717.407776 
	C1542.793701,716.871460 1536.363892,719.841797 1529.991455,720.951233 
	C1523.553955,722.071960 1517.072510,723.039856 1510.500000,723.000000 
"/>
<path fill="none" opacity="1.000000" stroke="#000000" stroke-linecap="round" stroke-linejoin="round" stroke-width="5.000000"
	d="
M638.000000,733.000000 
	C632.955200,734.176880 627.981995,733.190247 623.000183,732.498657 
	C615.832825,731.503662 608.670532,730.471130 601.497864,729.516235 
	C599.116638,729.199280 598.296326,731.716125 596.405334,732.541321 
	C597.658081,736.682007 601.701477,736.410583 604.524475,736.838501 
	C616.237244,738.613953 627.954041,740.286804 639.505249,742.977478 
	C641.681030,743.484253 643.618713,742.474915 645.500000,741.500000 
"/>
<path fill="none" opacity="1.000000" stroke="#000000" stroke-linecap="round" stroke-linejoin="round" stroke-width="6.000000"
	d="
M981.500000,655.500000 
	C980.950806,659.684021 982.810364,661.322754 986.995850,661.570129 
	C997.508362,662.191467 1008.000000,663.166687 1018.500000,664.000000 
"/>
<path fill="none" opacity="1.000000" stroke="#000000" stroke-linecap="round" stroke-linejoin="round" stroke-width="8.000000"
	d="
M906.500000,1179.500000 
	C910.966125,1176.214722 915.325684,1178.756714 919.472717,1180.085205 
	C928.633850,1183.019775 936.913940,1187.980591 944.919617,1193.125122 
	C954.436646,1199.240845 964.169617,1204.933228 973.986694,1210.523315 
	C984.046570,1216.251587 993.904846,1222.338501 1004.030396,1227.945068 
	C1012.046448,1232.383789 1020.489502,1236.056641 1028.466797,1240.558838 
	C1043.887817,1249.262695 1060.909790,1252.133057 1077.990112,1255.057495 
	C1084.803833,1256.224243 1091.633301,1257.576050 1098.000000,1260.500000 
"/>
<path fill="none" opacity="1.000000" stroke="#000000" stroke-linecap="round" stroke-linejoin="round" stroke-width="3.000000"
	d="
M1044.000000,835.000000 
	C1048.784058,834.845459 1051.559204,838.858398 1055.457642,840.595032 
	C1065.133911,844.905334 1073.966064,851.101257 1084.500000,853.500000 
"/>
<path fill="none" opacity="1.000000" stroke="#000000" stroke-linecap="round" stroke-linejoin="round" stroke-width="4.000000"
	d="
M539.500000,724.000000 
	C528.853210,724.541626 518.448425,722.593994 507.990601,721.064209 
	C505.131653,720.645996 502.099091,720.672607 499.500000,722.500000 
"/>
<path fill="none" opacity="1.000000" stroke="#000000" stroke-linecap="round" stroke-linejoin="round" stroke-width="3.000000"
	d="
M1054.500000,816.000000 
	C1060.445435,820.572693 1065.789673,825.985107 1072.518433,829.464355 
	C1078.768799,832.696228 1084.570923,837.097839 1092.000000,837.500000 
"/>
<path fill="none" opacity="1.000000" stroke="#000000" stroke-linecap="round" stroke-linejoin="round" stroke-width="4.000000"
	d="
M1047.000000,544.000000 
	C1042.085083,547.151245 1042.939453,552.480225 1042.675049,557.010193 
	C1042.406128,561.617065 1041.629028,566.364624 1043.356323,571.052917 
	C1043.958618,572.687622 1043.087891,574.985657 1040.506714,575.531982 
	C1038.969849,575.857300 1037.500000,576.499939 1036.000000,576.999939 
"/>
<path fill="none" opacity="1.000000" stroke="#000000" stroke-linecap="round" stroke-linejoin="round" stroke-width="6.000000"
	d="
M1209.500000,842.500000 
	C1205.663696,839.557251 1201.386719,839.452148 1197.006470,840.771606 
	C1189.166992,843.133301 1181.185669,844.287476 1173.000000,844.000000 
"/>
<path fill="none" opacity="1.000000" stroke="#000000" stroke-linecap="round" stroke-linejoin="round" stroke-width="4.000000"
	d="
M1052.500000,638.500000 
	C1049.166748,645.666687 1046.218262,653.046448 1042.399536,659.944336 
	C1037.932617,668.012878 1027.851196,667.876648 1023.021301,659.986938 
	C1018.288757,652.256348 1014.737122,643.946533 1011.500000,635.500000 
"/>
<path fill="none" opacity="1.000000" stroke="#000000" stroke-linecap="round" stroke-linejoin="round" stroke-width="4.000000"
	d="
M1500.500000,712.500000 
	C1492.580322,708.606934 1484.765259,709.876953 1477.002319,713.005615 
	C1472.961914,714.633972 1468.793213,715.054321 1464.500000,714.500000 
"/>
<path fill="none" opacity="1.000000" stroke="#000000" stroke-linecap="round" stroke-linejoin="round" stroke-width="4.000000"
	d="
M1456.000000,736.000000 
	C1451.857422,730.298035 1446.350464,730.895508 1440.491089,732.466675 
	C1434.743042,734.008057 1429.131226,736.322998 1423.000000,736.000000 
"/>
<path fill="none" opacity="1.000000" stroke="#000000" stroke-linecap="round" stroke-linejoin="round" stroke-width="3.000000"
	d="
M906.000000,1047.000000 
	C907.536011,1048.885864 906.614319,1051.010254 906.462585,1052.997192 
	C905.889099,1060.504272 905.166687,1068.000000 904.500061,1075.500000 
"/>
<path fill="none" opacity="1.000000" stroke="#000000" stroke-linecap="round" stroke-linejoin="round" stroke-width="3.000000"
	d="
M1028.500000,545.000000 
	C1032.733765,550.603638 1030.543335,556.894470 1030.600830,562.999023 
	C1030.633911,566.501099 1028.057373,569.450256 1029.000000,573.000000 
"/>
<path fill="none" opacity="1.000000" stroke="#000000" stroke-linecap="round" stroke-linejoin="round" stroke-width="2.000000"
	d="
M1030.500000,501.000000 
	C1020.099426,499.384369 1011.724304,504.202698 1003.500000,509.500000 
"/>
<path fill="none" opacity="1.000000" stroke="#000000" stroke-linecap="round" stroke-linejoin="round" stroke-width="5.000000"
	d="
M1027.000000,543.750000 
	C1025.972412,543.215881 1024.967529,542.642883 1024.503418,541.498596 
	C1022.851257,537.424683 1019.950195,534.375732 1015.509216,534.649597 
	C1010.763916,534.942261 1005.919128,536.080566 1002.541260,540.035278 
	C1001.855591,540.837952 1001.951172,542.294250 1000.500000,542.500000 
"/>
<path fill="none" opacity="1.000000" stroke="#000000" stroke-linecap="round" stroke-linejoin="round" stroke-width="5.000000"
	d="
M1074.500000,662.500000 
	C1066.598022,664.568542 1058.522461,663.859497 1050.500000,664.000000 
"/>
<path fill="none" opacity="1.000000" stroke="#000000" stroke-linecap="round" stroke-linejoin="round" stroke-width="3.000000"
	d="
M931.500000,711.500000 
	C930.527588,712.666687 931.175476,714.228455 931.602051,714.938721 
	C935.765930,721.873779 940.166687,728.666687 944.500000,735.500000 
"/>
<path fill="none" opacity="1.000000" stroke="#000000" stroke-linecap="round" stroke-linejoin="round" stroke-width="8.000000"
	d="
M897.500000,1025.000000 
	C888.402954,1020.727112 881.284729,1025.754883 874.000000,1030.000000 
"/>
<path fill="none" opacity="1.000000" stroke="#000000" stroke-linecap="round" stroke-linejoin="round" stroke-width="3.000000"
	d="
M548.500000,704.500000 
	C555.161499,707.760376 561.449036,712.234009 569.499207,710.994934 
	C570.338318,710.865845 571.166687,710.666626 572.000000,710.500000 
"/>
<path fill="none" opacity="1.000000" stroke="#000000" stroke-linecap="round" stroke-linejoin="round" stroke-width="2.000000"
	d="
M1303.500000,816.500000 
	C1295.745117,816.847351 1288.086548,816.088074 1280.500000,814.500000 
"/>
<path fill="none" opacity="1.000000" stroke="#000000" stroke-linecap="round" stroke-linejoin="round" stroke-width="3.000000"
	d="
M1058.500000,710.500000 
	C1051.154297,709.969727 1043.738770,710.207275 1036.500000,708.500000 
"/>
<path fill="none" opacity="1.000000" stroke="#000000" stroke-linecap="round" stroke-linejoin="round" stroke-width="3.000000"
	d="
M1089.500000,714.000000 
	C1086.446777,714.073547 1084.540527,716.105103 1082.484863,717.983398 
	C1077.866699,722.203186 1073.166626,726.333374 1068.500000,730.500000 
"/>
<path fill="none" opacity="1.000000" stroke="#000000" stroke-linecap="round" stroke-linejoin="round" stroke-width="3.000000"
	d="
M1063.500000,504.500000 
	C1071.319336,508.014008 1078.093018,512.573669 1080.500000,521.500000 
"/>
<path fill="none" opacity="1.000000" stroke="#000000" stroke-linecap="round" stroke-linejoin="round" stroke-width="6.000000"
	d="
M1050.500000,591.500000 
	C1046.483398,586.984680 1041.818604,585.279663 1035.480835,585.731995 
	C1030.124512,586.114197 1024.865479,585.305542 1019.931641,588.390686 
	C1018.536072,589.263245 1017.436340,589.936340 1017.000000,591.500000 
"/>
<path fill="none" opacity="1.000000" stroke="#000000" stroke-linecap="round" stroke-linejoin="round" stroke-width="3.000000"
	d="
M1024.500000,591.500000 
	C1030.770996,593.018311 1037.144775,592.582520 1043.500000,592.500000 
"/>
<path fill="none" opacity="1.000000" stroke="#000000" stroke-linecap="round" stroke-linejoin="round" stroke-width="5.000000"
	d="
M1023.000000,540.000000 
	C1020.033142,540.631348 1017.039673,540.894043 1014.005554,541.087036 
	C1011.082703,541.273010 1008.422424,542.583740 1006.307800,545.243103 
	C1011.132812,550.769653 1016.926575,550.153931 1023.000000,548.000000 
"/>
<path fill="none" opacity="1.000000" stroke="#000000" stroke-linecap="round" stroke-linejoin="round" stroke-width="3.000000"
	d="
M1005.500000,582.500000 
	C1001.511597,578.118408 1000.407043,571.747986 995.500000,568.000000 
"/>
<path fill="none" opacity="1.000000" stroke="#000000" stroke-linecap="round" stroke-linejoin="round" stroke-width="3.000000"
	d="
M1076.500000,573.500000 
	C1074.683105,573.453796 1073.326050,573.745972 1071.889771,575.404541 
	C1069.326538,578.364624 1067.752930,582.127441 1064.500000,584.500000 
"/>
<path fill="none" opacity="1.000000" stroke="#000000" stroke-linecap="round" stroke-linejoin="round" stroke-width="3.000000"
	d="
M1055.000000,549.500000 
	C1059.028320,553.125122 1063.230469,552.406128 1067.500000,550.000000 
"/>
<path fill="none" opacity="1.000000" stroke="#000000" stroke-linecap="round" stroke-linejoin="round" stroke-width="2.000000"
	d="
M1387.500000,806.500000 
	C1385.231689,810.491882 1380.939575,812.662354 1378.500000,816.500000 
"/>
<path fill="none" opacity="1.000000" stroke="#000000" stroke-linecap="round" stroke-linejoin="round" stroke-width="11.000000"
	d="
M1070.500000,541.500000 
	C1065.139038,536.746887 1059.467285,540.275818 1054.025146,541.155396 
	C1051.893311,541.499939 1049.734375,542.695496 1047.500000,543.250000 
"/>
<path fill="none" opacity="1.000000" stroke="#000000" stroke-linecap="round" stroke-linejoin="round" stroke-width="4.000000"
	d="
M1060.500000,540.500000 
	C1061.227539,542.439148 1062.850342,543.499573 1064.506348,544.489319 
	C1066.478882,545.668274 1069.284058,546.139465 1068.500000,549.500000 
"/>
<path fill="none" opacity="1.000000" stroke="#000000" stroke-linecap="round" stroke-linejoin="round" stroke-width="3.000000"
	d="
M1029.000000,622.000000 
	C1025.695190,624.103821 1027.695801,626.914978 1028.000000,629.500000 
"/>
<path fill="none" opacity="1.000000" stroke="#000000" stroke-linecap="round" stroke-linejoin="round" stroke-width="3.000000"
	d="
M1453.000000,698.500000 
	C1453.500000,701.166687 1454.000000,703.833313 1454.500000,706.500000 
"/>
<path fill="none" opacity="1.000000" stroke="#000000" stroke-linecap="round" stroke-linejoin="round" stroke-width="6.000000"
	d="
M1027.500000,573.500000 
	C1033.906738,574.283386 1035.062256,575.396973 1036.019409,581.496948 
	C1036.218872,582.767944 1036.666748,584.000000 1037.000000,585.250000 
"/>
</svg>