<svg version="1.1" id="Layer_1" xmlns="http://www.w3.org/2000/svg" xmlns:xlink="http://www.w3.org/1999/xlink" x="0px" y="0px"
	 width="100%" viewBox="0 0 2048 2048" enable-background="new 0 0 2048 2048" xml:space="preserve">
<path fill="none" opacity="1.000000" stroke="#000000" stroke-linecap="round" stroke-linejoin="round" stroke-width="4.000000"
	d="
M1098.500000,531.500000 
	C1111.659302,539.628906 1117.581299,552.882874 1122.370850,566.545288 
	C1127.736938,581.851379 1128.825195,598.005493 1127.295776,613.980469 
	C1125.590942,631.790161 1121.226318,649.191345 1116.660400,666.542236 
	C1112.063721,684.010315 1107.499146,701.468262 1101.443481,718.479858 
	C1095.536987,735.072510 1089.416626,751.598816 1082.941650,767.976929 
	C1073.152588,792.738342 1065.501221,817.998108 1061.901733,844.486633 
	C1059.213501,864.268860 1057.946655,884.085571 1058.665161,903.994019 
	C1058.822876,908.362488 1058.029907,912.999756 1060.092285,917.906433 
	C1066.522705,911.601257 1074.052612,907.633240 1082.020386,904.552734 
	C1088.740845,901.954407 1095.741089,900.529907 1102.984375,899.836548 
	C1107.246460,899.428589 1112.117432,899.598206 1115.462891,895.965820 
	C1117.032227,894.261963 1119.057007,895.208252 1120.500977,895.200806 
	C1132.621460,895.138489 1144.580933,896.549255 1156.000000,901.000000 
"/>
<path fill="none" opacity="1.000000" stroke="#000000" stroke-linecap="round" stroke-linejoin="round" stroke-width="5.000000"
	d="
M902.500000,880.000000 
	C899.519226,875.098022 893.930847,874.069885 889.428162,871.632751 
	C878.766785,865.862061 867.171814,862.777039 854.998596,862.592468 
	C851.178711,862.534485 847.332275,863.089111 843.469360,863.842896 
	C833.231750,865.840576 828.594055,880.932312 836.977112,889.522339 
	C857.849792,910.910461 872.003845,936.526062 882.940063,964.023804 
	C890.210571,982.304565 895.998596,1001.116760 901.451599,1020.013977 
	C902.976685,1025.299072 907.333618,1028.914185 908.658325,1034.462158 
	C911.591980,1046.749268 914.760376,1058.942017 916.607849,1071.484131 
	C918.175354,1082.125488 919.551392,1092.832764 919.290283,1103.494873 
	C918.963318,1116.846802 918.517456,1130.254639 916.249146,1143.542480 
	C915.661926,1146.982666 913.779480,1150.747559 915.500000,1154.500000 
"/>
<path fill="none" opacity="1.000000" stroke="#000000" stroke-linecap="round" stroke-linejoin="round" stroke-width="4.000000"
	d="
M1156.000000,568.500000 
	C1159.943726,580.918274 1162.731689,593.548401 1164.664917,606.475342 
	C1166.908691,621.479614 1166.942627,636.510803 1166.264404,651.489319 
	C1165.812256,661.476257 1165.169434,671.544067 1163.629639,681.520020 
	C1162.332764,689.922729 1162.254395,698.508057 1161.477051,706.997925 
	C1160.575684,716.840271 1159.539185,726.670837 1158.490723,736.499023 
	C1156.859619,751.790771 1155.852661,767.106934 1155.971680,782.500244 
	C1156.097778,798.832581 1155.377808,815.196289 1156.152832,831.492737 
	C1157.191040,853.325378 1156.398193,875.239807 1158.987671,897.001465 
	C1159.085449,897.823120 1159.352417,898.946960 1158.946533,899.457458 
	C1153.986572,905.694641 1155.847046,913.042847 1155.538696,920.001709 
	C1155.273193,925.995911 1155.908936,932.020630 1155.000000,938.000000 
"/>
<path fill="none" opacity="1.000000" stroke="#000000" stroke-linecap="round" stroke-linejoin="round" stroke-width="5.000000"
	d="
M1138.500000,576.500000 
	C1141.355103,582.687256 1141.925781,589.415710 1142.955688,596.006958 
	C1144.456543,605.612305 1143.991455,615.323120 1143.993408,625.000000 
	C1143.996460,639.323120 1141.843994,653.387024 1139.696045,667.529785 
	C1137.014526,685.185425 1133.239014,702.578918 1129.478882,719.995422 
	C1126.415649,734.184387 1122.630859,748.240540 1120.157593,762.527283 
	C1117.897339,775.584167 1116.262329,788.769104 1114.843628,801.983215 
	C1112.607544,822.810608 1112.931274,843.652222 1113.098267,864.499207 
	C1113.178711,874.538757 1114.505859,884.549438 1116.000000,894.500000 
"/>
<path fill="none" opacity="1.000000" stroke="#000000" stroke-linecap="round" stroke-linejoin="round" stroke-width="5.000000"
	d="
M1180.500000,577.500000 
	C1185.246582,585.719666 1186.813110,595.006775 1188.897705,604.023621 
	C1194.517822,628.334229 1196.840210,653.022888 1197.149414,677.998169 
	C1197.345459,693.832642 1197.453857,709.667236 1197.439819,725.499939 
	C1197.431030,735.333557 1197.052979,745.181030 1196.412109,754.994263 
	C1196.064209,760.322815 1197.986572,765.309509 1197.961182,770.499817 
	C1197.837891,795.674072 1199.284790,820.818604 1199.148438,846.000793 
	C1199.081055,858.496155 1199.814209,870.998596 1199.033325,883.502075 
	C1198.951050,884.819824 1199.333374,886.166687 1199.500000,887.500000 
"/>
<path fill="none" opacity="1.000000" stroke="#000000" stroke-linecap="round" stroke-linejoin="round" stroke-width="5.000000"
	d="
M1081.000000,571.500000 
	C1090.931763,585.799255 1092.605103,601.613281 1090.601929,618.512085 
	C1086.618652,652.115234 1071.609985,680.667908 1052.109253,707.579102 
	C1037.583130,727.625244 1017.769775,740.217896 995.992249,750.483521 
	C989.787903,753.408081 984.400269,756.959412 980.364807,762.908264 
	C975.182678,770.547302 967.778381,776.270813 961.024414,782.526306 
	C952.770630,790.170959 942.676514,793.979736 931.976013,795.863831 
	C920.582581,797.870056 908.866516,798.316284 897.536072,795.835327 
	C885.225220,793.139648 877.153137,784.911255 873.016907,772.994141 
	C870.746338,766.452454 869.888550,759.759277 872.025879,753.008179 
	C873.695801,747.733215 876.084656,745.986694 881.499878,746.022156 
	C889.834290,746.076843 898.163635,745.855164 906.503479,746.451660 
	C927.118896,747.926086 946.185974,742.483398 963.912720,732.347412 
	C967.367249,730.372192 971.177917,729.681702 974.587524,727.646667 
	C978.516357,725.301880 980.797180,722.478210 981.536194,718.005981 
	C983.738159,704.680481 977.309204,691.673096 962.016907,690.310120 
	C957.340881,689.893372 952.938232,689.166260 948.500000,691.000000 
"/>
<path fill="none" opacity="1.000000" stroke="#000000" stroke-linecap="round" stroke-linejoin="round" stroke-width="5.000000"
	d="
M1205.500000,545.000000 
	C1211.114380,535.449951 1214.998291,518.943420 1213.481079,510.899780 
	C1209.666626,509.694946 1205.827637,510.949554 1202.000977,511.039520 
	C1177.295288,511.620209 1153.982910,505.841125 1131.490479,496.021820 
	C1118.140137,490.193573 1104.243164,485.842407 1089.977783,483.116028 
	C1071.179565,479.523346 1052.038452,479.088165 1033.014282,480.236481 
	C1023.783508,480.793701 1014.589233,483.666626 1005.430420,485.034088 
	C997.594849,486.203949 989.805054,487.126434 982.541992,490.102478 
	C971.851379,494.482971 960.873962,498.141724 951.382935,505.345764 
	C942.619385,511.997620 936.967102,520.799072 932.230530,530.117188 
	C929.149780,536.177795 925.694885,540.181580 919.037903,542.129578 
	C909.122620,545.030945 899.649658,549.144714 891.996704,556.496521 
	C887.151672,561.150879 886.297791,567.332336 885.544495,573.505432 
	C885.263062,575.811646 886.905518,576.705566 888.998047,577.013489 
	C893.409973,577.662659 897.882690,578.214966 901.000000,582.000000 
"/>
<path fill="none" opacity="1.000000" stroke="#000000" stroke-linecap="round" stroke-linejoin="round" stroke-width="5.000000"
	d="
M1169.500000,522.500000 
	C1185.729858,530.199524 1200.721802,539.763855 1212.953613,553.042786 
	C1230.969360,572.601074 1243.024414,595.553162 1250.514893,620.995605 
	C1254.384521,634.139221 1257.143555,647.518066 1259.516968,660.997009 
	C1263.714355,684.834167 1266.507568,708.995422 1275.509277,731.746338 
	C1276.607910,734.523254 1277.554321,737.418762 1279.084473,739.948914 
	C1280.412842,742.145569 1279.923218,744.293884 1280.000000,746.500000 
"/>
<path fill="none" opacity="1.000000" stroke="#000000" stroke-linecap="round" stroke-linejoin="round" stroke-width="6.000000"
	d="
M1111.500000,583.500000 
	C1111.535400,600.772949 1111.350708,617.911682 1107.714478,635.045532 
	C1102.884644,657.804626 1093.406738,678.622803 1082.835205,698.914185 
	C1066.339600,730.576660 1048.038818,761.239624 1027.485474,790.489746 
	C1019.093933,802.431946 1009.595337,813.473938 999.492493,823.992798 
	C986.510071,837.509644 972.354248,849.898987 960.504272,864.503479 
	C949.315063,878.293457 938.976196,892.585571 933.972473,909.992065 
	C933.858521,910.388550 933.333374,910.666687 933.000000,911.000000 
"/>
<path fill="none" opacity="1.000000" stroke="#000000" stroke-linecap="round" stroke-linejoin="round" stroke-width="4.000000"
	d="
M881.000000,728.500000 
	C878.801331,726.282715 876.871399,728.136536 875.013062,729.027161 
	C852.562988,739.786743 835.814575,756.495911 823.455139,777.974182 
	C812.483398,797.041077 805.557617,817.424805 801.382080,838.977173 
	C798.204773,855.376953 796.805786,871.886414 796.006287,888.500305 
	C795.797852,892.831604 795.666687,897.166687 795.500000,901.500000 
"/>
<path fill="none" opacity="1.000000" stroke="#000000" stroke-linecap="round" stroke-linejoin="round" stroke-width="12.000000"
	d="
M654.500000,1526.500000 
	C649.359009,1529.127930 645.334961,1525.914429 640.987244,1524.029419 
	C631.875610,1520.078979 622.585938,1518.961182 612.989624,1522.471680 
	C605.776428,1525.110352 601.898315,1530.499146 601.500061,1539.000000 
	C601.182739,1545.772949 604.300964,1550.129517 611.487610,1553.526245 
	C619.482483,1557.304932 628.438354,1557.961060 636.515198,1561.464966 
	C639.395874,1562.714722 642.403931,1563.513916 645.033508,1565.454590 
	C656.191528,1573.690430 653.515686,1589.857666 640.987549,1594.969482 
	C628.979004,1599.869385 617.127930,1598.496704 606.093689,1592.332275 
	C601.533325,1589.784546 597.347961,1588.954468 592.500000,1590.000000 
"/>
<path fill="none" opacity="1.000000" stroke="#000000" stroke-linecap="round" stroke-linejoin="round" stroke-width="5.000000"
	d="
M1250.000000,1057.000000 
	C1233.166626,1050.666626 1216.386108,1044.188354 1199.484253,1038.043457 
	C1184.575562,1032.623413 1169.531494,1027.575684 1154.826660,1022.460754 
	C1153.484985,1012.022095 1154.202026,1001.440247 1152.562622,990.990173 
	C1152.286011,989.226440 1152.968140,987.334045 1152.978271,985.499878 
	C1153.046753,973.157043 1152.672729,960.827148 1152.107178,948.495056 
	C1151.954834,945.172668 1153.109619,941.790283 1153.682617,938.325073 
	C1156.393433,939.071045 1157.014038,940.740295 1157.020508,942.999939 
	C1157.062378,957.563354 1159.156982,971.988098 1160.103516,986.493225 
	C1160.682373,995.366821 1163.036133,1004.072083 1163.516235,1012.999146 
	C1163.629517,1015.106384 1165.145142,1015.642212 1166.993164,1016.032593 
	C1188.319580,1020.537659 1209.489136,1025.750488 1230.465454,1031.623413 
	C1246.343872,1036.068970 1262.820923,1037.767822 1278.538208,1042.882446 
	C1282.413452,1044.143555 1286.958740,1043.164917 1290.500000,1046.000000 
"/>
<path fill="none" opacity="1.000000" stroke="#000000" stroke-linecap="round" stroke-linejoin="round" stroke-width="13.000000"
	d="
M1102.000000,1567.500000 
	C1112.331543,1567.222656 1122.671753,1567.988770 1133.002686,1567.029053 
	C1143.966675,1566.010742 1153.034180,1559.045288 1154.485107,1547.498169 
	C1155.864990,1536.516113 1148.940430,1525.564941 1138.472778,1522.595947 
	C1135.652466,1521.796021 1132.501099,1522.050781 1129.499756,1522.022949 
	C1122.000488,1521.953613 1114.499512,1521.946533 1107.000122,1522.017334 
	C1101.283569,1522.071289 1100.056152,1523.283569 1100.018677,1529.000122 
	C1099.952148,1539.166260 1099.464355,1549.369019 1100.137817,1559.490845 
	C1100.949951,1571.696167 1099.183960,1583.833374 1100.000000,1596.000000 
"/>
<path fill="none" opacity="1.000000" stroke="#000000" stroke-linecap="round" stroke-linejoin="round" stroke-width="5.000000"
	d="
M1005.000000,1007.500000 
	C1005.201294,1009.351257 1006.759216,1010.120972 1008.019775,1010.970642 
	C1022.588684,1020.790771 1028.426392,1034.861450 1029.099365,1051.996094 
	C1029.886475,1072.032104 1021.823975,1089.067383 1011.919250,1105.451172 
	C1002.633179,1120.811646 991.329407,1134.943848 983.936401,1151.471558 
	C983.611877,1152.196899 983.600708,1152.816895 983.500000,1153.500000 
"/>
<path fill="none" opacity="1.000000" stroke="#000000" stroke-linecap="round" stroke-linejoin="round" stroke-width="3.000000"
	d="
M902.500000,712.000000 
	C889.484436,711.511414 877.334229,715.426758 865.540955,720.103271 
	C842.995850,729.043396 823.118469,742.209229 806.522217,760.020691 
	C792.840576,774.704163 782.398987,791.599304 773.499817,809.499878 
	C773.168030,810.167297 772.833374,810.833374 772.500061,811.500000 
"/>
<path fill="none" opacity="1.000000" stroke="#000000" stroke-linecap="round" stroke-linejoin="round" stroke-width="5.000000"
	d="
M1233.000000,881.000000 
	C1236.833374,884.666687 1240.690674,888.308655 1244.490479,892.009827 
	C1246.576782,894.041931 1247.320312,896.682739 1247.494629,899.500305 
	C1248.368652,913.626770 1250.455688,927.636719 1253.151123,941.470581 
	C1257.859863,965.638977 1266.315674,988.494202 1279.438477,1009.538391 
	C1286.168091,1020.330383 1293.150757,1030.894287 1301.538940,1040.465942 
	C1302.957886,1042.085083 1301.882935,1045.660278 1305.500000,1045.500000 
"/>
<path fill="none" opacity="1.000000" stroke="#000000" stroke-linecap="round" stroke-linejoin="round" stroke-width="5.000000"
	d="
M1221.500000,590.500000 
	C1225.891846,602.956726 1229.903809,615.594360 1232.304688,628.536194 
	C1234.625244,641.045288 1236.104004,653.740967 1237.131104,666.489441 
	C1238.607178,684.811584 1239.413696,703.132568 1239.507324,721.499939 
	C1239.513550,722.718933 1239.632080,723.560120 1240.886475,724.632812 
	C1243.697266,727.036560 1246.923950,729.073547 1250.077881,730.299683 
	C1260.877686,734.498535 1269.708862,742.028870 1279.988159,747.024292 
	C1280.261841,747.157349 1280.360107,747.651917 1280.531128,747.961487 
	C1278.001587,750.980347 1274.696533,751.620361 1270.999268,751.533447 
	C1265.502197,751.404236 1260.000000,751.500000 1254.500000,751.500000 
"/>
<path fill="none" opacity="1.000000" stroke="#000000" stroke-linecap="round" stroke-linejoin="round" stroke-width="3.000000"
	d="
M1065.500000,561.000000 
	C1070.144531,553.437439 1073.728271,545.577454 1074.642212,536.514343 
	C1075.117676,531.799683 1073.743408,527.700989 1072.397705,523.533020 
	C1071.657227,521.239319 1069.631836,520.419800 1067.503418,522.503479 
	C1064.432129,525.510071 1061.913696,528.932922 1059.427734,532.448914 
	C1054.643799,539.214966 1050.783447,546.433350 1047.160156,553.676636 
	C1049.033325,555.933472 1051.485718,556.038940 1053.511963,556.974121 
	C1059.277466,559.635132 1065.690796,561.002747 1069.638428,566.907471 
	C1070.923706,568.829956 1073.697021,570.057129 1076.043091,570.876465 
	C1077.921753,571.532471 1080.284058,571.245178 1081.491455,568.995422 
	C1091.610107,550.140991 1092.543091,530.732117 1084.422485,511.031952 
	C1081.421387,503.751312 1076.523071,501.144501 1068.042114,505.090546 
	C1057.299072,510.089111 1050.084351,519.314148 1042.494019,527.994751 
	C1037.453247,533.759766 1034.012817,540.565491 1030.000000,547.000000 
"/>
<path fill="none" opacity="1.000000" stroke="#000000" stroke-linecap="round" stroke-linejoin="round" stroke-width="5.000000"
	d="
M1250.000000,731.000000 
	C1248.531372,733.755188 1250.801025,735.753418 1251.562500,737.978638 
	C1254.184326,745.639832 1253.737183,753.656555 1254.406494,761.507996 
	C1256.079224,781.126221 1257.631226,800.746765 1262.024658,819.994385 
	C1265.101074,833.472168 1270.422852,846.217957 1275.602661,858.958252 
	C1279.221558,867.859192 1283.958374,876.302368 1289.112305,884.428711 
	C1290.288574,886.283142 1290.793091,887.999451 1291.000000,890.000000 
"/>
<path fill="none" opacity="1.000000" stroke="#000000" stroke-linecap="round" stroke-linejoin="round" stroke-width="13.000000"
	d="
M1323.000000,1565.000000 
	C1331.664673,1564.729980 1340.349854,1565.573853 1349.001587,1564.513306 
	C1349.822632,1564.412598 1350.738525,1564.286255 1351.487183,1564.538086 
	C1354.301025,1565.485107 1356.575317,1567.042480 1360.088135,1565.164917 
	C1367.020508,1561.459595 1374.879883,1558.898315 1377.423950,1550.477051 
	C1381.927124,1535.570557 1373.258911,1523.749512 1360.001221,1522.486572 
	C1349.009277,1521.439209 1337.999268,1522.167114 1326.999390,1522.060669 
	C1322.355347,1522.015869 1321.078003,1523.552979 1321.028320,1528.500244 
	C1320.931396,1538.165894 1320.164185,1547.931641 1321.285400,1557.466431 
	C1322.070312,1564.140381 1320.731079,1570.494385 1320.953125,1577.001587 
	C1321.168945,1583.327637 1321.000000,1589.666626 1321.000000,1596.000000 
"/>
<path fill="none" opacity="1.000000" stroke="#000000" stroke-linecap="round" stroke-linejoin="round" stroke-width="3.000000"
	d="
M798.500000,805.500000 
	C793.636841,816.630737 789.102234,827.903564 785.554871,839.516724 
	C781.250732,853.607422 778.002502,867.942139 775.345703,882.471802 
	C771.766846,902.044189 769.696533,921.769592 767.500000,941.500000 
"/>
<path fill="none" opacity="1.000000" stroke="#000000" stroke-linecap="round" stroke-linejoin="round" stroke-width="13.000000"
	d="
M932.000000,1535.500000 
	C932.510254,1529.382080 930.362061,1525.645752 924.060974,1523.333862 
	C910.521667,1518.366089 897.369019,1518.282471 885.622253,1526.671143 
	C872.951721,1535.719360 867.942932,1548.653198 869.341797,1564.513916 
	C870.668457,1579.556641 884.006042,1595.706909 901.471741,1597.742554 
	C913.496643,1599.144165 923.671143,1596.278198 933.547424,1590.075439 
	C936.431152,1588.264282 937.174133,1586.137085 937.055359,1582.997925 
	C936.853821,1577.672119 937.048401,1572.332764 936.986023,1567.000122 
	C936.927246,1561.979614 935.636719,1560.626343 930.499451,1560.528809 
	C924.168396,1560.408569 917.833313,1560.500000 911.500000,1560.500000 
"/>
<path fill="none" opacity="1.000000" stroke="#000000" stroke-linecap="round" stroke-linejoin="round" stroke-width="4.000000"
	d="
M961.000000,1017.000000 
	C962.351929,1025.608154 965.679138,1033.669678 968.110596,1041.967529 
	C972.431335,1056.712646 975.164917,1071.682495 974.881836,1086.997803 
	C974.614319,1101.471191 972.877258,1115.848877 969.563660,1130.014893 
	C968.024536,1136.594360 967.166687,1143.333374 966.000000,1150.000000 
"/>
<path fill="none" opacity="1.000000" stroke="#000000" stroke-linecap="round" stroke-linejoin="round" stroke-width="5.000000"
	d="
M1226.500000,905.500000 
	C1226.709717,926.155579 1230.073853,946.359985 1234.375610,966.526550 
	C1238.943237,987.938843 1247.012695,1007.969299 1256.638306,1027.431641 
	C1258.988770,1032.184204 1259.968140,1036.657593 1258.424927,1041.475952 
	C1256.741821,1046.731079 1255.593872,1052.361084 1251.463257,1056.463013 
	C1249.858154,1058.056763 1250.375732,1059.877441 1250.568237,1061.491821 
	C1251.940552,1073.007080 1253.564575,1084.492188 1254.960693,1096.004761 
	C1255.381348,1099.473999 1255.152954,1103.020020 1255.538940,1106.495728 
	C1256.258423,1112.974854 1251.259277,1116.479126 1247.841431,1120.360352 
	C1242.386230,1126.555298 1234.829224,1128.957520 1226.500000,1128.500000 
"/>
<path fill="none" opacity="1.000000" stroke="#000000" stroke-linecap="round" stroke-linejoin="round" stroke-width="4.000000"
	d="
M759.000000,907.000000 
	C756.227966,918.554260 754.187622,930.247559 752.521851,942.003113 
	C751.083313,952.154846 749.455811,962.303284 748.643799,972.511414 
	C748.168640,978.484619 747.957275,984.504028 747.556030,990.503723 
	C746.854736,1000.990295 746.360168,1011.495972 746.057312,1022.001648 
	C745.899048,1027.492310 746.333313,1033.000000 746.500000,1038.500000 
"/>
<path fill="none" opacity="1.000000" stroke="#000000" stroke-linecap="round" stroke-linejoin="round" stroke-width="5.000000"
	d="
M1067.500000,1246.500000 
	C1085.411011,1247.204102 1099.859009,1240.881958 1108.920898,1224.954956 
	C1116.242798,1212.085938 1115.981201,1198.416626 1108.328125,1186.106812 
	C1093.608521,1162.430542 1071.114380,1154.293335 1043.990967,1155.841553 
	C1033.029541,1156.467041 1022.662720,1158.851074 1012.526550,1162.572266 
	C1006.324951,1164.849121 1000.567505,1168.148071 995.500000,1172.500000 
"/>
<path fill="none" opacity="1.000000" stroke="#000000" stroke-linecap="round" stroke-linejoin="round" stroke-width="4.000000"
	d="
M884.500000,903.500000 
	C897.271790,912.671143 904.967102,925.728882 911.420715,939.537048 
	C917.815308,953.218750 923.285156,967.391907 926.737488,982.061768 
	C928.718323,990.479187 933.297180,998.025574 933.631775,1006.995056 
	C934.189514,1021.946899 940.450989,1035.678467 943.975159,1050.006104 
	C947.487427,1064.285278 949.648254,1078.744873 950.068237,1093.498047 
	C950.527039,1109.616577 949.384949,1125.580688 947.053345,1141.507812 
	C946.524353,1145.121460 946.666626,1148.833374 946.499939,1152.500000 
"/>
<path fill="none" opacity="1.000000" stroke="#000000" stroke-linecap="round" stroke-linejoin="round" stroke-width="4.000000"
	d="
M1195.000000,765.500000 
	C1192.030762,770.676392 1193.217041,776.605469 1192.828613,782.023560 
	C1192.077026,792.508972 1190.826782,802.969360 1190.378784,813.494812 
	C1189.930664,824.018311 1188.018066,834.482117 1187.628052,845.004761 
	C1187.189819,856.830200 1185.875732,868.633850 1186.462280,880.501892 
	C1186.692261,885.157166 1186.500000,889.833313 1186.500000,894.500000 
"/>
<path fill="none" opacity="1.000000" stroke="#000000" stroke-linecap="round" stroke-linejoin="round" stroke-width="5.000000"
	d="
M1289.500000,1403.500000 
	C1283.195557,1404.765625 1276.815796,1403.988892 1270.501343,1403.902954 
	C1247.151978,1403.585205 1223.836426,1405.958496 1200.504761,1404.895874 
	C1188.144653,1404.333130 1175.833374,1404.901855 1163.500000,1405.000000 
"/>
<path fill="none" opacity="1.000000" stroke="#000000" stroke-linecap="round" stroke-linejoin="round" stroke-width="4.000000"
	d="
M1001.500000,765.500000 
	C988.172485,780.839172 972.991638,794.323303 958.524414,808.524841 
	C943.001953,823.762268 929.311218,840.317566 922.513428,861.504333 
	C920.220276,868.651306 918.815552,875.998169 918.566284,883.502197 
	C918.489075,885.826599 917.967346,887.766907 916.500000,889.500000 
"/>
<path fill="none" opacity="1.000000" stroke="#000000" stroke-linecap="round" stroke-linejoin="round" stroke-width="4.000000"
	d="
M1047.500000,1428.000000 
	C1029.000000,1427.666626 1010.491394,1427.566650 992.004272,1426.884399 
	C984.663269,1426.613525 977.333679,1426.628662 969.999756,1426.515259 
	C955.833862,1426.296265 941.666687,1426.166626 927.500000,1425.999878 
"/>
<path fill="none" opacity="1.000000" stroke="#000000" stroke-linecap="round" stroke-linejoin="round" stroke-width="6.000000"
	d="
M1061.000000,918.500000 
	C1063.600098,921.880310 1062.473511,925.830872 1062.427734,929.499084 
	C1062.230713,945.282043 1065.259888,960.801575 1065.755737,977.207642 
	C1061.770020,980.471985 1056.452759,982.735046 1051.465210,985.435852 
	C1037.794312,992.838806 1023.563843,999.035278 1009.013306,1004.535156 
	C993.795105,1010.287415 978.040222,1013.935669 961.976196,1015.794434 
	C954.604309,1016.647583 947.028564,1017.619934 939.500000,1016.500000 
"/>
<path fill="none" opacity="1.000000" stroke="#000000" stroke-linecap="round" stroke-linejoin="round" stroke-width="5.000000"
	d="
M1098.500000,1414.000000 
	C1100.099976,1415.866821 1102.217773,1416.027344 1104.500000,1416.023560 
	C1127.666626,1415.985107 1150.836792,1416.234009 1173.998535,1415.896729 
	C1184.840698,1415.739014 1195.665283,1415.195923 1206.502197,1415.968628 
	C1207.485352,1416.038574 1208.500000,1415.666748 1209.500000,1415.500122 
"/>
<path fill="none" opacity="1.000000" stroke="#000000" stroke-linecap="round" stroke-linejoin="round" stroke-width="6.000000"
	d="
M940.000000,1163.000000 
	C934.489624,1155.448486 927.809692,1151.536865 917.963318,1154.372681 
	C911.707458,1156.174561 909.778137,1161.104980 908.127441,1166.042603 
	C905.661865,1173.417969 905.550842,1181.290894 905.066467,1189.004150 
	C904.571533,1196.886597 903.753906,1204.718628 902.469788,1212.494995 
	C900.743286,1222.949707 899.467346,1233.445190 898.411194,1243.991089 
	C897.393860,1254.148926 896.628052,1264.312500 896.562012,1274.500366 
	C896.479065,1287.287476 897.953857,1300.009521 900.615845,1312.475220 
	C903.797913,1327.376343 907.995422,1341.984985 915.424194,1355.541504 
	C923.335266,1369.977661 933.128418,1382.250366 947.381775,1391.188477 
	C958.537598,1398.184204 970.204712,1402.846680 982.946472,1405.736084 
	C986.847778,1406.620728 988.723755,1405.308716 991.581848,1403.640259 
	C996.026367,1401.045898 999.270874,1397.599487 1000.903931,1392.966187 
	C1002.769714,1387.672363 1001.632507,1382.270386 998.861755,1377.581665 
	C997.593201,1375.435059 998.046082,1374.571899 998.817566,1372.434204 
	C1003.799988,1358.627686 999.277832,1349.276001 984.954285,1344.641235 
	C973.725342,1341.007812 956.223572,1350.054565 952.676453,1360.808228 
	C951.956970,1362.989380 953.414612,1365.936768 954.016968,1368.495972 
	C955.462830,1374.639404 957.331299,1380.689575 958.000000,1387.000000 
"/>
<path fill="none" opacity="1.000000" stroke="#000000" stroke-linecap="round" stroke-linejoin="round" stroke-width="5.000000"
	d="
M1114.000000,1202.000000 
	C1115.791870,1201.989990 1117.230835,1201.931763 1118.580444,1200.057983 
	C1126.409546,1189.187866 1128.530640,1177.234375 1127.684814,1163.988159 
	C1126.652466,1147.818237 1118.218262,1137.066284 1105.523071,1128.465942 
	C1092.926025,1119.932251 1078.927246,1119.168335 1064.501465,1120.515137 
	C1039.457764,1122.853271 1018.001526,1133.011108 1000.023010,1150.523682 
	C996.151367,1154.294922 993.000244,1158.679688 990.500000,1163.500000 
"/>
<path fill="none" opacity="1.000000" stroke="#000000" stroke-linecap="round" stroke-linejoin="round" stroke-width="5.000000"
	d="
M885.500000,914.500000 
	C882.536438,908.509888 881.034973,902.248169 881.464050,895.497742 
	C881.923645,888.267212 886.938354,883.207520 893.968750,881.379761 
	C906.268555,878.182312 913.176819,886.039001 919.900208,893.588867 
	C929.536072,904.409058 934.002930,917.468140 934.000488,932.000000 
	C933.998413,944.500000 934.057556,957.000366 933.978088,969.499878 
	C933.931458,976.833923 933.563232,984.166809 933.572815,991.499878 
	C933.575256,993.330444 932.568176,994.522705 932.000000,996.000000 
"/>
<path fill="none" opacity="1.000000" stroke="#000000" stroke-linecap="round" stroke-linejoin="round" stroke-width="12.000000"
	d="
M994.000000,1573.500000 
	C996.611877,1575.107788 999.449402,1575.562988 1002.500305,1575.534424 
	C1012.332764,1575.442261 1022.166809,1575.520996 1031.999878,1575.477661 
	C1033.500610,1575.471069 1035.052734,1575.358765 1036.489990,1574.963501 
	C1040.645264,1573.820923 1041.567627,1572.391113 1039.947388,1568.521973 
	C1035.941040,1558.954834 1031.916870,1549.378662 1027.392700,1540.052002 
	C1025.187744,1535.506226 1024.172485,1530.370850 1020.552368,1526.451660 
	C1017.808289,1523.480713 1016.060913,1523.010620 1013.539917,1526.033325 
	C1009.399475,1530.997314 1007.841919,1537.340454 1005.063171,1543.030884 
	C1001.954712,1549.396484 999.346375,1556.005737 996.484802,1562.493286 
	C996.095642,1563.375488 995.151367,1564.127808 995.053589,1565.005981 
	C994.039001,1574.121826 987.192810,1580.671997 984.572327,1589.022705 
	C982.860046,1594.478882 979.392212,1598.022217 974.500000,1600.500000 
"/>
<path fill="none" opacity="1.000000" stroke="#000000" stroke-linecap="round" stroke-linejoin="round" stroke-width="4.000000"
	d="
M880.500000,1413.500000 
	C888.333313,1413.833374 896.166443,1414.436646 904.000061,1414.444092 
	C920.666565,1414.460083 937.337158,1413.902100 953.997925,1414.143677 
	C959.820923,1414.228027 965.671326,1414.169312 971.500000,1414.500000 
"/>
<path fill="none" opacity="1.000000" stroke="#000000" stroke-linecap="round" stroke-linejoin="round" stroke-width="13.000000"
	d="
M1481.000000,1522.000000 
	C1466.000000,1522.000000 1451.000000,1522.007935 1436.000000,1521.996582 
	C1428.973633,1521.991211 1427.983521,1522.973755 1427.997314,1530.000000 
	C1428.010010,1536.500000 1427.477783,1543.051392 1428.111206,1549.489014 
	C1429.344727,1562.026367 1427.196777,1574.496826 1427.957153,1587.002563 
	C1428.116821,1589.628418 1428.026245,1592.249268 1429.130493,1594.817505 
	C1432.305542,1596.499756 1435.866699,1596.596191 1439.500366,1596.518921 
	C1453.498413,1596.220703 1467.509399,1597.038330 1481.502319,1596.032715 
	C1482.447632,1595.964844 1483.273926,1595.857544 1484.000000,1595.250000 
"/>
<path fill="none" opacity="1.000000" stroke="#000000" stroke-linecap="round" stroke-linejoin="round" stroke-width="3.000000"
	d="
M1005.500000,541.500000 
	C998.782104,540.038330 992.562195,537.046997 985.515320,536.345947 
	C968.988586,534.701965 955.930176,540.376099 945.470215,552.975281 
	C941.920532,557.250793 941.134888,562.435120 940.633118,567.513184 
	C940.058838,573.324280 943.116089,576.121643 950.000000,577.500000 
"/>
<path fill="none" opacity="1.000000" stroke="#000000" stroke-linecap="round" stroke-linejoin="round" stroke-width="3.000000"
	d="
M809.500000,768.500000 
	C802.605042,779.530334 795.768555,790.575623 789.297485,801.884155 
	C781.053955,816.290161 775.147705,831.547729 769.506470,847.002380 
	C768.295654,850.319580 767.166748,853.666687 766.000061,857.000000 
"/>
<path fill="none" opacity="1.000000" stroke="#000000" stroke-linecap="round" stroke-linejoin="round" stroke-width="5.000000"
	d="
M1052.500000,1236.000000 
	C1050.762451,1232.571411 1053.288940,1229.439819 1053.160522,1225.994019 
	C1052.484009,1207.842407 1043.013794,1192.816162 1024.965454,1188.649902 
	C1017.419556,1186.908081 1009.398132,1186.905884 1002.025208,1190.058960 
	C988.061951,1196.030151 982.368530,1206.596558 983.438049,1222.504150 
	C984.208069,1233.956665 987.121033,1244.814331 994.634155,1253.382324 
	C1009.417419,1270.241577 1031.746704,1271.725952 1046.028076,1249.518066 
	C1048.652588,1245.437012 1050.454346,1241.042969 1052.000000,1236.500000 
"/>
<path fill="none" opacity="1.000000" stroke="#000000" stroke-linecap="round" stroke-linejoin="round" stroke-width="3.000000"
	d="
M981.500000,1034.500000 
	C984.624512,1048.157227 986.490601,1061.996338 985.913086,1075.996460 
	C985.354309,1089.542480 983.782776,1103.008545 979.531921,1116.010376 
	C979.285767,1116.763306 979.500000,1117.666626 979.500000,1118.500000 
"/>
<path fill="none" opacity="1.000000" stroke="#000000" stroke-linecap="round" stroke-linejoin="round" stroke-width="6.000000"
	d="
M1257.500000,1153.500000 
	C1257.833252,1154.333374 1258.462036,1155.168823 1258.455933,1155.999634 
	C1258.355225,1169.679077 1258.506470,1183.333130 1257.204590,1197.019409 
	C1256.202271,1207.554199 1254.992554,1218.034424 1253.545288,1228.506226 
	C1253.193115,1231.054688 1252.543091,1233.510010 1252.054321,1236.010620 
	C1248.905273,1252.118896 1245.362671,1268.136353 1239.437500,1283.475830 
	C1235.022827,1294.904785 1231.454590,1306.611450 1225.709229,1317.609253 
	C1219.490356,1329.513184 1212.862549,1341.126587 1204.325439,1351.354248 
	C1197.643066,1359.359985 1190.624023,1367.087769 1182.391602,1373.968628 
	C1175.018555,1380.131226 1167.578857,1385.890381 1159.516602,1391.026123 
	C1147.285400,1398.817993 1134.022827,1404.103638 1119.986084,1407.441528 
	C1113.917603,1408.884644 1106.825684,1408.476685 1101.719482,1410.952637 
	C1092.245850,1415.546143 1082.728149,1413.424561 1073.492065,1413.615601 
	C1057.872681,1413.938599 1042.085938,1414.504639 1026.514282,1412.394409 
	C1015.183899,1410.858887 1003.677124,1410.697632 992.493164,1408.028687 
	C991.203857,1407.720947 989.993103,1407.404907 989.000000,1406.500000 
"/>
<path fill="none" opacity="1.000000" stroke="#000000" stroke-linecap="round" stroke-linejoin="round" stroke-width="4.000000"
	d="
M929.500000,1401.500000 
	C886.833313,1402.777710 844.166687,1401.175171 801.500000,1401.500000 
"/>
<path fill="none" opacity="1.000000" stroke="#000000" stroke-linecap="round" stroke-linejoin="round" stroke-width="3.000000"
	d="
M1068.500000,1245.500000 
	C1070.000244,1239.733398 1071.881958,1234.040161 1071.997192,1228.000000 
	C1072.391724,1207.334229 1064.179077,1186.563110 1040.489380,1177.527954 
	C1039.907349,1177.306030 1039.166626,1177.500000 1038.500000,1177.500000 
"/>
<path fill="none" opacity="1.000000" stroke="#000000" stroke-linecap="round" stroke-linejoin="round" stroke-width="13.000000"
	d="
M702.000000,1522.000000 
	C702.000000,1546.666626 702.000000,1571.333374 702.000000,1596.000000 
"/>
<path fill="none" opacity="1.000000" stroke="#000000" stroke-linecap="round" stroke-linejoin="round" stroke-width="3.000000"
	d="
M957.250000,725.000000 
	C952.864868,722.347839 947.833496,722.326904 943.000061,721.499817 
	C923.342651,718.136292 904.138428,721.361633 885.010315,725.547241 
	C884.428772,725.674438 884.000000,726.500000 883.500000,727.000000 
"/>
<path fill="none" opacity="1.000000" stroke="#000000" stroke-linecap="round" stroke-linejoin="round" stroke-width="3.000000"
	d="
M1039.500000,606.500000 
	C1041.010254,619.561646 1038.334961,632.029480 1033.414917,643.964905 
	C1028.536011,655.800476 1020.994873,665.649475 1009.514282,672.025635 
	C1007.745300,673.008179 1006.166626,674.333313 1004.500000,675.500000 
"/>
<path fill="none" opacity="1.000000" stroke="#000000" stroke-linecap="round" stroke-linejoin="round" stroke-width="3.000000"
	d="
M780.500000,999.500000 
	C780.333313,1001.666687 780.025330,1003.833069 780.021851,1006.000061 
	C779.986206,1028.166626 780.000000,1050.333374 780.000000,1072.500000 
"/>
<path fill="none" opacity="1.000000" stroke="#000000" stroke-linecap="round" stroke-linejoin="round" stroke-width="3.000000"
	d="
M1057.500000,717.500000 
	C1055.041260,725.898743 1050.996338,733.545593 1046.514160,741.008545 
	C1035.976562,758.553894 1023.396729,774.450745 1008.500000,788.500000 
"/>
<path fill="none" opacity="1.000000" stroke="#000000" stroke-linecap="round" stroke-linejoin="round" stroke-width="5.000000"
	d="
M1271.000000,851.000000 
	C1258.342529,860.706482 1245.701416,870.549438 1230.950562,876.884888 
	C1221.088745,881.120422 1211.047852,885.062500 1200.522705,887.594177 
	C1197.541016,888.311340 1194.835205,890.170654 1191.999268,891.498413 
	C1190.407715,892.243591 1188.925293,893.362061 1187.000000,893.000000 
"/>
<path fill="none" opacity="1.000000" stroke="#000000" stroke-linecap="round" stroke-linejoin="round" stroke-width="3.000000"
	d="
M785.000000,899.500000 
	C784.166687,916.666687 783.263245,933.830383 782.538940,951.001648 
	C782.293335,956.824585 782.500000,962.666687 782.500000,968.500000 
"/>
<path fill="none" opacity="1.000000" stroke="#000000" stroke-linecap="round" stroke-linejoin="round" stroke-width="14.000000"
	d="
M758.750000,1523.500000 
	C760.145935,1526.125610 760.773926,1528.725464 759.023682,1531.514893 
	C757.602051,1533.780518 757.475037,1536.369995 757.480225,1539.000000 
	C757.517273,1557.833374 757.500000,1576.666626 757.500000,1595.500000 
"/>
<path fill="none" opacity="1.000000" stroke="#000000" stroke-linecap="round" stroke-linejoin="round" stroke-width="12.000000"
	d="
M761.000000,1528.500000 
	C766.307312,1529.616577 769.385071,1533.528076 772.519775,1537.484375 
	C784.303650,1552.356934 796.131470,1567.194946 808.032104,1581.974121 
	C810.200989,1584.667603 812.963318,1586.753662 816.500000,1587.500000 
"/>
<path fill="none" opacity="1.000000" stroke="#000000" stroke-linecap="round" stroke-linejoin="round" stroke-width="13.000000"
	d="
M820.000000,1522.000000 
	C820.000000,1540.166626 820.015442,1558.333374 819.978027,1576.500000 
	C819.973877,1578.500244 820.395508,1581.059570 819.367615,1582.398438 
	C815.837341,1586.996338 817.607300,1591.166626 819.500000,1595.500000 
"/>
<path fill="none" opacity="1.000000" stroke="#000000" stroke-linecap="round" stroke-linejoin="round" stroke-width="4.000000"
	d="
M898.500000,814.000000 
	C893.034119,824.992676 891.607239,836.289612 896.005188,847.998047 
	C899.459717,857.195068 900.372437,866.783325 900.500000,876.500000 
"/>
<path fill="none" opacity="1.000000" stroke="#000000" stroke-linecap="round" stroke-linejoin="round" stroke-width="3.000000"
	d="
M946.500000,535.500000 
	C933.133972,539.928406 921.503784,547.021240 912.525208,558.020569 
	C908.052002,563.500610 905.558350,569.852112 905.551147,577.000061 
	C905.549622,578.530334 904.547180,579.353577 904.000000,580.500000 
"/>
<path fill="none" opacity="1.000000" stroke="#000000" stroke-linecap="round" stroke-linejoin="round" stroke-width="3.000000"
	d="
M1066.500000,496.500000 
	C1045.583984,498.807617 1032.476807,511.233612 1024.076416,529.535095 
	C1022.746155,532.433228 1020.787292,535.158020 1020.500000,538.500000 
"/>
<path fill="none" opacity="1.000000" stroke="#000000" stroke-linecap="round" stroke-linejoin="round" stroke-width="3.000000"
	d="
M902.500000,717.500000 
	C882.076843,717.783875 864.158081,725.317200 847.500000,736.500000 
"/>
<path fill="none" opacity="1.000000" stroke="#000000" stroke-linecap="round" stroke-linejoin="round" stroke-width="3.000000"
	d="
M764.000000,1036.500000 
	C763.833374,1054.500000 763.666687,1072.500000 763.500000,1090.500000 
"/>
<path fill="none" opacity="1.000000" stroke="#000000" stroke-linecap="round" stroke-linejoin="round" stroke-width="4.000000"
	d="
M902.500000,582.500000 
	C888.557312,589.469238 872.920959,591.904724 858.963684,598.927795 
	C849.304993,603.787964 840.626221,609.218994 836.356323,619.942810 
	C834.994263,623.363708 834.963745,627.365906 836.282654,629.308044 
	C840.140381,634.988708 841.990662,641.369385 844.414734,647.533508 
	C846.533936,652.922119 850.332886,656.071899 855.500000,658.000000 
"/>
<path fill="none" opacity="1.000000" stroke="#000000" stroke-linecap="round" stroke-linejoin="round" stroke-width="4.000000"
	d="
M941.500000,652.500000 
	C929.271606,656.439758 916.866943,659.447388 904.008301,660.593323 
	C899.152710,661.026062 894.334900,660.878784 889.500000,661.000000 
"/>
<path fill="none" opacity="1.000000" stroke="#000000" stroke-linecap="round" stroke-linejoin="round" stroke-width="4.000000"
	d="
M1154.500000,917.000000 
	C1147.333984,914.682190 1140.098389,913.143127 1132.572632,912.015442 
	C1125.734863,910.990784 1118.978027,909.468323 1112.000000,909.508667 
	C1098.087769,909.589050 1084.938965,913.423096 1072.042603,918.117065 
	C1069.034424,919.211975 1066.109253,920.614380 1063.000000,921.500000 
"/>
<path fill="none" opacity="1.000000" stroke="#000000" stroke-linecap="round" stroke-linejoin="round" stroke-width="3.000000"
	d="
M944.500000,793.500000 
	C945.103394,797.062195 942.634094,799.460022 940.926697,801.949707 
	C936.819763,807.938293 932.388977,813.709106 927.985046,819.488586 
	C923.195007,825.774719 918.325562,831.975464 915.396179,839.459351 
	C915.017822,840.425842 914.466248,842.326111 912.500000,842.000000 
"/>
<path fill="none" opacity="1.000000" stroke="#000000" stroke-linecap="round" stroke-linejoin="round" stroke-width="4.000000"
	d="
M936.500000,633.500000 
	C920.934387,640.793701 905.287842,647.877380 888.500000,652.000000 
"/>
<path fill="none" opacity="1.000000" stroke="#000000" stroke-linecap="round" stroke-linejoin="round" stroke-width="4.000000"
	d="
M1113.500000,1262.000000 
	C1108.990845,1266.303955 1103.094360,1266.401855 1097.493286,1266.928223 
	C1087.013428,1267.912964 1077.217651,1265.684814 1068.469238,1259.543701 
	C1068.212769,1259.363770 1067.500000,1259.833374 1067.000000,1260.000000 
"/>
<path fill="none" opacity="1.000000" stroke="#000000" stroke-linecap="round" stroke-linejoin="round" stroke-width="25.000000"
	d="
M962.750000,715.000000 
	C961.029175,710.175720 957.103882,706.663269 952.917847,705.241943 
	C941.734802,701.444946 930.269653,700.588806 919.500000,707.250000 
"/>
<path fill="none" opacity="1.000000" stroke="#000000" stroke-linecap="round" stroke-linejoin="round" stroke-width="3.000000"
	d="
M937.500000,672.000000 
	C932.500000,672.500000 927.504150,673.364258 922.499084,673.421631 
	C913.043396,673.530090 903.668762,672.508850 894.493225,670.024963 
	C893.208923,669.677307 891.833313,669.666626 890.500000,669.500000 
"/>
<path fill="none" opacity="1.000000" stroke="#000000" stroke-linecap="round" stroke-linejoin="round" stroke-width="4.000000"
	d="
M982.000000,1173.500000 
	C983.316223,1167.425171 979.160156,1163.611450 975.379211,1160.654419 
	C966.116028,1153.409912 953.536926,1152.275391 942.953491,1161.949097 
	C941.456665,1163.317261 939.227722,1163.847168 937.519226,1165.027832 
	C931.615417,1169.107422 928.872314,1175.543091 925.494995,1181.497192 
	C925.199280,1182.018433 924.848572,1182.511597 924.485107,1182.988647 
	C924.423828,1183.068970 924.166687,1183.000000 923.396362,1183.000000 
	C922.446838,1173.917236 922.075623,1164.230835 912.000000,1159.500000 
"/>
<path fill="none" opacity="1.000000" stroke="#000000" stroke-linecap="round" stroke-linejoin="round" stroke-width="12.000000"
	d="
M1476.000000,1559.000000 
	C1463.677124,1558.059692 1451.333618,1558.632935 1438.999756,1558.528564 
	C1436.001343,1558.503174 1433.000000,1558.833374 1430.000000,1559.000122 
"/>
<path fill="none" opacity="1.000000" stroke="#000000" stroke-linecap="round" stroke-linejoin="round" stroke-width="5.000000"
	d="
M1187.000000,1277.000000 
	C1182.085693,1287.313599 1173.626831,1292.165527 1162.500610,1293.008789 
	C1145.579712,1294.291504 1132.912354,1286.220947 1122.056641,1274.447754 
	C1119.054932,1271.192261 1117.528320,1266.974243 1116.908813,1262.357544 
	C1106.375000,1258.697876 1096.228271,1254.298096 1092.000000,1242.500000 
"/>
<path fill="none" opacity="1.000000" stroke="#000000" stroke-linecap="round" stroke-linejoin="round" stroke-width="4.000000"
	d="
M1059.500000,1252.500000 
	C1064.923584,1255.812256 1065.881104,1261.421509 1067.637451,1266.956421 
	C1072.368896,1281.866333 1082.725830,1291.199219 1097.438477,1296.665405 
	C1109.037354,1300.974731 1132.376343,1298.067505 1140.500000,1290.000000 
"/>
<path fill="none" opacity="1.000000" stroke="#000000" stroke-linecap="round" stroke-linejoin="round" stroke-width="3.000000"
	d="
M1235.500000,1393.500000 
	C1228.166626,1393.500000 1220.807983,1393.119751 1213.507080,1393.606567 
	C1206.159912,1394.096680 1198.832520,1393.799927 1191.500000,1394.000000 
"/>
<path fill="none" opacity="1.000000" stroke="#000000" stroke-linecap="round" stroke-linejoin="round" stroke-width="4.000000"
	d="
M944.000000,1345.000000 
	C946.245422,1342.474731 945.400818,1339.391968 945.482422,1336.499512 
	C945.637695,1330.998169 946.032532,1325.316650 948.635132,1320.574219 
	C954.585327,1309.732178 965.259399,1309.288818 973.972595,1317.030884 
	C982.009399,1324.171753 984.708252,1333.557861 984.500000,1344.000000 
"/>
<path fill="none" opacity="1.000000" stroke="#000000" stroke-linecap="round" stroke-linejoin="round" stroke-width="4.000000"
	d="
M1215.500000,1297.500000 
	C1215.266968,1317.771484 1196.019165,1332.828979 1178.515503,1330.862427 
	C1163.380005,1329.161987 1153.435425,1320.075073 1148.020508,1305.992188 
	C1146.233398,1301.344849 1143.427612,1296.865601 1145.000000,1291.500000 
"/>
<path fill="none" opacity="1.000000" stroke="#000000" stroke-linecap="round" stroke-linejoin="round" stroke-width="5.000000"
	d="
M1302.500000,1044.499878 
	C1302.000000,1044.833252 1301.531250,1045.392700 1300.995483,1045.466797 
	C1287.411255,1047.341675 1275.189087,1053.804077 1262.004395,1057.017944 
	C1259.247559,1057.689819 1256.480469,1059.645142 1254.000000,1056.500000 
"/>
<path fill="none" opacity="1.000000" stroke="#000000" stroke-linecap="round" stroke-linejoin="round" stroke-width="4.000000"
	d="
M1099.500000,983.000000 
	C1099.648071,991.285278 1094.681519,997.187622 1089.367188,1002.363647 
	C1084.174072,1007.421692 1077.473267,1010.356384 1070.001099,1011.011963 
	C1056.868164,1012.164307 1047.907227,1006.548096 1042.992065,994.003113 
	C1042.721191,993.312012 1042.333374,992.666626 1042.000000,992.000000 
"/>
<path fill="none" opacity="1.000000" stroke="#000000" stroke-linecap="round" stroke-linejoin="round" stroke-width="5.000000"
	d="
M1245.000000,872.500000 
	C1256.423218,880.356934 1269.135010,885.188477 1282.495972,888.516418 
	C1284.187988,888.937866 1285.879639,889.483337 1287.000000,891.000000 
"/>
<path fill="none" opacity="1.000000" stroke="#000000" stroke-linecap="round" stroke-linejoin="round" stroke-width="3.000000"
	d="
M941.500000,609.500000 
	C956.696228,616.734070 965.474731,628.424988 966.500000,645.500000 
"/>
<path fill="none" opacity="1.000000" stroke="#000000" stroke-linecap="round" stroke-linejoin="round" stroke-width="4.000000"
	d="
M966.500000,730.000000 
	C964.675049,726.942322 962.212097,724.273254 958.520935,724.686707 
	C956.539612,724.908630 954.784302,726.866333 952.531311,727.596619 
	C941.007935,731.331787 929.210999,733.996704 917.500000,737.000000 
"/>
<path fill="none" opacity="1.000000" stroke="#000000" stroke-linecap="round" stroke-linejoin="round" stroke-width="4.000000"
	d="
M997.000000,1374.500000 
	C994.085144,1373.900635 992.014771,1371.517700 989.013062,1370.932983 
	C985.290649,1370.207764 982.112061,1370.298218 978.944946,1372.933838 
	C973.671692,1377.322388 970.174805,1383.756226 963.493347,1386.483765 
	C959.006470,1388.315552 953.942139,1387.935181 949.500000,1390.000000 
"/>
<path fill="none" opacity="1.000000" stroke="#000000" stroke-linecap="round" stroke-linejoin="round" stroke-width="5.000000"
	d="
M1098.500000,1298.000000 
	C1099.027100,1304.457764 1103.486572,1308.233643 1107.994873,1312.006104 
	C1118.723755,1320.983765 1130.994873,1325.172974 1144.999268,1323.990845 
	C1149.070068,1323.647217 1152.911499,1322.471313 1156.500000,1320.500000 
"/>
<path fill="none" opacity="1.000000" stroke="#000000" stroke-linecap="round" stroke-linejoin="round" stroke-width="4.000000"
	d="
M901.500000,797.000000 
	C899.152161,801.572205 899.345215,806.632751 899.113037,811.505371 
	C898.880493,816.386719 901.503906,820.796265 903.669067,824.911072 
	C906.479736,830.252930 908.375977,836.075256 911.966064,841.024597 
	C913.130737,842.630188 912.975952,844.835266 912.412720,846.469910 
	C909.443665,855.086548 907.500000,863.824219 907.401978,872.998962 
	C907.373413,875.672485 906.166626,878.333313 905.500000,881.000000 
"/>
<path fill="none" opacity="1.000000" stroke="#000000" stroke-linecap="round" stroke-linejoin="round" stroke-width="5.000000"
	d="
M1161.000000,1325.000000 
	C1156.441895,1336.477173 1156.900879,1347.803223 1161.988159,1359.005371 
	C1162.575562,1360.299072 1163.000000,1361.666626 1163.500000,1363.000000 
"/>
<path fill="none" opacity="1.000000" stroke="#000000" stroke-linecap="round" stroke-linejoin="round" stroke-width="3.000000"
	d="
M764.000000,967.500000 
	C763.791138,980.166138 764.489258,992.844177 763.500000,1005.500000 
"/>
<path fill="none" opacity="1.000000" stroke="#000000" stroke-linecap="round" stroke-linejoin="round" stroke-width="4.000000"
	d="
M1117.000000,1319.500000 
	C1114.347168,1325.762695 1116.180176,1331.776123 1118.569336,1337.470947 
	C1125.732788,1354.545166 1143.334351,1364.740356 1161.999756,1362.997192 
	C1163.015869,1362.902222 1163.838989,1363.235840 1164.611206,1364.131348 
	C1161.794556,1370.426880 1159.316895,1376.838623 1158.784302,1383.983887 
	C1158.604370,1386.398071 1159.082031,1388.097412 1160.000000,1390.000000 
"/>
<path fill="none" opacity="1.000000" stroke="#000000" stroke-linecap="round" stroke-linejoin="round" stroke-width="4.000000"
	d="
M1158.500000,1426.000000 
	C1146.166626,1426.687256 1133.833374,1426.687256 1121.500000,1426.000000 
"/>
<path fill="none" opacity="1.000000" stroke="#000000" stroke-linecap="round" stroke-linejoin="round" stroke-width="3.000000"
	d="
M965.500000,577.000000 
	C967.408630,583.455322 966.349060,589.986755 966.075500,596.552429 
	C962.974792,599.354980 959.952026,598.830688 956.446106,597.109802 
	C953.855164,595.838135 951.744995,593.344727 948.500000,593.500000 
"/>
<path fill="none" opacity="1.000000" stroke="#000000" stroke-linecap="round" stroke-linejoin="round" stroke-width="4.000000"
	d="
M1085.000000,1294.000000 
	C1078.386353,1300.383301 1079.454590,1308.202881 1082.152710,1315.443115 
	C1087.281006,1329.204468 1097.783813,1337.821899 1111.536621,1342.389771 
	C1114.142212,1343.255249 1116.887573,1345.539185 1120.000000,1343.500000 
"/>
<path fill="none" opacity="1.000000" stroke="#000000" stroke-linecap="round" stroke-linejoin="round" stroke-width="4.000000"
	d="
M1197.000000,1231.000000 
	C1191.236328,1241.370605 1182.548462,1247.763916 1171.015381,1250.563232 
	C1167.005371,1251.536499 1162.905273,1250.029175 1159.000000,1251.500000 
"/>
<path fill="none" opacity="1.000000" stroke="#000000" stroke-linecap="round" stroke-linejoin="round" stroke-width="3.000000"
	d="
M759.999939,867.000000 
	C757.333313,877.833313 754.731567,888.683716 751.897461,899.473083 
	C751.620239,900.528259 751.745056,901.513062 751.500000,902.500000 
"/>
<path fill="none" opacity="1.000000" stroke="#000000" stroke-linecap="round" stroke-linejoin="round" stroke-width="4.000000"
	d="
M1194.000000,1111.000000 
	C1189.873657,1122.770752 1180.572510,1128.980957 1169.464355,1132.383545 
	C1151.045410,1138.025269 1133.804443,1127.417358 1125.528687,1114.481689 
	C1125.301636,1114.126831 1125.500000,1113.500000 1125.500000,1113.000000 
"/>
<path fill="none" opacity="1.000000" stroke="#000000" stroke-linecap="round" stroke-linejoin="round" stroke-width="4.000000"
	d="
M921.000000,1239.500000 
	C919.808655,1232.928833 919.454895,1226.252319 916.617859,1219.947021 
	C914.003296,1214.136108 910.469543,1210.049805 904.000000,1209.000000 
"/>
<path fill="none" opacity="1.000000" stroke="#000000" stroke-linecap="round" stroke-linejoin="round" stroke-width="5.000000"
	d="
M1090.000000,1330.000000 
	C1081.555908,1338.616089 1081.808838,1355.690674 1090.980591,1366.516479 
	C1097.711548,1374.461670 1106.437500,1378.451538 1116.500000,1380.000000 
"/>
<path fill="none" opacity="1.000000" stroke="#000000" stroke-linecap="round" stroke-linejoin="round" stroke-width="4.000000"
	d="
M1193.500000,1153.000000 
	C1189.075195,1164.085938 1180.246582,1170.217529 1169.472412,1173.919800 
	C1166.298584,1175.010376 1163.074463,1176.539062 1159.500000,1176.000000 
"/>
<path fill="none" opacity="1.000000" stroke="#000000" stroke-linecap="round" stroke-linejoin="round" stroke-width="5.000000"
	d="
M1193.000000,1060.500000 
	C1192.832031,1066.795044 1188.937988,1071.392212 1185.421875,1075.939575 
	C1178.813965,1084.485474 1169.651367,1089.618286 1159.008057,1089.260376 
	C1144.443359,1088.770630 1132.541260,1082.509521 1125.989624,1068.504883 
	C1125.737793,1067.966675 1125.333374,1067.500000 1125.000000,1067.000000 
"/>
<path fill="none" opacity="1.000000" stroke="#000000" stroke-linecap="round" stroke-linejoin="round" stroke-width="3.000000"
	d="
M874.500000,1391.500000 
	C865.852234,1390.350830 857.160522,1391.054199 848.501953,1391.159790 
	C845.878784,1391.191895 843.159912,1391.224976 840.500000,1391.500000 
"/>
<path fill="none" opacity="1.000000" stroke="#000000" stroke-linecap="round" stroke-linejoin="round" stroke-width="4.000000"
	d="
M957.500000,1312.000000 
	C954.238342,1308.852661 952.300964,1304.807373 949.986633,1301.008179 
	C944.451233,1291.921509 936.481873,1289.349243 926.601257,1293.674561 
	C923.371277,1290.335938 922.107788,1285.587646 919.141785,1281.886353 
	C915.145447,1276.899414 910.766724,1273.306396 904.581726,1271.253662 
	C901.916565,1270.369141 899.835144,1271.141724 897.500000,1271.000000 
"/>
<path fill="none" opacity="1.000000" stroke="#000000" stroke-linecap="round" stroke-linejoin="round" stroke-width="5.000000"
	d="
M1255.000000,1112.500000 
	C1258.945068,1115.851685 1256.789185,1120.547241 1257.303833,1124.525391 
	C1258.306274,1132.272217 1258.151123,1140.167358 1258.508789,1147.999634 
	C1258.626953,1150.589355 1258.227051,1152.777100 1255.531372,1154.065674 
	C1254.664429,1154.480103 1254.009644,1155.584595 1253.524536,1156.512817 
	C1248.969238,1165.228882 1242.564819,1171.609619 1232.504272,1173.522583 
	C1231.638794,1173.687012 1230.833374,1174.166626 1230.000000,1174.500000 
"/>
<path fill="none" opacity="1.000000" stroke="#000000" stroke-linecap="round" stroke-linejoin="round" stroke-width="5.000000"
	d="
M1222.500000,1253.000000 
	C1216.886353,1264.774658 1208.390625,1272.286743 1195.078003,1275.340210 
	C1186.841919,1277.229126 1180.535889,1274.584595 1174.056030,1271.386597 
	C1166.218140,1267.518311 1160.834839,1261.155029 1158.479858,1252.505493 
	C1158.074219,1251.014771 1156.944214,1249.875000 1155.491455,1249.536865 
	C1142.691040,1246.557495 1135.845093,1237.566040 1131.500000,1226.000000 
"/>
<path fill="none" opacity="1.000000" stroke="#000000" stroke-linecap="round" stroke-linejoin="round" stroke-width="4.000000"
	d="
M1162.500000,1176.500000 
	C1168.682007,1187.375488 1178.805176,1191.942139 1190.499023,1194.005737 
	C1191.673218,1194.213013 1192.833374,1194.500000 1194.000000,1194.750000 
"/>
<path fill="none" opacity="1.000000" stroke="#000000" stroke-linecap="round" stroke-linejoin="round" stroke-width="5.000000"
	d="
M840.000000,637.500000 
	C833.589844,637.900696 833.204224,643.701538 832.740295,647.529114 
	C830.614807,665.064209 834.151184,681.441284 845.552795,695.457092 
	C848.456299,699.026306 852.351807,701.505371 857.203674,702.389648 
	C861.703735,696.786316 861.848145,688.968384 866.000000,683.000000 
"/>
<path fill="none" opacity="1.000000" stroke="#000000" stroke-linecap="round" stroke-linejoin="round" stroke-width="5.000000"
	d="
M1153.500000,1250.000000 
	C1149.076172,1256.597778 1141.849976,1258.507690 1134.992920,1260.980225 
	C1129.318726,1263.026123 1123.268555,1261.244629 1117.500000,1262.500000 
"/>
<path fill="none" opacity="1.000000" stroke="#000000" stroke-linecap="round" stroke-linejoin="round" stroke-width="4.000000"
	d="
M1100.000000,990.000000 
	C1102.489380,994.931152 1103.768188,1000.524414 1107.996704,1004.503479 
	C1111.994141,1008.264954 1116.650024,1010.862732 1122.011597,1011.942383 
	C1124.791382,1012.502136 1126.714844,1014.624207 1125.441650,1016.968262 
	C1121.491577,1024.239868 1118.438354,1032.329712 1110.479492,1036.460571 
	C1104.888672,1039.362305 1098.598267,1041.652588 1092.566895,1040.218750 
	C1086.679443,1038.819214 1081.167114,1035.754028 1076.855713,1030.621216 
	C1072.365601,1025.275269 1069.965332,1019.043640 1067.000000,1013.000000 
"/>
<path fill="none" opacity="1.000000" stroke="#000000" stroke-linecap="round" stroke-linejoin="round" stroke-width="4.000000"
	d="
M1033.500000,1360.000000 
	C1040.717407,1364.234131 1046.333740,1370.380249 1048.781372,1378.069580 
	C1052.981689,1391.265991 1048.864746,1399.752686 1032.973145,1405.424805 
	C1030.178711,1406.422119 1027.117432,1407.947876 1024.000000,1406.000000 
"/>
<path fill="none" opacity="1.000000" stroke="#000000" stroke-linecap="round" stroke-linejoin="round" stroke-width="3.000000"
	d="
M915.500000,798.000000 
	C915.441223,805.703125 917.509827,813.265747 917.006531,821.000427 
	C916.800720,824.164551 916.666687,827.333313 916.500000,830.500000 
"/>
<path fill="none" opacity="1.000000" stroke="#000000" stroke-linecap="round" stroke-linejoin="round" stroke-width="2.000000"
	d="
M899.500000,770.500000 
	C899.764221,779.616760 909.462402,786.808472 920.001282,787.480103 
	C922.159180,787.617554 924.333313,787.500000 926.500000,787.500000 
"/>
<path fill="none" opacity="1.000000" stroke="#000000" stroke-linecap="round" stroke-linejoin="round" stroke-width="4.000000"
	d="
M942.000000,1204.500000 
	C944.205139,1202.892578 944.534119,1200.204102 945.411621,1197.965332 
	C948.328552,1190.523682 954.031738,1186.802734 961.511230,1186.123535 
	C967.728516,1185.558838 973.411682,1190.926514 976.554138,1198.477417 
	C978.575867,1203.335449 978.666748,1208.466675 979.500000,1213.500000 
"/>
<path fill="none" opacity="1.000000" stroke="#000000" stroke-linecap="round" stroke-linejoin="round" stroke-width="4.000000"
	d="
M1163.000000,1135.000000 
	C1169.727905,1144.218018 1178.970459,1149.456543 1190.020630,1151.381714 
	C1193.236938,1151.942017 1194.765137,1153.212646 1196.663452,1155.883911 
	C1203.312744,1165.240356 1212.450562,1171.129517 1223.989014,1173.065186 
	C1226.385498,1173.467163 1228.607422,1173.466187 1230.232788,1176.889526 
	C1235.390625,1187.753540 1243.489136,1195.759399 1256.000000,1198.000000 
"/>
<path fill="none" opacity="1.000000" stroke="#000000" stroke-linecap="round" stroke-linejoin="round" stroke-width="5.000000"
	d="
M926.500000,1294.000000 
	C922.392273,1302.937012 920.949646,1312.244873 922.462036,1322.005859 
	C922.672363,1323.363647 922.832275,1324.916382 921.500000,1326.000000 
"/>
<path fill="none" opacity="1.000000" stroke="#000000" stroke-linecap="round" stroke-linejoin="round" stroke-width="4.000000"
	d="
M1018.500000,1331.500000 
	C1032.625854,1336.572998 1036.213013,1347.984863 1032.930298,1358.478149 
	C1030.365967,1366.675049 1024.308838,1371.809082 1016.499878,1374.999756 
	C1014.899841,1375.653564 1012.991089,1375.750610 1012.000000,1377.500000 
"/>
<path fill="none" opacity="1.000000" stroke="#000000" stroke-linecap="round" stroke-linejoin="round" stroke-width="5.000000"
	d="
M1161.500000,1090.000000 
	C1164.108154,1097.643799 1170.727783,1101.189819 1177.033569,1104.943604 
	C1179.834717,1106.611084 1182.895386,1108.112305 1186.035400,1108.849243 
	C1188.266602,1109.372681 1191.999390,1110.332275 1191.500000,1105.500000 
"/>
<path fill="none" opacity="1.000000" stroke="#000000" stroke-linecap="round" stroke-linejoin="round" stroke-width="4.000000"
	d="
M1118.500000,1379.500000 
	C1112.521118,1384.926270 1105.721313,1389.760254 1102.612183,1397.544800 
	C1100.920776,1401.779785 1099.132935,1406.196167 1099.500000,1411.000000 
"/>
<path fill="none" opacity="1.000000" stroke="#000000" stroke-linecap="round" stroke-linejoin="round" stroke-width="5.000000"
	d="
M1082.000000,1357.500000 
	C1079.500000,1360.166626 1076.686890,1362.605957 1074.555298,1365.540161 
	C1066.292358,1376.915527 1065.399536,1396.272461 1076.974487,1406.528809 
	C1078.730957,1408.085083 1081.003174,1409.526001 1080.500000,1412.500000 
"/>
<path fill="none" opacity="1.000000" stroke="#000000" stroke-linecap="round" stroke-linejoin="round" stroke-width="4.000000"
	d="
M1128.000000,1156.500000 
	C1129.835327,1156.530151 1130.881226,1156.754395 1132.189331,1158.883667 
	C1137.603149,1167.696533 1145.557129,1173.520752 1156.018433,1174.855957 
	C1159.120483,1175.251709 1159.890869,1176.307495 1158.424805,1178.448486 
	C1153.969360,1184.955078 1137.225220,1193.965576 1127.984863,1192.602661 
	C1126.675537,1192.409546 1125.826904,1191.272583 1124.500000,1191.500000 
"/>
<path fill="none" opacity="1.000000" stroke="#000000" stroke-linecap="round" stroke-linejoin="round" stroke-width="4.000000"
	d="
M1042.000000,1280.000000 
	C1051.443970,1285.121460 1057.032227,1293.799438 1062.384644,1302.570435 
	C1063.532959,1304.452148 1061.608398,1306.859375 1060.996460,1308.999023 
	C1058.986694,1316.026123 1056.000000,1322.768066 1057.915527,1330.520874 
	C1061.202393,1343.823975 1069.156616,1352.566162 1082.017822,1356.947754 
	C1082.713623,1357.184814 1083.666626,1356.666626 1084.500000,1356.499878 
"/>
<path fill="none" opacity="1.000000" stroke="#000000" stroke-linecap="round" stroke-linejoin="round" stroke-width="6.000000"
	d="
M1036.500000,1055.000000 
	C1046.410278,1054.148438 1056.305054,1054.669922 1065.450439,1058.614990 
	C1078.700073,1064.330444 1088.858276,1074.070312 1094.747192,1087.114136 
	C1098.251709,1094.876709 1098.073853,1103.912231 1096.887207,1112.484375 
	C1096.426025,1115.816284 1096.974976,1119.428345 1095.000000,1122.500000 
"/>
<path fill="none" opacity="1.000000" stroke="#000000" stroke-linecap="round" stroke-linejoin="round" stroke-width="4.000000"
	d="
M1228.000000,1212.000000 
	C1223.896118,1221.846069 1215.532227,1226.193604 1205.994751,1228.981934 
	C1203.864014,1229.604858 1201.666626,1230.000000 1199.500000,1230.500000 
"/>
<path fill="none" opacity="1.000000" stroke="#000000" stroke-linecap="round" stroke-linejoin="round" stroke-width="5.000000"
	d="
M1196.500000,1111.000000 
	C1199.750732,1120.603271 1208.124634,1123.841797 1216.516357,1126.955933 
	C1219.077637,1127.906494 1221.833374,1128.333374 1224.500000,1129.000000 
"/>
<path fill="none" opacity="1.000000" stroke="#000000" stroke-linecap="round" stroke-linejoin="round" stroke-width="4.000000"
	d="
M1031.000000,1304.000000 
	C1040.138916,1308.765137 1046.115601,1315.965332 1049.133545,1325.959717 
	C1050.491577,1330.456909 1050.245117,1334.533813 1048.410156,1338.458008 
	C1046.553955,1342.427002 1044.779175,1346.442139 1042.134888,1350.097534 
	C1039.821289,1353.296143 1038.666626,1357.333374 1037.000000,1361.000000 
"/>
<path fill="none" opacity="1.000000" stroke="#000000" stroke-linecap="round" stroke-linejoin="round" stroke-width="4.000000"
	d="
M1229.500000,1177.000000 
	C1223.317017,1184.757202 1215.837646,1190.350464 1206.065552,1193.223145 
	C1202.098267,1194.389404 1198.151245,1192.603882 1194.324097,1194.981689 
	C1191.737061,1202.046387 1184.792969,1204.686401 1178.469971,1207.941650 
	C1175.714722,1209.360229 1172.735107,1210.369873 1169.502319,1210.543335 
	C1165.114380,1210.778931 1161.869507,1212.372070 1158.187500,1215.648804 
	C1152.275391,1220.910278 1144.418457,1224.055786 1136.001465,1224.526367 
	C1132.961060,1224.696289 1130.489136,1225.592163 1127.825317,1227.788086 
	C1123.349487,1231.477539 1117.445312,1232.632935 1111.500000,1232.500000 
"/>
<path fill="none" opacity="1.000000" stroke="#000000" stroke-linecap="round" stroke-linejoin="round" stroke-width="4.000000"
	d="
M1131.500000,1193.500000 
	C1138.124512,1204.758789 1148.500977,1209.868652 1161.000000,1211.500000 
"/>
<path fill="none" opacity="1.000000" stroke="#000000" stroke-linecap="round" stroke-linejoin="round" stroke-width="4.000000"
	d="
M1229.000000,1129.500000 
	C1233.149536,1138.574463 1240.285034,1143.694824 1249.993896,1145.532227 
	C1252.487427,1146.004272 1254.910889,1146.835083 1257.500000,1146.500000 
"/>
<path fill="none" opacity="1.000000" stroke="#000000" stroke-linecap="round" stroke-linejoin="round" stroke-width="4.000000"
	d="
M1132.000000,913.000000 
	C1129.591797,918.137817 1128.140259,923.677551 1124.075439,928.069763 
	C1119.751709,932.741516 1115.089478,936.261108 1108.500000,936.500000 
"/>
<path fill="none" opacity="1.000000" stroke="#000000" stroke-linecap="round" stroke-linejoin="round" stroke-width="4.000000"
	d="
M1007.500000,578.500000 
	C1005.612732,582.207397 1001.595947,583.114258 998.778015,585.350342 
	C994.517151,588.731445 990.149780,591.831299 985.454163,594.416748 
	C981.680542,596.494568 977.573975,598.059814 973.467712,599.401245 
	C971.514771,600.039185 969.053101,600.287659 967.500000,598.000000 
"/>
<path fill="none" opacity="1.000000" stroke="#000000" stroke-linecap="round" stroke-linejoin="round" stroke-width="4.000000"
	d="
M943.000000,1263.500000 
	C940.986938,1259.582397 939.765015,1255.344849 937.634888,1251.426636 
	C935.309021,1247.148560 932.245239,1244.210205 928.038330,1241.929321 
	C923.291443,1239.355957 919.125366,1240.075317 915.002136,1243.003052 
	C908.743652,1247.447021 905.511169,1253.844727 903.514832,1261.004150 
	C902.918152,1263.143799 902.500000,1265.333374 902.000000,1267.500000 
"/>
<path fill="none" opacity="1.000000" stroke="#000000" stroke-linecap="round" stroke-linejoin="round" stroke-width="4.000000"
	d="
M1153.000000,1042.500000 
	C1148.533691,1051.728516 1142.123169,1058.677002 1132.073120,1062.208008 
	C1129.517212,1063.105957 1126.579102,1061.755005 1124.500000,1064.000000 
"/>
<path fill="none" opacity="1.000000" stroke="#000000" stroke-linecap="round" stroke-linejoin="round" stroke-width="5.000000"
	d="
M1125.500000,1349.500000 
	C1118.895142,1356.060913 1117.904785,1364.239868 1118.457153,1373.002686 
	C1118.997070,1381.568848 1122.445557,1388.492432 1128.967041,1394.038818 
	C1130.803955,1395.601196 1132.924805,1396.514160 1135.028320,1397.435425 
	C1136.774292,1398.200073 1138.402588,1398.764038 1138.500000,1401.000000 
"/>
<path fill="none" opacity="1.000000" stroke="#000000" stroke-linecap="round" stroke-linejoin="round" stroke-width="4.000000"
	d="
M947.500000,1261.500000 
	C946.166626,1257.958252 949.135315,1255.872314 950.606812,1253.568237 
	C956.035950,1245.067871 962.852600,1240.603027 972.499451,1244.001465 
	C979.206238,1246.364380 982.319214,1250.760010 982.518921,1257.999512 
	C982.551147,1259.169800 982.833374,1260.333374 983.000000,1261.500000 
"/>
<path fill="none" opacity="1.000000" stroke="#000000" stroke-linecap="round" stroke-linejoin="round" stroke-width="5.000000"
	d="
M1000.000000,1378.000000 
	C1010.075073,1374.341064 1020.842407,1381.700562 1024.998901,1391.500488 
	C1027.216064,1396.727905 1025.533569,1401.475708 1022.934204,1405.961914 
	C1022.069519,1407.454346 1020.535095,1408.556519 1020.500000,1410.500000 
"/>
<path fill="none" opacity="1.000000" stroke="#000000" stroke-linecap="round" stroke-linejoin="round" stroke-width="5.000000"
	d="
M1196.000000,1066.000000 
	C1201.779419,1076.170410 1210.793579,1081.789795 1222.018799,1083.899780 
	C1225.437256,1084.542603 1225.960449,1085.124756 1224.619751,1088.546875 
	C1220.688232,1098.581787 1214.031982,1105.271484 1203.509399,1108.035889 
	C1201.277832,1108.622192 1199.225586,1109.985107 1196.981567,1110.400513 
	C1195.142456,1110.740967 1192.835083,1111.326904 1191.500000,1109.000000 
"/>
<path fill="none" opacity="1.000000" stroke="#000000" stroke-linecap="round" stroke-linejoin="round" stroke-width="12.000000"
	d="
M1040.500000,1574.000000 
	C1044.622070,1577.397461 1046.229736,1582.301270 1047.935425,1587.023315 
	C1050.116699,1593.061157 1053.337402,1597.984131 1059.500000,1600.500000 
"/>
<path fill="none" opacity="1.000000" stroke="#000000" stroke-linecap="round" stroke-linejoin="round" stroke-width="5.000000"
	d="
M1126.000000,1017.500000 
	C1129.397461,1024.324341 1132.236084,1031.661987 1139.029907,1035.952637 
	C1151.367920,1043.744873 1162.890747,1044.928711 1174.000000,1031.000000 
"/>
<path fill="none" opacity="1.000000" stroke="#000000" stroke-linecap="round" stroke-linejoin="round" stroke-width="3.000000"
	d="
M868.000000,620.000000 
	C859.929077,616.052979 851.390686,617.673950 843.008179,618.145447 
	C841.450928,618.233032 840.000000,618.418091 838.500000,618.000000 
"/>
<path fill="none" opacity="1.000000" stroke="#000000" stroke-linecap="round" stroke-linejoin="round" stroke-width="3.000000"
	d="
M890.500000,615.000000 
	C886.870300,622.691345 881.737793,629.397827 876.435974,635.948181 
	C874.547424,638.281494 871.535522,638.983643 868.500000,639.000000 
"/>
<path fill="none" opacity="1.000000" stroke="#000000" stroke-linecap="round" stroke-linejoin="round" stroke-width="5.000000"
	d="
M1151.000000,993.000000 
	C1150.045776,994.257812 1149.103394,995.404297 1148.342163,996.920715 
	C1143.658813,1006.248169 1136.195068,1012.020020 1125.500000,1013.000000 
"/>
<path fill="none" opacity="1.000000" stroke="#000000" stroke-linecap="round" stroke-linejoin="round" stroke-width="4.000000"
	d="
M1133.000000,914.000000 
	C1135.806274,922.517212 1138.811523,930.951599 1147.031860,935.947632 
	C1148.983887,937.134033 1151.333374,937.666687 1153.500000,938.500000 
"/>
<path fill="none" opacity="1.000000" stroke="#000000" stroke-linecap="round" stroke-linejoin="round" stroke-width="12.000000"
	d="
M1357.000000,1567.000000 
	C1358.248901,1574.024414 1363.777588,1578.601929 1367.074585,1584.458008 
	C1368.646729,1587.250366 1370.837280,1589.697144 1372.581787,1592.448120 
	C1375.311523,1596.752930 1380.260498,1598.192627 1384.500000,1600.500000 
"/>
<path fill="none" opacity="1.000000" stroke="#000000" stroke-linecap="round" stroke-linejoin="round" stroke-width="4.000000"
	d="
M1172.500000,1211.000000 
	C1175.206421,1221.109741 1182.623047,1226.279541 1192.045532,1228.831787 
	C1194.291504,1229.440063 1196.462646,1230.952271 1199.000000,1230.500000 
"/>
<path fill="none" opacity="1.000000" stroke="#000000" stroke-linecap="round" stroke-linejoin="round" stroke-width="4.000000"
	d="
M1044.500000,1029.500000 
	C1048.486328,1034.553101 1051.300537,1040.422363 1055.941162,1045.058960 
	C1060.469360,1049.583130 1065.862305,1051.715942 1071.923096,1052.218018 
	C1073.005859,1055.595825 1074.189209,1058.673096 1073.000000,1062.000000 
"/>
<path fill="none" opacity="1.000000" stroke="#000000" stroke-linecap="round" stroke-linejoin="round" stroke-width="5.000000"
	d="
M1191.000000,1277.000000 
	C1194.373901,1286.726440 1201.136841,1292.626099 1210.975952,1295.580078 
	C1218.191284,1297.746338 1224.743774,1297.345093 1231.040283,1293.059082 
	C1231.915039,1292.463867 1233.333374,1292.666626 1234.500000,1292.500000 
"/>
<path fill="none" opacity="1.000000" stroke="#000000" stroke-linecap="round" stroke-linejoin="round" stroke-width="4.000000"
	d="
M1158.000000,1090.000000 
	C1153.336792,1101.281006 1144.783813,1107.759888 1133.000000,1110.250000 
"/>
<path fill="none" opacity="1.000000" stroke="#000000" stroke-linecap="round" stroke-linejoin="round" stroke-width="4.000000"
	d="
M1226.000000,1124.500000 
	C1226.161377,1130.537720 1222.379639,1134.728149 1218.961548,1138.968994 
	C1212.921875,1146.463135 1204.862671,1150.662231 1195.500000,1152.500000 
"/>
<path fill="none" opacity="1.000000" stroke="#000000" stroke-linecap="round" stroke-linejoin="round" stroke-width="3.000000"
	d="
M865.000000,635.500000 
	C859.419617,633.422913 856.610779,635.924988 855.970886,642.497192 
	C855.492493,647.411011 856.887207,652.151489 857.000000,657.000000 
"/>
<path fill="none" opacity="1.000000" stroke="#000000" stroke-linecap="round" stroke-linejoin="round" stroke-width="4.000000"
	d="
M968.500000,1283.000000 
	C965.703796,1280.427856 965.794617,1276.439453 963.666992,1273.383667 
	C961.433655,1270.176270 959.120300,1267.254883 955.986511,1265.018921 
	C950.819153,1261.331421 944.992310,1261.551880 940.038635,1266.042603 
	C932.537048,1272.843140 930.193359,1281.656494 931.000000,1291.500000 
"/>
<path fill="none" opacity="1.000000" stroke="#000000" stroke-linecap="round" stroke-linejoin="round" stroke-width="3.000000"
	d="
M1020.500000,1006.500000 
	C1024.516846,1012.276794 1027.939209,1018.454407 1032.964111,1023.535522 
	C1039.406860,1030.050415 1045.318481,1029.968262 1053.481812,1025.466919 
	C1058.651367,1022.616516 1062.699829,1018.577209 1065.000000,1013.000000 
"/>
<path fill="none" opacity="1.000000" stroke="#000000" stroke-linecap="round" stroke-linejoin="round" stroke-width="3.000000"
	d="
M839.500000,743.500000 
	C830.932068,750.872192 823.094421,758.895935 816.961670,768.475464 
	C816.416687,769.326721 815.333313,769.833313 814.500000,770.500000 
"/>
<path fill="none" opacity="1.000000" stroke="#000000" stroke-linecap="round" stroke-linejoin="round" stroke-width="5.000000"
	d="
M1158.000000,1042.000000 
	C1162.152710,1052.432373 1169.719360,1058.833618 1180.449951,1062.161255 
	C1184.117188,1063.298584 1187.959106,1063.538696 1191.500000,1065.000000 
"/>
<path fill="none" opacity="1.000000" stroke="#000000" stroke-linecap="round" stroke-linejoin="round" stroke-width="4.000000"
	d="
M923.000000,1239.000000 
	C924.336792,1233.485352 925.892212,1228.052368 929.505188,1223.504150 
	C937.964966,1212.854126 948.535767,1213.779419 955.567322,1225.459473 
	C958.877930,1230.958496 959.810364,1237.175171 962.000000,1243.000000 
"/>
<path fill="none" opacity="1.000000" stroke="#000000" stroke-linecap="round" stroke-linejoin="round" stroke-width="5.000000"
	d="
M1199.000000,1226.500000 
	C1199.368164,1237.500977 1209.306763,1249.227295 1221.027710,1251.877563 
	C1223.745117,1252.492065 1225.019409,1253.508545 1226.068115,1255.970947 
	C1229.253662,1263.451416 1234.250366,1269.343018 1242.000000,1272.500000 
"/>
<path fill="none" opacity="1.000000" stroke="#000000" stroke-linecap="round" stroke-linejoin="round" stroke-width="5.000000"
	d="
M998.000000,585.000000 
	C991.806641,581.335632 985.069458,578.851257 978.506348,575.985535 
	C975.261719,574.568787 973.054016,576.882690 970.500000,578.000000 
"/>
<path fill="none" opacity="1.000000" stroke="#000000" stroke-linecap="round" stroke-linejoin="round" stroke-width="4.000000"
	d="
M1020.500000,1294.000000 
	C1033.003662,1300.950195 1030.645630,1316.364990 1022.963745,1324.967651 
	C1019.278503,1329.094604 1015.629456,1333.663818 1009.000000,1332.500000 
"/>
<path fill="none" opacity="1.000000" stroke="#000000" stroke-linecap="round" stroke-linejoin="round" stroke-width="4.000000"
	d="
M952.000000,1360.500000 
	C945.543396,1357.288818 939.443726,1353.059937 931.477478,1355.424072 
	C926.775208,1356.819458 925.378967,1361.403931 922.000000,1364.000000 
"/>
<path fill="none" opacity="1.000000" stroke="#000000" stroke-linecap="round" stroke-linejoin="round" stroke-width="5.000000"
	d="
M1151.500000,948.500000 
	C1149.422363,948.463074 1149.620239,950.274597 1148.973877,951.486023 
	C1145.179199,958.598450 1138.883423,963.874084 1127.500000,962.500000 
"/>
<path fill="none" opacity="1.000000" stroke="#000000" stroke-linecap="round" stroke-linejoin="round" stroke-width="3.000000"
	d="
M982.500000,1220.500000 
	C972.694336,1219.925781 968.146179,1226.406006 964.538269,1234.018188 
	C963.689758,1235.808228 963.265686,1237.792725 961.500000,1239.000000 
"/>
<path fill="none" opacity="1.000000" stroke="#000000" stroke-linecap="round" stroke-linejoin="round" stroke-width="4.000000"
	d="
M1216.500000,1045.000000 
	C1214.051514,1057.281494 1205.963379,1062.169067 1195.488892,1064.958496 
	C1194.907959,1065.113281 1194.166626,1064.666626 1193.500000,1064.500000 
"/>
<path fill="none" opacity="1.000000" stroke="#000000" stroke-linecap="round" stroke-linejoin="round" stroke-width="4.000000"
	d="
M943.500000,1163.000000 
	C951.897705,1164.541992 956.767151,1173.009644 957.018616,1182.999512 
	C957.048096,1184.169556 957.333374,1185.333374 957.500061,1186.500000 
"/>
<path fill="none" opacity="1.000000" stroke="#000000" stroke-linecap="round" stroke-linejoin="round" stroke-width="4.000000"
	d="
M919.500000,1388.000000 
	C910.514709,1388.961304 901.498230,1388.238770 892.500000,1388.500000 
"/>
<path fill="none" opacity="1.000000" stroke="#000000" stroke-linecap="round" stroke-linejoin="round" stroke-width="4.000000"
	d="
M991.500000,1305.000000 
	C990.425537,1299.011597 988.359253,1293.653442 983.542358,1289.451416 
	C975.543335,1282.473389 962.995056,1284.259033 958.898621,1295.964478 
	C957.339478,1300.419922 958.409546,1305.313232 956.000000,1309.500000 
"/>
<path fill="none" opacity="1.000000" stroke="#000000" stroke-linecap="round" stroke-linejoin="round" stroke-width="3.000000"
	d="
M1154.000000,1134.000000 
	C1148.571045,1143.871460 1139.699097,1148.362549 1129.000244,1150.001953 
	C1127.998291,1150.155396 1127.000000,1150.333252 1126.000000,1150.500000 
"/>
<path fill="none" opacity="1.000000" stroke="#000000" stroke-linecap="round" stroke-linejoin="round" stroke-width="3.000000"
	d="
M1003.000000,486.000000 
	C1003.138916,488.805603 1000.489319,489.230927 998.950073,489.881897 
	C990.748901,493.350067 984.226746,498.869781 978.500000,505.500000 
"/>
<path fill="none" opacity="1.000000" stroke="#000000" stroke-linecap="round" stroke-linejoin="round" stroke-width="5.000000"
	d="
M1095.500000,1041.500000 
	C1098.432251,1051.645142 1104.681519,1058.557739 1115.000366,1061.498535 
	C1117.664429,1062.257812 1120.308960,1063.110107 1123.009033,1063.709106 
	C1124.659790,1064.075317 1123.477539,1064.875488 1123.500000,1065.500000 
"/>
<path fill="none" opacity="1.000000" stroke="#000000" stroke-linecap="round" stroke-linejoin="round" stroke-width="4.000000"
	d="
M980.000000,1321.500000 
	C982.909790,1317.656128 983.185791,1312.458984 986.935608,1308.931519 
	C991.123169,1304.992310 997.244812,1302.936646 1001.982117,1305.040283 
	C1007.505371,1307.492798 1010.072205,1312.162720 1010.473694,1318.001831 
	C1011.143982,1327.749756 1007.373596,1335.899536 1000.983398,1342.984985 
	C999.091614,1345.082642 997.000061,1347.000122 995.000061,1349.000122 
"/>
<path fill="none" opacity="1.000000" stroke="#000000" stroke-linecap="round" stroke-linejoin="round" stroke-width="5.000000"
	d="
M1127.000000,964.000000 
	C1124.737427,964.374451 1124.313599,966.559814 1123.580444,968.039856 
	C1113.967285,987.445190 1088.923462,986.551147 1078.599121,967.945007 
	C1077.373901,965.737061 1075.523438,963.436646 1076.000000,960.500000 
"/>
<path fill="none" opacity="1.000000" stroke="#000000" stroke-linecap="round" stroke-linejoin="round" stroke-width="5.000000"
	d="
M1204.000000,1195.000000 
	C1209.033325,1202.177734 1214.970215,1207.607544 1223.922241,1210.262329 
	C1232.244995,1212.730469 1238.962402,1210.813110 1245.429565,1206.396851 
	C1248.285278,1204.446655 1251.083130,1202.083130 1253.000000,1199.000000 
"/>
<path fill="none" opacity="1.000000" stroke="#000000" stroke-linecap="round" stroke-linejoin="round" stroke-width="4.000000"
	d="
M1185.000000,1332.000000 
	C1186.303467,1341.373169 1187.925171,1350.606323 1196.000000,1357.000000 
"/>
<path fill="none" opacity="1.000000" stroke="#000000" stroke-linecap="round" stroke-linejoin="round" stroke-width="5.000000"
	d="
M1296.500000,891.500000 
	C1292.107910,890.358093 1288.709351,891.598389 1284.859741,894.300049 
	C1279.239014,898.244568 1272.760254,901.037048 1266.468018,903.930542 
	C1262.049438,905.962463 1257.754028,903.527161 1253.516113,902.437500 
	C1251.750977,901.983765 1250.648804,899.869080 1248.500000,900.000000 
"/>
<path fill="none" opacity="1.000000" stroke="#000000" stroke-linecap="round" stroke-linejoin="round" stroke-width="5.000000"
	d="
M1082.000000,915.500000 
	C1084.023926,924.941284 1089.474365,931.554749 1098.531006,934.916565 
	C1100.464478,935.634338 1102.307983,936.355774 1104.000000,937.500000 
"/>
<path fill="none" opacity="1.000000" stroke="#000000" stroke-linecap="round" stroke-linejoin="round" stroke-width="4.000000"
	d="
M1231.000000,1085.500000 
	C1236.505249,1093.814087 1243.898193,1099.233765 1254.000000,1100.500000 
"/>
<path fill="none" opacity="1.000000" stroke="#000000" stroke-linecap="round" stroke-linejoin="round" stroke-width="3.000000"
	d="
M865.500000,632.000000 
	C865.436707,633.986938 865.710999,635.706482 866.908630,637.559082 
	C870.024902,642.379639 868.697266,648.570251 864.541077,652.542969 
	C861.853943,655.111511 858.829590,656.994385 855.359253,658.240479 
	C856.972595,662.676208 858.417542,666.864685 860.013123,670.994934 
	C864.516479,682.652405 873.808716,688.855103 884.959045,693.107361 
	C886.726196,693.781372 889.766724,693.285645 890.000000,696.500000 
"/>
<path fill="none" opacity="1.000000" stroke="#000000" stroke-linecap="round" stroke-linejoin="round" stroke-width="4.000000"
	d="
M1232.000000,1212.000000 
	C1235.493774,1221.908813 1243.526123,1225.463379 1253.000000,1227.000000 
"/>
<path fill="none" opacity="1.000000" stroke="#000000" stroke-linecap="round" stroke-linejoin="round" stroke-width="4.000000"
	d="
M1033.500000,1263.000000 
	C1035.000000,1265.333374 1036.523438,1267.651978 1037.996094,1270.002441 
	C1045.702148,1282.301270 1038.603271,1298.094849 1029.500000,1303.500000 
"/>
<path fill="none" opacity="1.000000" stroke="#000000" stroke-linecap="round" stroke-linejoin="round" stroke-width="4.000000"
	d="
M990.500000,1298.000000 
	C995.257324,1292.603027 997.855835,1286.039429 1000.501099,1279.500488 
	C1001.116638,1277.978760 1001.746338,1276.463013 1002.392212,1274.889160 
	C999.662720,1273.085571 1000.019104,1269.485229 998.126526,1266.907104 
	C993.352051,1260.403320 984.860352,1259.370605 979.466187,1264.967407 
	C974.347900,1270.277954 971.874817,1276.980591 969.041626,1283.518066 
	C968.885559,1283.878174 969.333313,1284.500000 969.500000,1285.000000 
"/>
<path fill="none" opacity="1.000000" stroke="#000000" stroke-linecap="round" stroke-linejoin="round" stroke-width="4.000000"
	d="
M1132.500000,1108.500000 
	C1131.001465,1111.455933 1126.504639,1113.503174 1123.052246,1111.888428 
	C1117.998169,1109.524414 1112.223755,1108.681519 1107.940308,1104.562134 
	C1105.957886,1102.655640 1103.903442,1100.821899 1102.561279,1098.465088 
	C1101.337646,1096.316162 1100.026978,1094.544189 1097.500000,1094.000000 
"/>
<path fill="none" opacity="1.000000" stroke="#000000" stroke-linecap="round" stroke-linejoin="round" stroke-width="4.000000"
	d="
M1003.000000,1275.000000 
	C1005.683716,1274.221313 1007.995544,1272.370728 1011.000732,1272.479858 
	C1019.624634,1272.793091 1024.856323,1280.642334 1022.011475,1289.003906 
	C1019.898743,1295.213501 1015.145996,1299.015991 1010.002686,1302.503906 
	C1008.319092,1303.645630 1006.666687,1304.833374 1005.000000,1306.000000 
"/>
<path fill="none" opacity="1.000000" stroke="#000000" stroke-linecap="round" stroke-linejoin="round" stroke-width="5.000000"
	d="
M1249.000000,1244.000000 
	C1247.739502,1244.004883 1246.501709,1243.869385 1245.485718,1244.987061 
	C1240.134888,1250.872437 1232.749023,1252.036743 1225.500000,1253.500000 
"/>
<path fill="none" opacity="1.000000" stroke="#000000" stroke-linecap="round" stroke-linejoin="round" stroke-width="4.000000"
	d="
M925.500000,1183.500000 
	C933.465332,1187.402710 938.230103,1193.647339 939.551636,1202.492310 
	C939.660034,1203.217407 940.500061,1203.833252 941.000061,1204.500000 
"/>
<path fill="none" opacity="1.000000" stroke="#000000" stroke-linecap="round" stroke-linejoin="round" stroke-width="4.000000"
	d="
M905.000000,1327.000000 
	C918.876221,1322.579712 929.066101,1328.419189 938.068481,1338.438477 
	C942.544800,1343.420410 946.032043,1348.839966 948.515869,1354.993652 
	C948.871033,1355.873291 948.970032,1356.666626 948.500000,1357.500000 
"/>
<path fill="none" opacity="1.000000" stroke="#000000" stroke-linecap="round" stroke-linejoin="round" stroke-width="4.000000"
	d="
M1123.000000,1066.500000 
	C1117.674561,1078.224487 1108.615112,1085.147949 1096.000000,1087.500000 
"/>
<path fill="none" opacity="1.000000" stroke="#000000" stroke-linecap="round" stroke-linejoin="round" stroke-width="3.000000"
	d="
M968.500000,702.500000 
	C972.574463,709.761719 973.558228,717.229431 970.000000,725.000000 
"/>
<path fill="none" opacity="1.000000" stroke="#000000" stroke-linecap="round" stroke-linejoin="round" stroke-width="4.000000"
	d="
M993.500000,1193.500000 
	C993.298157,1190.286255 992.885742,1186.815918 991.787964,1184.085205 
	C987.728088,1173.985962 982.456299,1172.125000 971.575562,1175.728149 
	C967.265320,1177.155396 962.146301,1179.479614 961.500000,1185.500000 
"/>
<path fill="none" opacity="1.000000" stroke="#000000" stroke-linecap="round" stroke-linejoin="round" stroke-width="4.000000"
	d="
M1045.000000,1032.000000 
	C1041.950806,1038.842407 1041.582153,1046.245850 1040.500000,1053.500000 
"/>
<path fill="none" opacity="1.000000" stroke="#000000" stroke-linecap="round" stroke-linejoin="round" stroke-width="3.000000"
	d="
M1122.500000,1112.500000 
	C1118.963867,1119.112549 1113.702026,1123.204102 1105.998047,1123.436523 
	C1104.561157,1123.479858 1103.820801,1124.141602 1103.000000,1125.000000 
"/>
<path fill="none" opacity="1.000000" stroke="#000000" stroke-linecap="round" stroke-linejoin="round" stroke-width="4.000000"
	d="
M932.000000,528.500000 
	C930.333313,527.333374 928.702209,526.111450 926.992859,525.011108 
	C923.025757,522.457520 919.689392,523.202637 918.630798,527.531982 
	C917.528076,532.042236 915.986145,536.701416 917.500000,541.500000 
"/>
<path fill="none" opacity="1.000000" stroke="#000000" stroke-linecap="round" stroke-linejoin="round" stroke-width="5.000000"
	d="
M1091.500000,1041.000000 
	C1087.063599,1047.616821 1080.721802,1051.168335 1073.000000,1052.500000 
"/>
<path fill="none" opacity="1.000000" stroke="#000000" stroke-linecap="round" stroke-linejoin="round" stroke-width="4.000000"
	d="
M906.000000,711.500000 
	C904.073853,711.729919 902.757751,709.842285 902.695312,708.985779 
	C902.559082,707.117371 901.065186,706.194092 900.331787,705.114197 
	C894.584961,696.651978 891.427612,695.765137 878.999390,697.996704 
	C875.169861,698.684326 871.333313,699.333313 867.500000,700.000000 
"/>
<path fill="none" opacity="1.000000" stroke="#000000" stroke-linecap="round" stroke-linejoin="round" stroke-width="5.000000"
	d="
M1248.500000,1071.500000 
	C1244.206543,1081.319946 1235.726196,1084.411133 1226.000000,1085.500000 
"/>
<path fill="none" opacity="1.000000" stroke="#000000" stroke-linecap="round" stroke-linejoin="round" stroke-width="4.000000"
	d="
M922.500000,1183.000000 
	C917.443970,1182.887939 913.590088,1185.231079 910.519287,1189.015625 
	C909.122864,1190.736572 908.229675,1192.995483 905.500000,1193.000000 
"/>
<path fill="none" opacity="1.000000" stroke="#000000" stroke-linecap="round" stroke-linejoin="round" stroke-width="3.000000"
	d="
M1068.000000,1388.500000 
	C1062.333374,1389.333374 1056.666626,1390.166748 1051.000000,1391.000000 
"/>
<path fill="none" opacity="1.000000" stroke="#000000" stroke-linecap="round" stroke-linejoin="round" stroke-width="3.000000"
	d="
M920.500000,583.500000 
	C916.166687,582.661926 911.766357,582.701233 907.532715,583.646545 
	C905.821289,584.028625 904.811951,583.337708 903.500000,583.000000 
"/>
<path fill="none" opacity="1.000000" stroke="#000000" stroke-linecap="round" stroke-linejoin="round" stroke-width="4.000000"
	d="
M882.750000,727.000000 
	C878.930542,732.774292 876.700500,738.945984 878.000000,746.000000 
"/>
<path fill="none" opacity="1.000000" stroke="#000000" stroke-linecap="round" stroke-linejoin="round" stroke-width="4.000000"
	d="
M1181.000000,1373.500000 
	C1175.603882,1370.611572 1169.421021,1369.121948 1165.000000,1364.500000 
"/>
<path fill="none" opacity="1.000000" stroke="#000000" stroke-linecap="round" stroke-linejoin="round" stroke-width="3.000000"
	d="
M910.250000,698.250000 
	C905.230469,696.702454 900.189270,695.595947 895.000000,697.500000 
"/>
<path fill="none" opacity="1.000000" stroke="#000000" stroke-linecap="round" stroke-linejoin="round" stroke-width="3.000000"
	d="
M1053.000000,1236.000000 
	C1056.000000,1238.000000 1058.986816,1240.020142 1062.004883,1241.992432 
	C1063.817261,1243.176636 1065.808228,1243.767334 1068.000000,1243.500000 
"/>
<path fill="none" opacity="1.000000" stroke="#000000" stroke-linecap="round" stroke-linejoin="round" stroke-width="3.000000"
	d="
M911.000000,727.500000 
	C906.651062,732.564270 905.050171,738.884827 903.000000,745.000000 
"/>
<path fill="none" opacity="1.000000" stroke="#000000" stroke-linecap="round" stroke-linejoin="round" stroke-width="4.000000"
	d="
M963.000000,577.000000 
	C956.499023,572.971680 950.760681,573.902588 949.623840,579.525024 
	C948.909546,583.057251 947.229492,586.813171 949.459595,590.524292 
	C949.753967,591.014099 949.500000,591.833313 949.500000,592.500000 
"/>
<path fill="none" opacity="1.000000" stroke="#000000" stroke-linecap="round" stroke-linejoin="round" stroke-width="3.000000"
	d="
M1114.000000,1218.000000 
	C1118.305786,1221.426147 1123.665039,1222.669922 1128.500000,1225.000000 
"/>
<path fill="none" opacity="1.000000" stroke="#000000" stroke-linecap="round" stroke-linejoin="round" stroke-width="3.000000"
	d="
M903.000000,741.500000 
	C899.500000,741.166687 895.881653,740.128296 892.531921,740.690369 
	C888.892578,741.301208 888.151123,739.589294 886.911316,737.043152 
	C885.608093,734.366638 885.389404,731.138611 883.000000,729.000000 
"/>
<path fill="none" opacity="1.000000" stroke="#000000" stroke-linecap="round" stroke-linejoin="round" stroke-width="4.000000"
	d="
M919.500000,698.000000 
	C913.159363,695.122925 910.900818,696.077759 909.007812,702.502319 
	C908.127869,705.488586 907.702881,708.676758 906.379883,711.442566 
	C905.370972,713.551880 907.379456,714.113464 907.500000,715.500000 
"/>
<path fill="none" opacity="1.000000" stroke="#000000" stroke-linecap="round" stroke-linejoin="round" stroke-width="3.000000"
	d="
M934.500000,1022.500000 
	C930.821838,1020.858643 927.942322,1017.460205 923.500000,1017.500000 
"/>
<path fill="none" opacity="1.000000" stroke="#000000" stroke-linecap="round" stroke-linejoin="round" stroke-width="4.000000"
	d="
M870.000000,700.500000 
	C868.659607,703.707275 870.630005,707.411133 868.500000,710.500000 
"/>
<path fill="none" opacity="1.000000" stroke="#000000" stroke-linecap="round" stroke-linejoin="round" stroke-width="4.000000"
	d="
M889.000000,577.500000 
	C887.242249,580.690918 887.004272,584.033752 888.000000,587.500000 
"/>
<path fill="none" opacity="1.000000" stroke="#000000" stroke-linecap="round" stroke-linejoin="round" stroke-width="3.000000"
	d="
M941.500000,1205.750000 
	C941.666687,1209.000000 941.833313,1212.250000 942.000000,1215.500000 
"/>
<path fill="none" opacity="1.000000" stroke="#000000" stroke-linecap="round" stroke-linejoin="round" stroke-width="3.000000"
	d="
M858.500000,703.000000 
	C862.437073,706.246155 865.824463,710.186646 870.500000,712.500000 
"/>
<path fill="none" opacity="1.000000" stroke="#000000" stroke-linecap="round" stroke-linejoin="round" stroke-width="3.000000"
	d="
M910.500000,724.500000 
	C912.811279,731.942200 917.633667,738.098206 921.000000,745.000000 
"/>
<path fill="none" opacity="1.000000" stroke="#000000" stroke-linecap="round" stroke-linejoin="round" stroke-width="3.000000"
	d="
M841.500000,660.500000 
	C838.666687,659.110413 835.833313,660.936218 833.000000,660.500000 
"/>
<path fill="none" opacity="1.000000" stroke="#000000" stroke-linecap="round" stroke-linejoin="round" stroke-width="3.000000"
	d="
M600.000000,1581.500000 
	C600.166687,1583.833374 600.333374,1586.166626 600.500000,1588.500000 
"/>
<path fill="none" opacity="1.000000" stroke="#000000" stroke-linecap="round" stroke-linejoin="round" stroke-width="3.000000"
	d="
M841.500000,670.499939 
	C839.333313,671.333313 837.166626,672.166626 835.000000,672.999939 
"/>
<path fill="none" opacity="1.000000" stroke="#000000" stroke-linecap="round" stroke-linejoin="round" stroke-width="2.000000"
	d="
M1071.500000,951.500000 
	C1071.515015,953.715637 1072.993164,955.706177 1072.500000,958.000000 
"/>
<path fill="none" opacity="1.000000" stroke="#000000" stroke-linecap="round" stroke-linejoin="round" stroke-width="3.000000"
	d="
M1281.000000,748.500000 
	C1282.650391,749.735840 1284.174072,751.250427 1286.500000,751.000000 
"/>
<path fill="none" opacity="1.000000" stroke="#000000" stroke-linecap="round" stroke-linejoin="round" stroke-width="2.000000"
	d="
M1066.500000,1007.500000 
	C1066.666626,1008.666687 1066.833374,1009.833313 1067.000000,1011.000000 
"/>
<path fill="none" opacity="1.000000" stroke="#000000" stroke-linecap="round" stroke-linejoin="round" stroke-width="2.000000"
	d="
M1063.000000,1304.500000 
	C1064.223877,1305.174561 1064.955200,1306.259644 1065.500000,1307.500000 
"/>
<path fill="none" opacity="1.000000" stroke="#000000" stroke-linecap="round" stroke-linejoin="round" stroke-width="2.000000"
	d="
M967.000000,497.500000 
	C966.937378,498.718689 967.426392,500.213196 965.500000,500.500000 
"/>
<path fill="none" opacity="1.000000" stroke="#000000" stroke-linecap="round" stroke-linejoin="round" stroke-width="5.000000"
	d="
M1069.500000,958.000000 
	C1075.278076,960.102417 1081.223389,960.484863 1086.975708,958.432068 
	C1097.004517,954.853271 1102.309570,947.131836 1104.500000,937.000000 
"/>
<path fill="none" opacity="1.000000" stroke="#000000" stroke-linecap="round" stroke-linejoin="round" stroke-width="13.000000"
	d="
M1230.000000,1520.500000 
	C1221.278442,1521.689331 1213.150635,1524.351440 1207.030518,1531.027954 
	C1196.942993,1542.033081 1193.292358,1554.723267 1196.936523,1569.515625 
	C1200.615723,1584.450073 1210.197144,1594.229126 1224.562256,1597.198975 
	C1245.814209,1601.592529 1265.722778,1590.174683 1270.394287,1566.479126 
	C1273.571167,1550.364990 1268.224976,1536.941284 1254.973389,1527.035645 
	C1247.759155,1521.642944 1239.322754,1520.193726 1230.500000,1520.500000 
"/>
</svg>